%TF.GenerationSoftware,KiCad,Pcbnew,5.1.7-a382d34a8~88~ubuntu20.04.1*%
%TF.CreationDate,2021-05-08T15:19:39+02:00*%
%TF.ProjectId,OpenCelluloid,4f70656e-4365-46c6-9c75-6c6f69642e6b,rev?*%
%TF.SameCoordinates,Original*%
%TF.FileFunction,Soldermask,Top*%
%TF.FilePolarity,Negative*%
%FSLAX46Y46*%
G04 Gerber Fmt 4.6, Leading zero omitted, Abs format (unit mm)*
G04 Created by KiCad (PCBNEW 5.1.7-a382d34a8~88~ubuntu20.04.1) date 2021-05-08 15:19:39*
%MOMM*%
%LPD*%
G01*
G04 APERTURE LIST*
%ADD10C,0.800000*%
%ADD11C,5.000000*%
%ADD12C,6.000000*%
%ADD13C,4.000000*%
%ADD14C,1.200000*%
%ADD15O,1.700000X2.000000*%
%ADD16O,1.500000X2.020000*%
%ADD17C,3.000000*%
%ADD18C,3.600000*%
%ADD19C,0.400000*%
%ADD20C,1.600000*%
%ADD21C,2.500000*%
%ADD22O,1.600000X1.600000*%
%ADD23R,1.600000X1.600000*%
%ADD24O,1.500000X1.100000*%
%ADD25C,1.750000*%
%ADD26R,3.000000X3.000000*%
%ADD27C,1.524000*%
%ADD28O,1.700000X1.950000*%
%ADD29O,1.600000X2.400000*%
%ADD30R,1.600000X2.400000*%
%ADD31R,1.800000X1.800000*%
%ADD32C,1.800000*%
%ADD33O,3.500000X2.500000*%
%ADD34O,2.500000X3.500000*%
%ADD35R,4.000000X2.000000*%
%ADD36R,3.500000X3.500000*%
%ADD37C,1.300000*%
%ADD38C,2.000000*%
%ADD39O,1.400000X1.400000*%
%ADD40C,1.400000*%
%ADD41O,1.905000X2.000000*%
%ADD42R,1.905000X2.000000*%
%ADD43O,3.500000X3.500000*%
%ADD44O,1.700000X1.700000*%
%ADD45R,1.700000X1.700000*%
%ADD46O,2.200000X2.200000*%
%ADD47R,2.200000X2.200000*%
%ADD48C,0.254000*%
%ADD49C,0.100000*%
G04 APERTURE END LIST*
D10*
%TO.C,REF\u002A\u002A*%
X354825825Y-268174175D03*
X353500000Y-267625000D03*
X352174175Y-268174175D03*
X351625000Y-269500000D03*
X352174175Y-270825825D03*
X353500000Y-271375000D03*
X354825825Y-270825825D03*
X355375000Y-269500000D03*
D11*
X353500000Y-269500000D03*
%TD*%
D12*
%TO.C,REF\u002A\u002A*%
X356250000Y-238000000D03*
D10*
X358500000Y-238000000D03*
X357840990Y-239590990D03*
X356250000Y-240250000D03*
X354659010Y-239590990D03*
X354000000Y-238000000D03*
X354659010Y-236409010D03*
X356250000Y-235750000D03*
X357840990Y-236409010D03*
%TD*%
D12*
%TO.C,REF\u002A\u002A*%
X194000000Y-237500000D03*
D10*
X196250000Y-237500000D03*
X195590990Y-239090990D03*
X194000000Y-239750000D03*
X192409010Y-239090990D03*
X191750000Y-237500000D03*
X192409010Y-235909010D03*
X194000000Y-235250000D03*
X195590990Y-235909010D03*
%TD*%
D12*
%TO.C,REF\u002A\u002A*%
X194250000Y-196500000D03*
D10*
X196500000Y-196500000D03*
X195840990Y-198090990D03*
X194250000Y-198750000D03*
X192659010Y-198090990D03*
X192000000Y-196500000D03*
X192659010Y-194909010D03*
X194250000Y-194250000D03*
X195840990Y-194909010D03*
%TD*%
D12*
%TO.C,REF\u002A\u002A*%
X355250000Y-196750000D03*
D10*
X357500000Y-196750000D03*
X356840990Y-198340990D03*
X355250000Y-199000000D03*
X353659010Y-198340990D03*
X353000000Y-196750000D03*
X353659010Y-195159010D03*
X355250000Y-194500000D03*
X356840990Y-195159010D03*
%TD*%
D12*
%TO.C,REF\u002A\u002A*%
X194500000Y-107000000D03*
D10*
X196750000Y-107000000D03*
X196090990Y-108590990D03*
X194500000Y-109250000D03*
X192909010Y-108590990D03*
X192250000Y-107000000D03*
X192909010Y-105409010D03*
X194500000Y-104750000D03*
X196090990Y-105409010D03*
%TD*%
%TO.C,REF\u002A\u002A*%
X357340990Y-105159010D03*
X355750000Y-104500000D03*
X354159010Y-105159010D03*
X353500000Y-106750000D03*
X354159010Y-108340990D03*
X355750000Y-109000000D03*
X357340990Y-108340990D03*
X358000000Y-106750000D03*
D12*
X355750000Y-106750000D03*
%TD*%
D13*
%TO.C,J16*%
X373120000Y-221950000D03*
X405120000Y-189950000D03*
X405120000Y-221950000D03*
X373120000Y-189950000D03*
D14*
X402770000Y-170070000D03*
D15*
X406870000Y-168070000D03*
G36*
G01*
X403520000Y-168820100D02*
X403520000Y-167319900D01*
G75*
G02*
X403769900Y-167070000I249900J0D01*
G01*
X404970100Y-167070000D01*
G75*
G02*
X405220000Y-167319900I0J-249900D01*
G01*
X405220000Y-168820100D01*
G75*
G02*
X404970100Y-169070000I-249900J0D01*
G01*
X403769900Y-169070000D01*
G75*
G02*
X403520000Y-168820100I0J249900D01*
G01*
G37*
D14*
X371300000Y-170280000D03*
D15*
X375400000Y-168280000D03*
G36*
G01*
X372050000Y-169030000D02*
X372050000Y-167530000D01*
G75*
G02*
X372300000Y-167280000I250000J0D01*
G01*
X373500000Y-167280000D01*
G75*
G02*
X373750000Y-167530000I0J-250000D01*
G01*
X373750000Y-169030000D01*
G75*
G02*
X373500000Y-169280000I-250000J0D01*
G01*
X372300000Y-169280000D01*
G75*
G02*
X372050000Y-169030000I0J250000D01*
G01*
G37*
D16*
X391480000Y-170680000D03*
X388480000Y-170680000D03*
X394480000Y-170680000D03*
D17*
X392330000Y-166360000D03*
X387630000Y-166360000D03*
G36*
G01*
X384730000Y-171440000D02*
X384730000Y-169920000D01*
G75*
G02*
X384980000Y-169670000I250000J0D01*
G01*
X385980000Y-169670000D01*
G75*
G02*
X386230000Y-169920000I0J-250000D01*
G01*
X386230000Y-171440000D01*
G75*
G02*
X385980000Y-171690000I-250000J0D01*
G01*
X384980000Y-171690000D01*
G75*
G02*
X384730000Y-171440000I0J250000D01*
G01*
G37*
D18*
X389950000Y-184300000D03*
X389950000Y-227500000D03*
X368350000Y-205900000D03*
X411550000Y-205900000D03*
D19*
X373950000Y-219900000D03*
X373950000Y-191900000D03*
X373950000Y-195900000D03*
X373950000Y-217900000D03*
X373950000Y-207900000D03*
X373950000Y-209900000D03*
X373950000Y-197900000D03*
X373950000Y-189900000D03*
X373950000Y-221900000D03*
X373950000Y-201900000D03*
X373950000Y-205900000D03*
X373950000Y-211900000D03*
X373950000Y-203900000D03*
X373950000Y-213900000D03*
X373950000Y-215900000D03*
X373950000Y-199900000D03*
X373950000Y-193900000D03*
X383950000Y-207900000D03*
X377950000Y-211900000D03*
X379950000Y-203900000D03*
X381950000Y-199900000D03*
X385950000Y-219900000D03*
X387950000Y-189900000D03*
X389950000Y-213900000D03*
X383950000Y-213900000D03*
X383950000Y-199900000D03*
X375950000Y-211900000D03*
X379950000Y-213900000D03*
X381950000Y-191900000D03*
X389950000Y-221900000D03*
X377950000Y-213900000D03*
X379950000Y-211900000D03*
X387950000Y-199900000D03*
X383950000Y-211900000D03*
X379950000Y-197900000D03*
X377950000Y-203900000D03*
X375950000Y-191900000D03*
X375950000Y-195900000D03*
X389950000Y-211900000D03*
X379950000Y-199900000D03*
X377950000Y-205900000D03*
X375950000Y-199900000D03*
X381950000Y-211900000D03*
X387950000Y-191900000D03*
X381950000Y-197900000D03*
X377950000Y-215900000D03*
X385950000Y-215900000D03*
X377950000Y-217900000D03*
X381950000Y-193900000D03*
X383950000Y-219900000D03*
X389950000Y-197900000D03*
X377950000Y-193900000D03*
X375950000Y-221900000D03*
X381950000Y-205900000D03*
X379950000Y-189900000D03*
X377950000Y-189900000D03*
X389950000Y-205900000D03*
X389950000Y-207900000D03*
X389950000Y-189900000D03*
X383950000Y-215900000D03*
X383950000Y-217900000D03*
X385950000Y-189900000D03*
X385950000Y-191900000D03*
X387950000Y-211900000D03*
X375950000Y-213900000D03*
X387950000Y-209900000D03*
X375950000Y-205900000D03*
X377950000Y-195900000D03*
X379950000Y-217900000D03*
X387950000Y-219900000D03*
X383950000Y-221900000D03*
X379950000Y-205900000D03*
X383950000Y-203900000D03*
X381950000Y-219900000D03*
X377950000Y-191900000D03*
X389950000Y-193900000D03*
X375950000Y-217900000D03*
X379950000Y-219900000D03*
X375950000Y-201900000D03*
X387950000Y-213900000D03*
X389950000Y-195900000D03*
X387950000Y-197900000D03*
X381950000Y-189900000D03*
X383950000Y-189900000D03*
X385950000Y-207900000D03*
X379950000Y-191900000D03*
X389950000Y-191900000D03*
X379950000Y-209900000D03*
X385950000Y-217900000D03*
X377950000Y-197900000D03*
X389950000Y-215900000D03*
X387950000Y-193900000D03*
X377950000Y-207900000D03*
X375950000Y-215900000D03*
X389950000Y-201900000D03*
X387950000Y-195900000D03*
X383950000Y-191900000D03*
X385950000Y-193900000D03*
X387950000Y-221900000D03*
X375950000Y-189900000D03*
X389950000Y-209900000D03*
X387950000Y-215900000D03*
X379950000Y-193900000D03*
X381950000Y-209900000D03*
X383950000Y-197900000D03*
X385950000Y-211900000D03*
X387950000Y-205900000D03*
X385950000Y-195900000D03*
X383950000Y-195900000D03*
X379950000Y-215900000D03*
X387950000Y-201900000D03*
X379950000Y-195900000D03*
X383950000Y-205900000D03*
X379950000Y-221900000D03*
X385950000Y-213900000D03*
X387950000Y-217900000D03*
X385950000Y-201900000D03*
X385950000Y-209900000D03*
X385950000Y-197900000D03*
X385950000Y-199900000D03*
X375950000Y-203900000D03*
X375950000Y-209900000D03*
X377950000Y-219900000D03*
X381950000Y-221900000D03*
X385950000Y-203900000D03*
X381950000Y-201900000D03*
X381950000Y-207900000D03*
X375950000Y-219900000D03*
X377950000Y-201900000D03*
X375950000Y-207900000D03*
X379950000Y-201900000D03*
X381950000Y-195900000D03*
X379950000Y-207900000D03*
X383950000Y-193900000D03*
X387950000Y-207900000D03*
X381950000Y-213900000D03*
X383950000Y-209900000D03*
X385950000Y-205900000D03*
X377950000Y-209900000D03*
X375950000Y-193900000D03*
X385950000Y-221900000D03*
X389950000Y-217900000D03*
X383950000Y-201900000D03*
X375950000Y-197900000D03*
X389950000Y-219900000D03*
X381950000Y-217900000D03*
X377950000Y-199900000D03*
X387950000Y-203900000D03*
X389950000Y-199900000D03*
X381950000Y-203900000D03*
X377950000Y-221900000D03*
X381950000Y-215900000D03*
X389950000Y-203900000D03*
X391950000Y-207900000D03*
X393950000Y-219900000D03*
X395950000Y-189900000D03*
X397950000Y-213900000D03*
X391950000Y-213900000D03*
X391950000Y-199900000D03*
X397950000Y-221900000D03*
X395950000Y-199900000D03*
X391950000Y-211900000D03*
X397950000Y-211900000D03*
X395950000Y-191900000D03*
X393950000Y-215900000D03*
X391950000Y-219900000D03*
X397950000Y-197900000D03*
X397950000Y-205900000D03*
X397950000Y-207900000D03*
X397950000Y-189900000D03*
X391950000Y-215900000D03*
X391950000Y-217900000D03*
X393950000Y-189900000D03*
X393950000Y-191900000D03*
X395950000Y-211900000D03*
X395950000Y-209900000D03*
X395950000Y-219900000D03*
X391950000Y-221900000D03*
X391950000Y-203900000D03*
X397950000Y-193900000D03*
X395950000Y-213900000D03*
X397950000Y-195900000D03*
X395950000Y-197900000D03*
X391950000Y-189900000D03*
X393950000Y-207900000D03*
X397950000Y-191900000D03*
X393950000Y-217900000D03*
X397950000Y-215900000D03*
X395950000Y-193900000D03*
X397950000Y-201900000D03*
X395950000Y-195900000D03*
X391950000Y-191900000D03*
X393950000Y-193900000D03*
X395950000Y-221900000D03*
X397950000Y-209900000D03*
X395950000Y-215900000D03*
X391950000Y-197900000D03*
X393950000Y-211900000D03*
X395950000Y-205900000D03*
X393950000Y-195900000D03*
X391950000Y-195900000D03*
X395950000Y-201900000D03*
X391950000Y-205900000D03*
X393950000Y-213900000D03*
X395950000Y-217900000D03*
X393950000Y-201900000D03*
X393950000Y-209900000D03*
X393950000Y-197900000D03*
X393950000Y-199900000D03*
X393950000Y-203900000D03*
X391950000Y-193900000D03*
X395950000Y-207900000D03*
X391950000Y-209900000D03*
X393950000Y-205900000D03*
X393950000Y-221900000D03*
X397950000Y-217900000D03*
X391950000Y-201900000D03*
X397950000Y-219900000D03*
X395950000Y-203900000D03*
X397950000Y-199900000D03*
X397950000Y-203900000D03*
X399950000Y-189900000D03*
X401950000Y-213900000D03*
X401950000Y-221900000D03*
X399950000Y-199900000D03*
X401950000Y-211900000D03*
X399950000Y-191900000D03*
X401950000Y-197900000D03*
X401950000Y-205900000D03*
X401950000Y-207900000D03*
X401950000Y-189900000D03*
X399950000Y-211900000D03*
X399950000Y-209900000D03*
X399950000Y-219900000D03*
X401950000Y-193900000D03*
X399950000Y-213900000D03*
X401950000Y-195900000D03*
X399950000Y-197900000D03*
X401950000Y-191900000D03*
X401950000Y-215900000D03*
X399950000Y-193900000D03*
X401950000Y-201900000D03*
X399950000Y-195900000D03*
X399950000Y-221900000D03*
X401950000Y-209900000D03*
X399950000Y-215900000D03*
X399950000Y-205900000D03*
X399950000Y-201900000D03*
X399950000Y-217900000D03*
X399950000Y-207900000D03*
X401950000Y-217900000D03*
X401950000Y-219900000D03*
X399950000Y-203900000D03*
X401950000Y-199900000D03*
X401950000Y-203900000D03*
X403950000Y-213900000D03*
X403950000Y-211900000D03*
X403950000Y-197900000D03*
X403950000Y-205900000D03*
X403950000Y-207900000D03*
X403950000Y-189900000D03*
X403950000Y-193900000D03*
X403950000Y-195900000D03*
X403950000Y-191900000D03*
X403950000Y-215900000D03*
X403950000Y-201900000D03*
X403950000Y-209900000D03*
X403950000Y-217900000D03*
X403950000Y-219900000D03*
X403950000Y-199900000D03*
X403950000Y-203900000D03*
X403950000Y-221900000D03*
X405950000Y-221900000D03*
X405950000Y-213900000D03*
X405950000Y-205900000D03*
X405950000Y-211900000D03*
X405950000Y-215900000D03*
X405950000Y-219900000D03*
X405950000Y-209900000D03*
X405950000Y-207900000D03*
X405950000Y-217900000D03*
X405950000Y-197900000D03*
X405950000Y-203900000D03*
X405950000Y-201900000D03*
X405950000Y-199900000D03*
X405950000Y-193900000D03*
X405950000Y-195900000D03*
X405950000Y-191900000D03*
X405950000Y-189900000D03*
%TD*%
D16*
%TO.C,J15*%
X306900000Y-111100000D03*
X303900000Y-111100000D03*
X300900000Y-111100000D03*
G36*
G01*
X297150000Y-111860000D02*
X297150000Y-110340000D01*
G75*
G02*
X297400000Y-110090000I250000J0D01*
G01*
X298400000Y-110090000D01*
G75*
G02*
X298650000Y-110340000I0J-250000D01*
G01*
X298650000Y-111860000D01*
G75*
G02*
X298400000Y-112110000I-250000J0D01*
G01*
X297400000Y-112110000D01*
G75*
G02*
X297150000Y-111860000I0J250000D01*
G01*
G37*
D17*
X304750000Y-106780000D03*
X300050000Y-106780000D03*
%TD*%
D20*
%TO.C,Murata-Ceramic-Capacitor-50v1-22uF1*%
X304840000Y-115570000D03*
X307340000Y-115570000D03*
%TD*%
%TO.C,Murata-Ceramic-Capacitor-50v1-22uF6*%
X295656000Y-119724800D03*
X295656000Y-122224800D03*
%TD*%
D21*
%TO.C,U7*%
X277296000Y-218998800D03*
X277296000Y-231748800D03*
X217096000Y-193298800D03*
X217096000Y-213048800D03*
X217096000Y-219098800D03*
X217096000Y-225098800D03*
X217096000Y-231098800D03*
%TD*%
D22*
%TO.C,U15*%
X257048000Y-121031000D03*
X241808000Y-113411000D03*
X254508000Y-121031000D03*
X244348000Y-113411000D03*
X251968000Y-121031000D03*
X246888000Y-113411000D03*
X249428000Y-121031000D03*
X249428000Y-113411000D03*
X246888000Y-121031000D03*
X251968000Y-113411000D03*
X244348000Y-121031000D03*
X254508000Y-113411000D03*
X241808000Y-121031000D03*
D23*
X257048000Y-113411000D03*
%TD*%
D24*
%TO.C,U14*%
X355600000Y-264100000D03*
G36*
G01*
X355125000Y-261750000D02*
X356075000Y-261750000D01*
G75*
G02*
X356350000Y-262025000I0J-275000D01*
G01*
X356350000Y-262575000D01*
G75*
G02*
X356075000Y-262850000I-275000J0D01*
G01*
X355125000Y-262850000D01*
G75*
G02*
X354850000Y-262575000I0J275000D01*
G01*
X354850000Y-262025000D01*
G75*
G02*
X355125000Y-261750000I275000J0D01*
G01*
G37*
X351600000Y-262300000D03*
X351600000Y-264100000D03*
%TD*%
D25*
%TO.C,U13*%
X222569400Y-164671600D03*
X227569400Y-164671600D03*
D26*
X232069400Y-171671600D03*
X218069400Y-171671600D03*
D25*
X225069400Y-179171600D03*
X227609400Y-179171600D03*
X222529400Y-179171600D03*
%TD*%
D27*
%TO.C,U12*%
X294767000Y-150622000D03*
X297307000Y-150622000D03*
X299847000Y-150622000D03*
X302387000Y-150622000D03*
X304927000Y-150622000D03*
X307467000Y-150622000D03*
X310007000Y-150622000D03*
X312547000Y-150622000D03*
X312547000Y-163322000D03*
X310007000Y-163322000D03*
X307467000Y-163322000D03*
X304927000Y-163322000D03*
X302387000Y-163322000D03*
X299847000Y-163322000D03*
X297307000Y-163322000D03*
X294767000Y-163322000D03*
%TD*%
D28*
%TO.C,U11*%
X224583000Y-104775000D03*
X222083000Y-104775000D03*
G36*
G01*
X218733000Y-105500000D02*
X218733000Y-104050000D01*
G75*
G02*
X218983000Y-103800000I250000J0D01*
G01*
X220183000Y-103800000D01*
G75*
G02*
X220433000Y-104050000I0J-250000D01*
G01*
X220433000Y-105500000D01*
G75*
G02*
X220183000Y-105750000I-250000J0D01*
G01*
X218983000Y-105750000D01*
G75*
G02*
X218733000Y-105500000I0J250000D01*
G01*
G37*
%TD*%
D29*
%TO.C,U10*%
X334137000Y-227203000D03*
X301117000Y-211963000D03*
X331597000Y-227203000D03*
X303657000Y-211963000D03*
X329057000Y-227203000D03*
X306197000Y-211963000D03*
X326517000Y-227203000D03*
X308737000Y-211963000D03*
X323977000Y-227203000D03*
X311277000Y-211963000D03*
X321437000Y-227203000D03*
X313817000Y-211963000D03*
X318897000Y-227203000D03*
X316357000Y-211963000D03*
X316357000Y-227203000D03*
X318897000Y-211963000D03*
X313817000Y-227203000D03*
X321437000Y-211963000D03*
X311277000Y-227203000D03*
X323977000Y-211963000D03*
X308737000Y-227203000D03*
X326517000Y-211963000D03*
X306197000Y-227203000D03*
X329057000Y-211963000D03*
X303657000Y-227203000D03*
X331597000Y-211963000D03*
X301117000Y-227203000D03*
D30*
X334137000Y-211963000D03*
%TD*%
D27*
%TO.C,U9*%
X339344000Y-206629000D03*
X336804000Y-206629000D03*
X334264000Y-206629000D03*
X331724000Y-206629000D03*
X329184000Y-206629000D03*
X326644000Y-206629000D03*
X324104000Y-206629000D03*
X321564000Y-206629000D03*
X319024000Y-206629000D03*
X316484000Y-206629000D03*
X313944000Y-206629000D03*
X311404000Y-206629000D03*
X308864000Y-206629000D03*
X306324000Y-206629000D03*
X303784000Y-206629000D03*
X303784000Y-181737000D03*
X306324000Y-181737000D03*
X306324000Y-181737000D03*
X308864000Y-181737000D03*
X311404000Y-181737000D03*
X313944000Y-181737000D03*
X316484000Y-181737000D03*
X319024000Y-181737000D03*
X321564000Y-181737000D03*
X324104000Y-181737000D03*
X326644000Y-181737000D03*
X329184000Y-181737000D03*
X331724000Y-181737000D03*
X334264000Y-181737000D03*
X336804000Y-181737000D03*
X339344000Y-181737000D03*
%TD*%
D28*
%TO.C,U8*%
X236013000Y-104775000D03*
X233513000Y-104775000D03*
G36*
G01*
X230163000Y-105500000D02*
X230163000Y-104050000D01*
G75*
G02*
X230413000Y-103800000I250000J0D01*
G01*
X231613000Y-103800000D01*
G75*
G02*
X231863000Y-104050000I0J-250000D01*
G01*
X231863000Y-105500000D01*
G75*
G02*
X231613000Y-105750000I-250000J0D01*
G01*
X230413000Y-105750000D01*
G75*
G02*
X230163000Y-105500000I0J250000D01*
G01*
G37*
%TD*%
D31*
%TO.C,U6*%
X305308000Y-120904000D03*
D32*
X302768000Y-120904000D03*
X300228000Y-120904000D03*
%TD*%
D31*
%TO.C,U5*%
X305562000Y-142494000D03*
D32*
X303022000Y-142494000D03*
X300482000Y-142494000D03*
%TD*%
D31*
%TO.C,U4*%
X305435000Y-131699000D03*
D32*
X302895000Y-131699000D03*
X300355000Y-131699000D03*
%TD*%
D33*
%TO.C,U2*%
X331343000Y-107315000D03*
D34*
X336143000Y-106815000D03*
X326543000Y-106815000D03*
D21*
X331343000Y-113315000D03*
X331343000Y-104065000D03*
%TD*%
D35*
%TO.C,U1*%
X327976800Y-166932600D03*
X322176800Y-166932600D03*
X322176800Y-176132600D03*
X327976800Y-176132600D03*
D36*
X318776800Y-171532600D03*
X331376800Y-171532600D03*
D25*
X328826800Y-161532600D03*
X325076800Y-161532600D03*
X321326800Y-161532600D03*
%TD*%
D16*
%TO.C,SW1*%
X320833000Y-111125000D03*
X317833000Y-111125000D03*
G36*
G01*
X314083000Y-111885000D02*
X314083000Y-110365000D01*
G75*
G02*
X314333000Y-110115000I250000J0D01*
G01*
X315333000Y-110115000D01*
G75*
G02*
X315583000Y-110365000I0J-250000D01*
G01*
X315583000Y-111885000D01*
G75*
G02*
X315333000Y-112135000I-250000J0D01*
G01*
X314333000Y-112135000D01*
G75*
G02*
X314083000Y-111885000I0J250000D01*
G01*
G37*
D17*
X317833000Y-106805000D03*
%TD*%
D37*
%TO.C,S4*%
X338776000Y-134199000D03*
X331276000Y-129199000D03*
D38*
X336326000Y-131799000D03*
X333726000Y-131599000D03*
%TD*%
D37*
%TO.C,S3*%
X218761000Y-134326000D03*
X211261000Y-129326000D03*
D38*
X216311000Y-131926000D03*
X213711000Y-131726000D03*
%TD*%
D37*
%TO.C,S2*%
X288865000Y-134262500D03*
X281365000Y-129262500D03*
D38*
X286415000Y-131862500D03*
X283815000Y-131662500D03*
%TD*%
D37*
%TO.C,S1*%
X268799000Y-134326000D03*
X261299000Y-129326000D03*
D38*
X266349000Y-131926000D03*
X263749000Y-131726000D03*
%TD*%
D39*
%TO.C,R29*%
X276309000Y-117093698D03*
D40*
X276309000Y-124713698D03*
%TD*%
D39*
%TO.C,R28*%
X255270000Y-124460000D03*
D40*
X255270000Y-132080000D03*
%TD*%
D39*
%TO.C,R27*%
X244602000Y-123952000D03*
D40*
X244602000Y-131572000D03*
%TD*%
D39*
%TO.C,R26*%
X257810000Y-132080000D03*
D40*
X257810000Y-124460000D03*
%TD*%
D39*
%TO.C,R25*%
X349250000Y-254680000D03*
D40*
X356870000Y-254680000D03*
%TD*%
D39*
%TO.C,R24*%
X273159000Y-117093698D03*
D40*
X273159000Y-124713698D03*
%TD*%
D39*
%TO.C,R23*%
X349250000Y-258490000D03*
D40*
X356870000Y-258490000D03*
%TD*%
D39*
%TO.C,R22*%
X334213200Y-203352400D03*
D40*
X334213200Y-195732400D03*
%TD*%
D39*
%TO.C,R21*%
X334213200Y-184404000D03*
D40*
X334213200Y-192024000D03*
%TD*%
D39*
%TO.C,R20*%
X236931200Y-170180000D03*
D40*
X236931200Y-162560000D03*
%TD*%
D39*
%TO.C,R19*%
X322580000Y-201930000D03*
D40*
X322580000Y-194310000D03*
%TD*%
D39*
%TO.C,R18*%
X325120000Y-201930000D03*
D40*
X325120000Y-194310000D03*
%TD*%
D39*
%TO.C,R17*%
X308864000Y-173990000D03*
D40*
X308864000Y-166370000D03*
%TD*%
D39*
%TO.C,R16*%
X335280000Y-154940000D03*
D40*
X342900000Y-154940000D03*
%TD*%
D39*
%TO.C,R15*%
X221996000Y-119380000D03*
D40*
X221996000Y-111760000D03*
%TD*%
D39*
%TO.C,R14*%
X323850000Y-143510000D03*
D40*
X331470000Y-143510000D03*
%TD*%
D39*
%TO.C,R13*%
X304800000Y-166370000D03*
D40*
X304800000Y-173990000D03*
%TD*%
D39*
%TO.C,R12*%
X311404000Y-166370000D03*
D40*
X311404000Y-173990000D03*
%TD*%
D39*
%TO.C,R11*%
X262890000Y-182499000D03*
D40*
X262890000Y-174879000D03*
%TD*%
D39*
%TO.C,R10*%
X273100800Y-136804400D03*
D40*
X273100800Y-129184400D03*
%TD*%
D39*
%TO.C,R9*%
X290195000Y-160020000D03*
D40*
X290195000Y-152400000D03*
%TD*%
D39*
%TO.C,R8*%
X242214400Y-173685200D03*
D40*
X242214400Y-166065200D03*
%TD*%
D39*
%TO.C,R7*%
X224739200Y-111760000D03*
D40*
X224739200Y-119380000D03*
%TD*%
D39*
%TO.C,R6*%
X294005000Y-219583000D03*
D40*
X294005000Y-211963000D03*
%TD*%
D39*
%TO.C,R5*%
X289560000Y-226060000D03*
D40*
X289560000Y-233680000D03*
%TD*%
D39*
%TO.C,R4*%
X279958800Y-164033200D03*
D40*
X279958800Y-171653200D03*
%TD*%
D39*
%TO.C,R3*%
X300990000Y-166370000D03*
D40*
X300990000Y-173990000D03*
%TD*%
D39*
%TO.C,R2*%
X271322800Y-145389600D03*
D40*
X271322800Y-153009600D03*
%TD*%
D39*
%TO.C,R1*%
X311023000Y-137795000D03*
D40*
X311023000Y-130175000D03*
%TD*%
D41*
%TO.C,Q7*%
X252730000Y-163830000D03*
X255270000Y-163830000D03*
D42*
X257810000Y-163830000D03*
D43*
X255270000Y-180490000D03*
%TD*%
D41*
%TO.C,Q6*%
X276860000Y-141305280D03*
X279400000Y-141305280D03*
D42*
X281940000Y-141305280D03*
D43*
X279400000Y-157965280D03*
%TD*%
D41*
%TO.C,Q5*%
X247650000Y-140817600D03*
X250190000Y-140817600D03*
D42*
X252730000Y-140817600D03*
D43*
X250190000Y-157477600D03*
%TD*%
D41*
%TO.C,Q4*%
X270510000Y-163830000D03*
X273050000Y-163830000D03*
D42*
X275590000Y-163830000D03*
D43*
X273050000Y-180490000D03*
%TD*%
D41*
%TO.C,Q3*%
X284353000Y-163703000D03*
X286893000Y-163703000D03*
D42*
X289433000Y-163703000D03*
D43*
X286893000Y-180363000D03*
%TD*%
D41*
%TO.C,Q2*%
X261416800Y-140716000D03*
X263956800Y-140716000D03*
D42*
X266496800Y-140716000D03*
D43*
X263956800Y-157376000D03*
%TD*%
D41*
%TO.C,Q1*%
X317373000Y-118745000D03*
X319913000Y-118745000D03*
D42*
X322453000Y-118745000D03*
D43*
X319913000Y-135405000D03*
%TD*%
D20*
%TO.C,Murata-Ceramic-Capacitor-50v1-22uF5*%
X294640000Y-141010000D03*
X294640000Y-143510000D03*
%TD*%
%TO.C,Murata-Ceramic-Capacitor-50v1-22uF4*%
X294640000Y-134580000D03*
X294640000Y-132080000D03*
%TD*%
%TO.C,50V-10uF1*%
X293200000Y-115600000D03*
X295700000Y-115600000D03*
%TD*%
%TO.C,Murata-Ceramic-Capacitor-50v1-22uF2*%
X298490000Y-115570000D03*
X300990000Y-115570000D03*
%TD*%
D44*
%TO.C,JT1*%
X297307000Y-153924000D03*
X297307000Y-156464000D03*
X299847000Y-153924000D03*
X299847000Y-156464000D03*
X302387000Y-153924000D03*
X302387000Y-156464000D03*
X304927000Y-153924000D03*
D45*
X304927000Y-156464000D03*
%TD*%
D44*
%TO.C,JP1*%
X331089000Y-155575000D03*
X328549000Y-155575000D03*
X326009000Y-155575000D03*
X323469000Y-155575000D03*
X320929000Y-155575000D03*
D45*
X318389000Y-155575000D03*
%TD*%
D28*
%TO.C,J10*%
X355520000Y-248330000D03*
X353020000Y-248330000D03*
G36*
G01*
X349670000Y-249055000D02*
X349670000Y-247605000D01*
G75*
G02*
X349920000Y-247355000I250000J0D01*
G01*
X351120000Y-247355000D01*
G75*
G02*
X351370000Y-247605000I0J-250000D01*
G01*
X351370000Y-249055000D01*
G75*
G02*
X351120000Y-249305000I-250000J0D01*
G01*
X349920000Y-249305000D01*
G75*
G02*
X349670000Y-249055000I0J250000D01*
G01*
G37*
%TD*%
%TO.C,J9*%
X247443000Y-104775000D03*
X244943000Y-104775000D03*
G36*
G01*
X241593000Y-105500000D02*
X241593000Y-104050000D01*
G75*
G02*
X241843000Y-103800000I250000J0D01*
G01*
X243043000Y-103800000D01*
G75*
G02*
X243293000Y-104050000I0J-250000D01*
G01*
X243293000Y-105500000D01*
G75*
G02*
X243043000Y-105750000I-250000J0D01*
G01*
X241843000Y-105750000D01*
G75*
G02*
X241593000Y-105500000I0J250000D01*
G01*
G37*
%TD*%
D44*
%TO.C,J8*%
X304927000Y-159004000D03*
X302387000Y-159004000D03*
X299847000Y-159004000D03*
D45*
X297307000Y-159004000D03*
%TD*%
D16*
%TO.C,J7*%
X289797000Y-111125000D03*
X286797000Y-111125000D03*
X283797000Y-111125000D03*
G36*
G01*
X280047000Y-111885000D02*
X280047000Y-110365000D01*
G75*
G02*
X280297000Y-110115000I250000J0D01*
G01*
X281297000Y-110115000D01*
G75*
G02*
X281547000Y-110365000I0J-250000D01*
G01*
X281547000Y-111885000D01*
G75*
G02*
X281297000Y-112135000I-250000J0D01*
G01*
X280297000Y-112135000D01*
G75*
G02*
X280047000Y-111885000I0J250000D01*
G01*
G37*
D17*
X287647000Y-106805000D03*
X282947000Y-106805000D03*
%TD*%
D16*
%TO.C,J6*%
X272573000Y-111125000D03*
X269573000Y-111125000D03*
G36*
G01*
X265823000Y-111885000D02*
X265823000Y-110365000D01*
G75*
G02*
X266073000Y-110115000I250000J0D01*
G01*
X267073000Y-110115000D01*
G75*
G02*
X267323000Y-110365000I0J-250000D01*
G01*
X267323000Y-111885000D01*
G75*
G02*
X267073000Y-112135000I-250000J0D01*
G01*
X266073000Y-112135000D01*
G75*
G02*
X265823000Y-111885000I0J250000D01*
G01*
G37*
D17*
X269573000Y-106805000D03*
%TD*%
D44*
%TO.C,J5*%
X318770000Y-201930000D03*
D45*
X316230000Y-201930000D03*
%TD*%
D28*
%TO.C,J4*%
X258873000Y-104775000D03*
X256373000Y-104775000D03*
G36*
G01*
X253023000Y-105500000D02*
X253023000Y-104050000D01*
G75*
G02*
X253273000Y-103800000I250000J0D01*
G01*
X254473000Y-103800000D01*
G75*
G02*
X254723000Y-104050000I0J-250000D01*
G01*
X254723000Y-105500000D01*
G75*
G02*
X254473000Y-105750000I-250000J0D01*
G01*
X253273000Y-105750000D01*
G75*
G02*
X253023000Y-105500000I0J250000D01*
G01*
G37*
%TD*%
D44*
%TO.C,J3*%
X337820000Y-189230000D03*
X340360000Y-189230000D03*
X337820000Y-186690000D03*
D45*
X340360000Y-186690000D03*
%TD*%
D44*
%TO.C,J2*%
X235712000Y-125349000D03*
X235712000Y-127889000D03*
X233172000Y-125349000D03*
X233172000Y-127889000D03*
X230632000Y-125349000D03*
D45*
X230632000Y-127889000D03*
%TD*%
D44*
%TO.C,J1*%
X342900000Y-168910000D03*
X342900000Y-166370000D03*
X342900000Y-163830000D03*
D45*
X342900000Y-161290000D03*
%TD*%
D32*
%TO.C,D14*%
X327660000Y-149860000D03*
D31*
X325120000Y-149860000D03*
%TD*%
D32*
%TO.C,D13*%
X243586000Y-135763000D03*
D31*
X241046000Y-135763000D03*
%TD*%
D32*
%TO.C,D5*%
X294335200Y-224231200D03*
D31*
X294335200Y-226771200D03*
%TD*%
D46*
%TO.C,D4*%
X289560000Y-222250000D03*
D47*
X289560000Y-212090000D03*
%TD*%
D46*
%TO.C,D3*%
X266000000Y-183160000D03*
D47*
X266000000Y-173000000D03*
%TD*%
D46*
%TO.C,D2*%
X304800000Y-177800000D03*
D47*
X294640000Y-177800000D03*
%TD*%
D46*
%TO.C,D1*%
X311023000Y-118745000D03*
D47*
X311023000Y-126365000D03*
%TD*%
D20*
%TO.C,C10*%
X262382000Y-116285000D03*
X262382000Y-121285000D03*
%TD*%
%TO.C,C9*%
X267106400Y-121382800D03*
X267106400Y-116382800D03*
%TD*%
%TO.C,C8*%
X237490000Y-180260000D03*
X237490000Y-175260000D03*
%TD*%
%TO.C,C7*%
X212090000Y-175340000D03*
X212090000Y-180340000D03*
%TD*%
%TO.C,C6*%
X311500000Y-157000000D03*
D23*
X309000000Y-157000000D03*
%TD*%
D20*
%TO.C,C5*%
X264160000Y-167244400D03*
D23*
X264160000Y-164744400D03*
%TD*%
D20*
%TO.C,C4*%
X295910000Y-171410000D03*
D23*
X295910000Y-168910000D03*
%TD*%
D20*
%TO.C,C3*%
X290790000Y-205740000D03*
D23*
X288290000Y-205740000D03*
%TD*%
D20*
%TO.C,C2*%
X320000000Y-143510000D03*
X317500000Y-143510000D03*
%TD*%
%TO.C,C1*%
X292060000Y-190500000D03*
D23*
X289560000Y-190500000D03*
%TD*%
D45*
%TO.C,J11*%
X250698000Y-124841000D03*
D44*
X248158000Y-124841000D03*
X250698000Y-127381000D03*
X248158000Y-127381000D03*
%TD*%
%TO.C,J12*%
G36*
G01*
X199810000Y-104865000D02*
X199810000Y-103415000D01*
G75*
G02*
X200060000Y-103165000I250000J0D01*
G01*
X201260000Y-103165000D01*
G75*
G02*
X201510000Y-103415000I0J-250000D01*
G01*
X201510000Y-104865000D01*
G75*
G02*
X201260000Y-105115000I-250000J0D01*
G01*
X200060000Y-105115000D01*
G75*
G02*
X199810000Y-104865000I0J250000D01*
G01*
G37*
D28*
X203160000Y-104140000D03*
X205660000Y-104140000D03*
%TD*%
D45*
%TO.C,J13*%
X205740000Y-114300000D03*
D44*
X203200000Y-114300000D03*
X205740000Y-116840000D03*
X203200000Y-116840000D03*
%TD*%
D45*
%TO.C,J14*%
X229870000Y-113030000D03*
D44*
X232410000Y-113030000D03*
X229870000Y-115570000D03*
X232410000Y-115570000D03*
X229870000Y-118110000D03*
X232410000Y-118110000D03*
X229870000Y-120650000D03*
X232410000Y-120650000D03*
%TD*%
D48*
X416873000Y-283623000D02*
X367627000Y-283623000D01*
X367627000Y-175127000D01*
X416873000Y-175127000D01*
X416873000Y-283623000D01*
D49*
G36*
X416873000Y-283623000D02*
G01*
X367627000Y-283623000D01*
X367627000Y-175127000D01*
X416873000Y-175127000D01*
X416873000Y-283623000D01*
G37*
M02*
