%TF.GenerationSoftware,KiCad,Pcbnew,5.1.7-a382d34a8~88~ubuntu20.04.1*%
%TF.CreationDate,2021-05-08T15:19:39+02:00*%
%TF.ProjectId,OpenCelluloid,4f70656e-4365-46c6-9c75-6c6f69642e6b,rev?*%
%TF.SameCoordinates,Original*%
%TF.FileFunction,Legend,Bot*%
%TF.FilePolarity,Positive*%
%FSLAX46Y46*%
G04 Gerber Fmt 4.6, Leading zero omitted, Abs format (unit mm)*
G04 Created by KiCad (PCBNEW 5.1.7-a382d34a8~88~ubuntu20.04.1) date 2021-05-08 15:19:39*
%MOMM*%
%LPD*%
G01*
G04 APERTURE LIST*
%ADD10C,0.150000*%
%ADD11C,0.120000*%
G04 APERTURE END LIST*
D10*
X309535714Y-250885714D02*
X309107142Y-251028571D01*
X308964285Y-251171428D01*
X308821428Y-251457142D01*
X308821428Y-251885714D01*
X308964285Y-252171428D01*
X309107142Y-252314285D01*
X309392857Y-252457142D01*
X310535714Y-252457142D01*
X310535714Y-249457142D01*
X309535714Y-249457142D01*
X309250000Y-249600000D01*
X309107142Y-249742857D01*
X308964285Y-250028571D01*
X308964285Y-250314285D01*
X309107142Y-250600000D01*
X309250000Y-250742857D01*
X309535714Y-250885714D01*
X310535714Y-250885714D01*
X306392857Y-252314285D02*
X306678571Y-252457142D01*
X307250000Y-252457142D01*
X307535714Y-252314285D01*
X307678571Y-252028571D01*
X307678571Y-250885714D01*
X307535714Y-250600000D01*
X307250000Y-250457142D01*
X306678571Y-250457142D01*
X306392857Y-250600000D01*
X306250000Y-250885714D01*
X306250000Y-251171428D01*
X307678571Y-251457142D01*
X302250000Y-252457142D02*
X302535714Y-252314285D01*
X302678571Y-252028571D01*
X302678571Y-249457142D01*
X301107142Y-252457142D02*
X301107142Y-250457142D01*
X301107142Y-249457142D02*
X301250000Y-249600000D01*
X301107142Y-249742857D01*
X300964285Y-249600000D01*
X301107142Y-249457142D01*
X301107142Y-249742857D01*
X299678571Y-252457142D02*
X299678571Y-249457142D01*
X299392857Y-251314285D02*
X298535714Y-252457142D01*
X298535714Y-250457142D02*
X299678571Y-251600000D01*
X296107142Y-252314285D02*
X296392857Y-252457142D01*
X296964285Y-252457142D01*
X297250000Y-252314285D01*
X297392857Y-252028571D01*
X297392857Y-250885714D01*
X297250000Y-250600000D01*
X296964285Y-250457142D01*
X296392857Y-250457142D01*
X296107142Y-250600000D01*
X295964285Y-250885714D01*
X295964285Y-251171428D01*
X297392857Y-251457142D01*
X292821428Y-250457142D02*
X291678571Y-250457142D01*
X292392857Y-249457142D02*
X292392857Y-252028571D01*
X292250000Y-252314285D01*
X291964285Y-252457142D01*
X291678571Y-252457142D01*
X290678571Y-252457142D02*
X290678571Y-249457142D01*
X289392857Y-252457142D02*
X289392857Y-250885714D01*
X289535714Y-250600000D01*
X289821428Y-250457142D01*
X290250000Y-250457142D01*
X290535714Y-250600000D01*
X290678571Y-250742857D01*
X286821428Y-252314285D02*
X287107142Y-252457142D01*
X287678571Y-252457142D01*
X287964285Y-252314285D01*
X288107142Y-252028571D01*
X288107142Y-250885714D01*
X287964285Y-250600000D01*
X287678571Y-250457142D01*
X287107142Y-250457142D01*
X286821428Y-250600000D01*
X286678571Y-250885714D01*
X286678571Y-251171428D01*
X288107142Y-251457142D01*
X283107142Y-250457142D02*
X283107142Y-253457142D01*
X283107142Y-250600000D02*
X282821428Y-250457142D01*
X282250000Y-250457142D01*
X281964285Y-250600000D01*
X281821428Y-250742857D01*
X281678571Y-251028571D01*
X281678571Y-251885714D01*
X281821428Y-252171428D01*
X281964285Y-252314285D01*
X282250000Y-252457142D01*
X282821428Y-252457142D01*
X283107142Y-252314285D01*
X280392857Y-252457142D02*
X280392857Y-250457142D01*
X280392857Y-251028571D02*
X280250000Y-250742857D01*
X280107142Y-250600000D01*
X279821428Y-250457142D01*
X279535714Y-250457142D01*
X278107142Y-252457142D02*
X278392857Y-252314285D01*
X278535714Y-252171428D01*
X278678571Y-251885714D01*
X278678571Y-251028571D01*
X278535714Y-250742857D01*
X278392857Y-250600000D01*
X278107142Y-250457142D01*
X277678571Y-250457142D01*
X277392857Y-250600000D01*
X277250000Y-250742857D01*
X277107142Y-251028571D01*
X277107142Y-251885714D01*
X277250000Y-252171428D01*
X277392857Y-252314285D01*
X277678571Y-252457142D01*
X278107142Y-252457142D01*
X275821428Y-252457142D02*
X275821428Y-250457142D01*
X275821428Y-250742857D02*
X275678571Y-250600000D01*
X275392857Y-250457142D01*
X274964285Y-250457142D01*
X274678571Y-250600000D01*
X274535714Y-250885714D01*
X274535714Y-252457142D01*
X274535714Y-250885714D02*
X274392857Y-250600000D01*
X274107142Y-250457142D01*
X273678571Y-250457142D01*
X273392857Y-250600000D01*
X273250000Y-250885714D01*
X273250000Y-252457142D01*
X271392857Y-252457142D02*
X271678571Y-252314285D01*
X271821428Y-252171428D01*
X271964285Y-251885714D01*
X271964285Y-251028571D01*
X271821428Y-250742857D01*
X271678571Y-250600000D01*
X271392857Y-250457142D01*
X270964285Y-250457142D01*
X270678571Y-250600000D01*
X270535714Y-250742857D01*
X270392857Y-251028571D01*
X270392857Y-251885714D01*
X270535714Y-252171428D01*
X270678571Y-252314285D01*
X270964285Y-252457142D01*
X271392857Y-252457142D01*
X269107142Y-250457142D02*
X269107142Y-252457142D01*
X269107142Y-250742857D02*
X268964285Y-250600000D01*
X268678571Y-250457142D01*
X268250000Y-250457142D01*
X267964285Y-250600000D01*
X267821428Y-250885714D01*
X267821428Y-252457142D01*
X266821428Y-250457142D02*
X265678571Y-250457142D01*
X266392857Y-249457142D02*
X266392857Y-252028571D01*
X266250000Y-252314285D01*
X265964285Y-252457142D01*
X265678571Y-252457142D01*
X264250000Y-252457142D02*
X264535714Y-252314285D01*
X264678571Y-252171428D01*
X264821428Y-251885714D01*
X264821428Y-251028571D01*
X264678571Y-250742857D01*
X264535714Y-250600000D01*
X264250000Y-250457142D01*
X263821428Y-250457142D01*
X263535714Y-250600000D01*
X263392857Y-250742857D01*
X263250000Y-251028571D01*
X263250000Y-251885714D01*
X263392857Y-252171428D01*
X263535714Y-252314285D01*
X263821428Y-252457142D01*
X264250000Y-252457142D01*
X261964285Y-252457142D02*
X261964285Y-250457142D01*
X261964285Y-251028571D02*
X261821428Y-250742857D01*
X261678571Y-250600000D01*
X261392857Y-250457142D01*
X261107142Y-250457142D01*
X260392857Y-250457142D02*
X259678571Y-252457142D01*
X258964285Y-250457142D02*
X259678571Y-252457142D01*
X259964285Y-253171428D01*
X260107142Y-253314285D01*
X260392857Y-253457142D01*
X254250000Y-252457142D02*
X254250000Y-250885714D01*
X254392857Y-250600000D01*
X254678571Y-250457142D01*
X255250000Y-250457142D01*
X255535714Y-250600000D01*
X254250000Y-252314285D02*
X254535714Y-252457142D01*
X255250000Y-252457142D01*
X255535714Y-252314285D01*
X255678571Y-252028571D01*
X255678571Y-251742857D01*
X255535714Y-251457142D01*
X255250000Y-251314285D01*
X254535714Y-251314285D01*
X254250000Y-251171428D01*
X251535714Y-250457142D02*
X251535714Y-252885714D01*
X251678571Y-253171428D01*
X251821428Y-253314285D01*
X252107142Y-253457142D01*
X252535714Y-253457142D01*
X252821428Y-253314285D01*
X251535714Y-252314285D02*
X251821428Y-252457142D01*
X252392857Y-252457142D01*
X252678571Y-252314285D01*
X252821428Y-252171428D01*
X252964285Y-251885714D01*
X252964285Y-251028571D01*
X252821428Y-250742857D01*
X252678571Y-250600000D01*
X252392857Y-250457142D01*
X251821428Y-250457142D01*
X251535714Y-250600000D01*
X248821428Y-252457142D02*
X248821428Y-250885714D01*
X248964285Y-250600000D01*
X249250000Y-250457142D01*
X249821428Y-250457142D01*
X250107142Y-250600000D01*
X248821428Y-252314285D02*
X249107142Y-252457142D01*
X249821428Y-252457142D01*
X250107142Y-252314285D01*
X250250000Y-252028571D01*
X250250000Y-251742857D01*
X250107142Y-251457142D01*
X249821428Y-251314285D01*
X249107142Y-251314285D01*
X248821428Y-251171428D01*
X247392857Y-252457142D02*
X247392857Y-250457142D01*
X247392857Y-249457142D02*
X247535714Y-249600000D01*
X247392857Y-249742857D01*
X247250000Y-249600000D01*
X247392857Y-249457142D01*
X247392857Y-249742857D01*
X245964285Y-250457142D02*
X245964285Y-252457142D01*
X245964285Y-250742857D02*
X245821428Y-250600000D01*
X245535714Y-250457142D01*
X245107142Y-250457142D01*
X244821428Y-250600000D01*
X244678571Y-250885714D01*
X244678571Y-252457142D01*
X243392857Y-252314285D02*
X243107142Y-252457142D01*
X242535714Y-252457142D01*
X242250000Y-252314285D01*
X242107142Y-252028571D01*
X242107142Y-251885714D01*
X242250000Y-251600000D01*
X242535714Y-251457142D01*
X242964285Y-251457142D01*
X243250000Y-251314285D01*
X243392857Y-251028571D01*
X243392857Y-250885714D01*
X243250000Y-250600000D01*
X242964285Y-250457142D01*
X242535714Y-250457142D01*
X242250000Y-250600000D01*
X241250000Y-250457142D02*
X240107142Y-250457142D01*
X240821428Y-249457142D02*
X240821428Y-252028571D01*
X240678571Y-252314285D01*
X240392857Y-252457142D01*
X240107142Y-252457142D01*
X237107142Y-250457142D02*
X236535714Y-252457142D01*
X235964285Y-251028571D01*
X235392857Y-252457142D01*
X234821428Y-250457142D01*
X233678571Y-252457142D02*
X233678571Y-249457142D01*
X232392857Y-252457142D02*
X232392857Y-250885714D01*
X232535714Y-250600000D01*
X232821428Y-250457142D01*
X233250000Y-250457142D01*
X233535714Y-250600000D01*
X233678571Y-250742857D01*
X230964285Y-252457142D02*
X230964285Y-250457142D01*
X230964285Y-249457142D02*
X231107142Y-249600000D01*
X230964285Y-249742857D01*
X230821428Y-249600000D01*
X230964285Y-249457142D01*
X230964285Y-249742857D01*
X228250000Y-252314285D02*
X228535714Y-252457142D01*
X229107142Y-252457142D01*
X229392857Y-252314285D01*
X229535714Y-252171428D01*
X229678571Y-251885714D01*
X229678571Y-251028571D01*
X229535714Y-250742857D01*
X229392857Y-250600000D01*
X229107142Y-250457142D01*
X228535714Y-250457142D01*
X228250000Y-250600000D01*
X226964285Y-252457142D02*
X226964285Y-249457142D01*
X225678571Y-252457142D02*
X225678571Y-250885714D01*
X225821428Y-250600000D01*
X226107142Y-250457142D01*
X226535714Y-250457142D01*
X226821428Y-250600000D01*
X226964285Y-250742857D01*
X222392857Y-250457142D02*
X221250000Y-250457142D01*
X221964285Y-249457142D02*
X221964285Y-252028571D01*
X221821428Y-252314285D01*
X221535714Y-252457142D01*
X221250000Y-252457142D01*
X220250000Y-252457142D02*
X220250000Y-249457142D01*
X218964285Y-252457142D02*
X218964285Y-250885714D01*
X219107142Y-250600000D01*
X219392857Y-250457142D01*
X219821428Y-250457142D01*
X220107142Y-250600000D01*
X220250000Y-250742857D01*
X216392857Y-252314285D02*
X216678571Y-252457142D01*
X217250000Y-252457142D01*
X217535714Y-252314285D01*
X217678571Y-252028571D01*
X217678571Y-250885714D01*
X217535714Y-250600000D01*
X217250000Y-250457142D01*
X216678571Y-250457142D01*
X216392857Y-250600000D01*
X216250000Y-250885714D01*
X216250000Y-251171428D01*
X217678571Y-251457142D01*
X212964285Y-250457142D02*
X212392857Y-252457142D01*
X211821428Y-251028571D01*
X211250000Y-252457142D01*
X210678571Y-250457142D01*
X208250000Y-252457142D02*
X208250000Y-250885714D01*
X208392857Y-250600000D01*
X208678571Y-250457142D01*
X209250000Y-250457142D01*
X209535714Y-250600000D01*
X208250000Y-252314285D02*
X208535714Y-252457142D01*
X209250000Y-252457142D01*
X209535714Y-252314285D01*
X209678571Y-252028571D01*
X209678571Y-251742857D01*
X209535714Y-251457142D01*
X209250000Y-251314285D01*
X208535714Y-251314285D01*
X208250000Y-251171428D01*
X207107142Y-250457142D02*
X206392857Y-252457142D01*
X205678571Y-250457142D01*
X203392857Y-252314285D02*
X203678571Y-252457142D01*
X204250000Y-252457142D01*
X204535714Y-252314285D01*
X204678571Y-252028571D01*
X204678571Y-250885714D01*
X204535714Y-250600000D01*
X204250000Y-250457142D01*
X203678571Y-250457142D01*
X203392857Y-250600000D01*
X203250000Y-250885714D01*
X203250000Y-251171428D01*
X204678571Y-251457142D01*
X202107142Y-252314285D02*
X201821428Y-252457142D01*
X201250000Y-252457142D01*
X200964285Y-252314285D01*
X200821428Y-252028571D01*
X200821428Y-251885714D01*
X200964285Y-251600000D01*
X201250000Y-251457142D01*
X201678571Y-251457142D01*
X201964285Y-251314285D01*
X202107142Y-251028571D01*
X202107142Y-250885714D01*
X201964285Y-250600000D01*
X201678571Y-250457142D01*
X201250000Y-250457142D01*
X200964285Y-250600000D01*
X308750000Y-256964285D02*
X309035714Y-257107142D01*
X309607142Y-257107142D01*
X309892857Y-256964285D01*
X310035714Y-256821428D01*
X310178571Y-256535714D01*
X310178571Y-255678571D01*
X310035714Y-255392857D01*
X309892857Y-255250000D01*
X309607142Y-255107142D01*
X309035714Y-255107142D01*
X308750000Y-255250000D01*
X307035714Y-257107142D02*
X307321428Y-256964285D01*
X307464285Y-256821428D01*
X307607142Y-256535714D01*
X307607142Y-255678571D01*
X307464285Y-255392857D01*
X307321428Y-255250000D01*
X307035714Y-255107142D01*
X306607142Y-255107142D01*
X306321428Y-255250000D01*
X306178571Y-255392857D01*
X306035714Y-255678571D01*
X306035714Y-256535714D01*
X306178571Y-256821428D01*
X306321428Y-256964285D01*
X306607142Y-257107142D01*
X307035714Y-257107142D01*
X304750000Y-255107142D02*
X304750000Y-257107142D01*
X304750000Y-255392857D02*
X304607142Y-255250000D01*
X304321428Y-255107142D01*
X303892857Y-255107142D01*
X303607142Y-255250000D01*
X303464285Y-255535714D01*
X303464285Y-257107142D01*
X302464285Y-255107142D02*
X301321428Y-255107142D01*
X302035714Y-254107142D02*
X302035714Y-256678571D01*
X301892857Y-256964285D01*
X301607142Y-257107142D01*
X301321428Y-257107142D01*
X300321428Y-257107142D02*
X300321428Y-255107142D01*
X300321428Y-254107142D02*
X300464285Y-254250000D01*
X300321428Y-254392857D01*
X300178571Y-254250000D01*
X300321428Y-254107142D01*
X300321428Y-254392857D01*
X298892857Y-255107142D02*
X298892857Y-257107142D01*
X298892857Y-255392857D02*
X298750000Y-255250000D01*
X298464285Y-255107142D01*
X298035714Y-255107142D01*
X297750000Y-255250000D01*
X297607142Y-255535714D01*
X297607142Y-257107142D01*
X294892857Y-255107142D02*
X294892857Y-257107142D01*
X296178571Y-255107142D02*
X296178571Y-256678571D01*
X296035714Y-256964285D01*
X295750000Y-257107142D01*
X295321428Y-257107142D01*
X295035714Y-256964285D01*
X294892857Y-256821428D01*
X292178571Y-257107142D02*
X292178571Y-255535714D01*
X292321428Y-255250000D01*
X292607142Y-255107142D01*
X293178571Y-255107142D01*
X293464285Y-255250000D01*
X292178571Y-256964285D02*
X292464285Y-257107142D01*
X293178571Y-257107142D01*
X293464285Y-256964285D01*
X293607142Y-256678571D01*
X293607142Y-256392857D01*
X293464285Y-256107142D01*
X293178571Y-255964285D01*
X292464285Y-255964285D01*
X292178571Y-255821428D01*
X290321428Y-257107142D02*
X290607142Y-256964285D01*
X290750000Y-256678571D01*
X290750000Y-254107142D01*
X288750000Y-257107142D02*
X289035714Y-256964285D01*
X289178571Y-256678571D01*
X289178571Y-254107142D01*
X287892857Y-255107142D02*
X287178571Y-257107142D01*
X286464285Y-255107142D02*
X287178571Y-257107142D01*
X287464285Y-257821428D01*
X287607142Y-257964285D01*
X287892857Y-258107142D01*
X283035714Y-257107142D02*
X283035714Y-254107142D01*
X283035714Y-255250000D02*
X282750000Y-255107142D01*
X282178571Y-255107142D01*
X281892857Y-255250000D01*
X281750000Y-255392857D01*
X281607142Y-255678571D01*
X281607142Y-256535714D01*
X281750000Y-256821428D01*
X281892857Y-256964285D01*
X282178571Y-257107142D01*
X282750000Y-257107142D01*
X283035714Y-256964285D01*
X280321428Y-257107142D02*
X280321428Y-255107142D01*
X280321428Y-255678571D02*
X280178571Y-255392857D01*
X280035714Y-255250000D01*
X279750000Y-255107142D01*
X279464285Y-255107142D01*
X277321428Y-256964285D02*
X277607142Y-257107142D01*
X278178571Y-257107142D01*
X278464285Y-256964285D01*
X278607142Y-256678571D01*
X278607142Y-255535714D01*
X278464285Y-255250000D01*
X278178571Y-255107142D01*
X277607142Y-255107142D01*
X277321428Y-255250000D01*
X277178571Y-255535714D01*
X277178571Y-255821428D01*
X278607142Y-256107142D01*
X274607142Y-257107142D02*
X274607142Y-255535714D01*
X274750000Y-255250000D01*
X275035714Y-255107142D01*
X275607142Y-255107142D01*
X275892857Y-255250000D01*
X274607142Y-256964285D02*
X274892857Y-257107142D01*
X275607142Y-257107142D01*
X275892857Y-256964285D01*
X276035714Y-256678571D01*
X276035714Y-256392857D01*
X275892857Y-256107142D01*
X275607142Y-255964285D01*
X274892857Y-255964285D01*
X274607142Y-255821428D01*
X273178571Y-257107142D02*
X273178571Y-254107142D01*
X272892857Y-255964285D02*
X272035714Y-257107142D01*
X272035714Y-255107142D02*
X273178571Y-256250000D01*
X270607142Y-256964285D02*
X270607142Y-257107142D01*
X270750000Y-257392857D01*
X270892857Y-257535714D01*
X267035714Y-257107142D02*
X267035714Y-254107142D01*
X267035714Y-255250000D02*
X266750000Y-255107142D01*
X266178571Y-255107142D01*
X265892857Y-255250000D01*
X265750000Y-255392857D01*
X265607142Y-255678571D01*
X265607142Y-256535714D01*
X265750000Y-256821428D01*
X265892857Y-256964285D01*
X266178571Y-257107142D01*
X266750000Y-257107142D01*
X267035714Y-256964285D01*
X263035714Y-255107142D02*
X263035714Y-257107142D01*
X264321428Y-255107142D02*
X264321428Y-256678571D01*
X264178571Y-256964285D01*
X263892857Y-257107142D01*
X263464285Y-257107142D01*
X263178571Y-256964285D01*
X263035714Y-256821428D01*
X262035714Y-255107142D02*
X260892857Y-255107142D01*
X261607142Y-254107142D02*
X261607142Y-256678571D01*
X261464285Y-256964285D01*
X261178571Y-257107142D01*
X260892857Y-257107142D01*
X257607142Y-257107142D02*
X257607142Y-255107142D01*
X257607142Y-254107142D02*
X257750000Y-254250000D01*
X257607142Y-254392857D01*
X257464285Y-254250000D01*
X257607142Y-254107142D01*
X257607142Y-254392857D01*
X256607142Y-255107142D02*
X255464285Y-255107142D01*
X256178571Y-254107142D02*
X256178571Y-256678571D01*
X256035714Y-256964285D01*
X255750000Y-257107142D01*
X255464285Y-257107142D01*
X252321428Y-256964285D02*
X252035714Y-257107142D01*
X251464285Y-257107142D01*
X251178571Y-256964285D01*
X251035714Y-256678571D01*
X251035714Y-256535714D01*
X251178571Y-256250000D01*
X251464285Y-256107142D01*
X251892857Y-256107142D01*
X252178571Y-255964285D01*
X252321428Y-255678571D01*
X252321428Y-255535714D01*
X252178571Y-255250000D01*
X251892857Y-255107142D01*
X251464285Y-255107142D01*
X251178571Y-255250000D01*
X250178571Y-255107142D02*
X249035714Y-255107142D01*
X249750000Y-254107142D02*
X249750000Y-256678571D01*
X249607142Y-256964285D01*
X249321428Y-257107142D01*
X249035714Y-257107142D01*
X246750000Y-257107142D02*
X246750000Y-255535714D01*
X246892857Y-255250000D01*
X247178571Y-255107142D01*
X247750000Y-255107142D01*
X248035714Y-255250000D01*
X246750000Y-256964285D02*
X247035714Y-257107142D01*
X247750000Y-257107142D01*
X248035714Y-256964285D01*
X248178571Y-256678571D01*
X248178571Y-256392857D01*
X248035714Y-256107142D01*
X247750000Y-255964285D01*
X247035714Y-255964285D01*
X246750000Y-255821428D01*
X245321428Y-255107142D02*
X245321428Y-257107142D01*
X245321428Y-255392857D02*
X245178571Y-255250000D01*
X244892857Y-255107142D01*
X244464285Y-255107142D01*
X244178571Y-255250000D01*
X244035714Y-255535714D01*
X244035714Y-257107142D01*
X241321428Y-257107142D02*
X241321428Y-254107142D01*
X241321428Y-256964285D02*
X241607142Y-257107142D01*
X242178571Y-257107142D01*
X242464285Y-256964285D01*
X242607142Y-256821428D01*
X242750000Y-256535714D01*
X242750000Y-255678571D01*
X242607142Y-255392857D01*
X242464285Y-255250000D01*
X242178571Y-255107142D01*
X241607142Y-255107142D01*
X241321428Y-255250000D01*
X240035714Y-256964285D02*
X239750000Y-257107142D01*
X239178571Y-257107142D01*
X238892857Y-256964285D01*
X238750000Y-256678571D01*
X238750000Y-256535714D01*
X238892857Y-256250000D01*
X239178571Y-256107142D01*
X239607142Y-256107142D01*
X239892857Y-255964285D01*
X240035714Y-255678571D01*
X240035714Y-255535714D01*
X239892857Y-255250000D01*
X239607142Y-255107142D01*
X239178571Y-255107142D01*
X238892857Y-255250000D01*
X235607142Y-255107142D02*
X234464285Y-255107142D01*
X235178571Y-257107142D02*
X235178571Y-254535714D01*
X235035714Y-254250000D01*
X234750000Y-254107142D01*
X234464285Y-254107142D01*
X233464285Y-257107142D02*
X233464285Y-255107142D01*
X233464285Y-254107142D02*
X233607142Y-254250000D01*
X233464285Y-254392857D01*
X233321428Y-254250000D01*
X233464285Y-254107142D01*
X233464285Y-254392857D01*
X232035714Y-257107142D02*
X232035714Y-255107142D01*
X232035714Y-255678571D02*
X231892857Y-255392857D01*
X231750000Y-255250000D01*
X231464285Y-255107142D01*
X231178571Y-255107142D01*
X230178571Y-257107142D02*
X230178571Y-255107142D01*
X230178571Y-255392857D02*
X230035714Y-255250000D01*
X229750000Y-255107142D01*
X229321428Y-255107142D01*
X229035714Y-255250000D01*
X228892857Y-255535714D01*
X228892857Y-257107142D01*
X228892857Y-255535714D02*
X228750000Y-255250000D01*
X228464285Y-255107142D01*
X228035714Y-255107142D01*
X227750000Y-255250000D01*
X227607142Y-255535714D01*
X227607142Y-257107142D01*
X222607142Y-257107142D02*
X222607142Y-255535714D01*
X222750000Y-255250000D01*
X223035714Y-255107142D01*
X223607142Y-255107142D01*
X223892857Y-255250000D01*
X222607142Y-256964285D02*
X222892857Y-257107142D01*
X223607142Y-257107142D01*
X223892857Y-256964285D01*
X224035714Y-256678571D01*
X224035714Y-256392857D01*
X223892857Y-256107142D01*
X223607142Y-255964285D01*
X222892857Y-255964285D01*
X222607142Y-255821428D01*
X221178571Y-255107142D02*
X221178571Y-257107142D01*
X221178571Y-255392857D02*
X221035714Y-255250000D01*
X220750000Y-255107142D01*
X220321428Y-255107142D01*
X220035714Y-255250000D01*
X219892857Y-255535714D01*
X219892857Y-257107142D01*
X217178571Y-257107142D02*
X217178571Y-254107142D01*
X217178571Y-256964285D02*
X217464285Y-257107142D01*
X218035714Y-257107142D01*
X218321428Y-256964285D01*
X218464285Y-256821428D01*
X218607142Y-256535714D01*
X218607142Y-255678571D01*
X218464285Y-255392857D01*
X218321428Y-255250000D01*
X218035714Y-255107142D01*
X217464285Y-255107142D01*
X217178571Y-255250000D01*
X213892857Y-255107142D02*
X212750000Y-255107142D01*
X213464285Y-254107142D02*
X213464285Y-256678571D01*
X213321428Y-256964285D01*
X213035714Y-257107142D01*
X212750000Y-257107142D01*
X210464285Y-257107142D02*
X210464285Y-255535714D01*
X210607142Y-255250000D01*
X210892857Y-255107142D01*
X211464285Y-255107142D01*
X211750000Y-255250000D01*
X210464285Y-256964285D02*
X210750000Y-257107142D01*
X211464285Y-257107142D01*
X211750000Y-256964285D01*
X211892857Y-256678571D01*
X211892857Y-256392857D01*
X211750000Y-256107142D01*
X211464285Y-255964285D01*
X210750000Y-255964285D01*
X210464285Y-255821428D01*
X209035714Y-257107142D02*
X209035714Y-255107142D01*
X209035714Y-255392857D02*
X208892857Y-255250000D01*
X208607142Y-255107142D01*
X208178571Y-255107142D01*
X207892857Y-255250000D01*
X207750000Y-255535714D01*
X207750000Y-257107142D01*
X207750000Y-255535714D02*
X207607142Y-255250000D01*
X207321428Y-255107142D01*
X206892857Y-255107142D01*
X206607142Y-255250000D01*
X206464285Y-255535714D01*
X206464285Y-257107142D01*
X203892857Y-256964285D02*
X204178571Y-257107142D01*
X204750000Y-257107142D01*
X205035714Y-256964285D01*
X205178571Y-256678571D01*
X205178571Y-255535714D01*
X205035714Y-255250000D01*
X204750000Y-255107142D01*
X204178571Y-255107142D01*
X203892857Y-255250000D01*
X203750000Y-255535714D01*
X203750000Y-255821428D01*
X205178571Y-256107142D01*
X202607142Y-256964285D02*
X202321428Y-257107142D01*
X201750000Y-257107142D01*
X201464285Y-256964285D01*
X201321428Y-256678571D01*
X201321428Y-256535714D01*
X201464285Y-256250000D01*
X201750000Y-256107142D01*
X202178571Y-256107142D01*
X202464285Y-255964285D01*
X202607142Y-255678571D01*
X202607142Y-255535714D01*
X202464285Y-255250000D01*
X202178571Y-255107142D01*
X201750000Y-255107142D01*
X201464285Y-255250000D01*
X291821428Y-259757142D02*
X290678571Y-259757142D01*
X291392857Y-258757142D02*
X291392857Y-261328571D01*
X291250000Y-261614285D01*
X290964285Y-261757142D01*
X290678571Y-261757142D01*
X289678571Y-261757142D02*
X289678571Y-258757142D01*
X288392857Y-261757142D02*
X288392857Y-260185714D01*
X288535714Y-259900000D01*
X288821428Y-259757142D01*
X289250000Y-259757142D01*
X289535714Y-259900000D01*
X289678571Y-260042857D01*
X285821428Y-261614285D02*
X286107142Y-261757142D01*
X286678571Y-261757142D01*
X286964285Y-261614285D01*
X287107142Y-261328571D01*
X287107142Y-260185714D01*
X286964285Y-259900000D01*
X286678571Y-259757142D01*
X286107142Y-259757142D01*
X285821428Y-259900000D01*
X285678571Y-260185714D01*
X285678571Y-260471428D01*
X287107142Y-260757142D01*
X282535714Y-259757142D02*
X281392857Y-259757142D01*
X282107142Y-261757142D02*
X282107142Y-259185714D01*
X281964285Y-258900000D01*
X281678571Y-258757142D01*
X281392857Y-258757142D01*
X279107142Y-259757142D02*
X279107142Y-261757142D01*
X280392857Y-259757142D02*
X280392857Y-261328571D01*
X280250000Y-261614285D01*
X279964285Y-261757142D01*
X279535714Y-261757142D01*
X279250000Y-261614285D01*
X279107142Y-261471428D01*
X277678571Y-261757142D02*
X277678571Y-259757142D01*
X277678571Y-260328571D02*
X277535714Y-260042857D01*
X277392857Y-259900000D01*
X277107142Y-259757142D01*
X276821428Y-259757142D01*
X276107142Y-259757142D02*
X275392857Y-261757142D01*
X274678571Y-259757142D02*
X275392857Y-261757142D01*
X275678571Y-262471428D01*
X275821428Y-262614285D01*
X276107142Y-262757142D01*
X270821428Y-261757142D02*
X271107142Y-261614285D01*
X271250000Y-261471428D01*
X271392857Y-261185714D01*
X271392857Y-260328571D01*
X271250000Y-260042857D01*
X271107142Y-259900000D01*
X270821428Y-259757142D01*
X270392857Y-259757142D01*
X270107142Y-259900000D01*
X269964285Y-260042857D01*
X269821428Y-260328571D01*
X269821428Y-261185714D01*
X269964285Y-261471428D01*
X270107142Y-261614285D01*
X270392857Y-261757142D01*
X270821428Y-261757142D01*
X268964285Y-259757142D02*
X267821428Y-259757142D01*
X268535714Y-261757142D02*
X268535714Y-259185714D01*
X268392857Y-258900000D01*
X268107142Y-258757142D01*
X267821428Y-258757142D01*
X264964285Y-259757142D02*
X263821428Y-259757142D01*
X264535714Y-258757142D02*
X264535714Y-261328571D01*
X264392857Y-261614285D01*
X264107142Y-261757142D01*
X263821428Y-261757142D01*
X262821428Y-261757142D02*
X262821428Y-258757142D01*
X261535714Y-261757142D02*
X261535714Y-260185714D01*
X261678571Y-259900000D01*
X261964285Y-259757142D01*
X262392857Y-259757142D01*
X262678571Y-259900000D01*
X262821428Y-260042857D01*
X258964285Y-261614285D02*
X259249999Y-261757142D01*
X259821428Y-261757142D01*
X260107142Y-261614285D01*
X260249999Y-261328571D01*
X260249999Y-260185714D01*
X260107142Y-259900000D01*
X259821428Y-259757142D01*
X259249999Y-259757142D01*
X258964285Y-259900000D01*
X258821428Y-260185714D01*
X258821428Y-260471428D01*
X260249999Y-260757142D01*
X255535714Y-259757142D02*
X254964285Y-261757142D01*
X254392857Y-260328571D01*
X253821428Y-261757142D01*
X253249999Y-259757142D01*
X250821428Y-261757142D02*
X250821428Y-260185714D01*
X250964285Y-259900000D01*
X251249999Y-259757142D01*
X251821428Y-259757142D01*
X252107142Y-259900000D01*
X250821428Y-261614285D02*
X251107142Y-261757142D01*
X251821428Y-261757142D01*
X252107142Y-261614285D01*
X252249999Y-261328571D01*
X252249999Y-261042857D01*
X252107142Y-260757142D01*
X251821428Y-260614285D01*
X251107142Y-260614285D01*
X250821428Y-260471428D01*
X249821428Y-259757142D02*
X248678571Y-259757142D01*
X249392857Y-258757142D02*
X249392857Y-261328571D01*
X249249999Y-261614285D01*
X248964285Y-261757142D01*
X248678571Y-261757142D01*
X246535714Y-261614285D02*
X246821428Y-261757142D01*
X247392857Y-261757142D01*
X247678571Y-261614285D01*
X247821428Y-261328571D01*
X247821428Y-260185714D01*
X247678571Y-259900000D01*
X247392857Y-259757142D01*
X246821428Y-259757142D01*
X246535714Y-259900000D01*
X246392857Y-260185714D01*
X246392857Y-260471428D01*
X247821428Y-260757142D01*
X245107142Y-261757142D02*
X245107142Y-259757142D01*
X245107142Y-260328571D02*
X244964285Y-260042857D01*
X244821428Y-259900000D01*
X244535714Y-259757142D01*
X244250000Y-259757142D01*
X239678571Y-261757142D02*
X239678571Y-260185714D01*
X239821428Y-259900000D01*
X240107142Y-259757142D01*
X240678571Y-259757142D01*
X240964285Y-259900000D01*
X239678571Y-261614285D02*
X239964285Y-261757142D01*
X240678571Y-261757142D01*
X240964285Y-261614285D01*
X241107142Y-261328571D01*
X241107142Y-261042857D01*
X240964285Y-260757142D01*
X240678571Y-260614285D01*
X239964285Y-260614285D01*
X239678571Y-260471428D01*
X238250000Y-261757142D02*
X238250000Y-259757142D01*
X238250000Y-260328571D02*
X238107142Y-260042857D01*
X237964285Y-259900000D01*
X237678571Y-259757142D01*
X237392857Y-259757142D01*
X235964285Y-261757142D02*
X236249999Y-261614285D01*
X236392857Y-261471428D01*
X236535714Y-261185714D01*
X236535714Y-260328571D01*
X236392857Y-260042857D01*
X236249999Y-259900000D01*
X235964285Y-259757142D01*
X235535714Y-259757142D01*
X235249999Y-259900000D01*
X235107142Y-260042857D01*
X234964285Y-260328571D01*
X234964285Y-261185714D01*
X235107142Y-261471428D01*
X235249999Y-261614285D01*
X235535714Y-261757142D01*
X235964285Y-261757142D01*
X232392857Y-259757142D02*
X232392857Y-261757142D01*
X233678571Y-259757142D02*
X233678571Y-261328571D01*
X233535714Y-261614285D01*
X233249999Y-261757142D01*
X232821428Y-261757142D01*
X232535714Y-261614285D01*
X232392857Y-261471428D01*
X230964285Y-259757142D02*
X230964285Y-261757142D01*
X230964285Y-260042857D02*
X230821428Y-259900000D01*
X230535714Y-259757142D01*
X230107142Y-259757142D01*
X229821428Y-259900000D01*
X229678571Y-260185714D01*
X229678571Y-261757142D01*
X226964285Y-261757142D02*
X226964285Y-258757142D01*
X226964285Y-261614285D02*
X227249999Y-261757142D01*
X227821428Y-261757142D01*
X228107142Y-261614285D01*
X228249999Y-261471428D01*
X228392857Y-261185714D01*
X228392857Y-260328571D01*
X228249999Y-260042857D01*
X228107142Y-259900000D01*
X227821428Y-259757142D01*
X227249999Y-259757142D01*
X226964285Y-259900000D01*
X223249999Y-261757142D02*
X223249999Y-259757142D01*
X223249999Y-258757142D02*
X223392857Y-258900000D01*
X223249999Y-259042857D01*
X223107142Y-258900000D01*
X223249999Y-258757142D01*
X223249999Y-259042857D01*
X222249999Y-259757142D02*
X221107142Y-259757142D01*
X221821428Y-258757142D02*
X221821428Y-261328571D01*
X221678571Y-261614285D01*
X221392857Y-261757142D01*
X221107142Y-261757142D01*
X220107142Y-261471428D02*
X219964285Y-261614285D01*
X220107142Y-261757142D01*
X220249999Y-261614285D01*
X220107142Y-261471428D01*
X220107142Y-261757142D01*
D11*
%TO.C,U13*%
X216069400Y-181077600D02*
X234069400Y-181077600D01*
X216069400Y-161021600D02*
X216069400Y-181077600D01*
X234069400Y-161021600D02*
X234069400Y-181077600D01*
X216069400Y-161021600D02*
X234069400Y-161021600D01*
%TO.C,U1*%
X314076800Y-174532600D02*
X314076800Y-158532600D01*
X314076800Y-158532600D02*
X336076800Y-158532600D01*
X336076800Y-158532600D02*
X336076800Y-174532600D01*
X336076800Y-174532600D02*
X314076800Y-174532600D01*
X318776800Y-171532600D02*
X331376800Y-171532600D01*
X328076800Y-171532600D02*
G75*
G03*
X328076800Y-171532600I-3000000J0D01*
G01*
X320976800Y-176382600D02*
X329176800Y-176382600D01*
X329176800Y-176382600D02*
X329176800Y-166732600D01*
X329176800Y-166732600D02*
X320976800Y-166732600D01*
X320976800Y-166732600D02*
X320976800Y-176382600D01*
%TO.C,S4*%
X341211467Y-131699000D02*
G75*
G03*
X341211467Y-131699000I-6185467J0D01*
G01*
%TO.C,S3*%
X221196467Y-131826000D02*
G75*
G03*
X221196467Y-131826000I-6185467J0D01*
G01*
%TO.C,S2*%
X291300467Y-131762500D02*
G75*
G03*
X291300467Y-131762500I-6185467J0D01*
G01*
%TO.C,S1*%
X271234467Y-131826000D02*
G75*
G03*
X271234467Y-131826000I-6185467J0D01*
G01*
%TO.C,Q8*%
X246070000Y-109730000D02*
X246070000Y-111190000D01*
X249230000Y-109730000D02*
X249230000Y-111890000D01*
X249230000Y-109730000D02*
X248300000Y-109730000D01*
X246070000Y-109730000D02*
X247000000Y-109730000D01*
%TO.C,JT1*%
X306257000Y-157794000D02*
X306257000Y-156464000D01*
X304927000Y-157794000D02*
X306257000Y-157794000D01*
X306257000Y-155194000D02*
X306257000Y-152594000D01*
X303657000Y-155194000D02*
X306257000Y-155194000D01*
X303657000Y-157794000D02*
X303657000Y-155194000D01*
X306257000Y-152594000D02*
X295977000Y-152594000D01*
X303657000Y-157794000D02*
X295977000Y-157794000D01*
X295977000Y-157794000D02*
X295977000Y-152594000D01*
%TO.C,D12*%
X212261000Y-115171200D02*
X213411000Y-115171200D01*
X212261000Y-122471200D02*
X212261000Y-115171200D01*
X217761000Y-122471200D02*
X217761000Y-115171200D01*
%TO.C,D11*%
X218777000Y-155364200D02*
X217627000Y-155364200D01*
X218777000Y-148064200D02*
X218777000Y-155364200D01*
X213277000Y-148064200D02*
X213277000Y-155364200D01*
%TO.C,D10*%
X224771400Y-155364200D02*
X223621400Y-155364200D01*
X224771400Y-148064200D02*
X224771400Y-155364200D01*
X219271400Y-148064200D02*
X219271400Y-155364200D01*
%TO.C,D9*%
X230765800Y-155389600D02*
X229615800Y-155389600D01*
X230765800Y-148089600D02*
X230765800Y-155389600D01*
X225265800Y-148089600D02*
X225265800Y-155389600D01*
%TO.C,D8*%
X236811000Y-155415000D02*
X235661000Y-155415000D01*
X236811000Y-148115000D02*
X236811000Y-155415000D01*
X231311000Y-148115000D02*
X231311000Y-155415000D01*
%TO.C,D7*%
X334804200Y-122369600D02*
X333654200Y-122369600D01*
X334804200Y-115069600D02*
X334804200Y-122369600D01*
X329304200Y-115069600D02*
X329304200Y-122369600D01*
%TO.C,D6*%
X340798600Y-122395000D02*
X339648600Y-122395000D01*
X340798600Y-115095000D02*
X340798600Y-122395000D01*
X335298600Y-115095000D02*
X335298600Y-122395000D01*
%TO.C,U13*%
D10*
X226347495Y-182619980D02*
X226347495Y-183429504D01*
X226299876Y-183524742D01*
X226252257Y-183572361D01*
X226157019Y-183619980D01*
X225966542Y-183619980D01*
X225871304Y-183572361D01*
X225823685Y-183524742D01*
X225776066Y-183429504D01*
X225776066Y-182619980D01*
X224776066Y-183619980D02*
X225347495Y-183619980D01*
X225061780Y-183619980D02*
X225061780Y-182619980D01*
X225157019Y-182762838D01*
X225252257Y-182858076D01*
X225347495Y-182905695D01*
X224442733Y-182619980D02*
X223823685Y-182619980D01*
X224157019Y-183000933D01*
X224014161Y-183000933D01*
X223918923Y-183048552D01*
X223871304Y-183096171D01*
X223823685Y-183191409D01*
X223823685Y-183429504D01*
X223871304Y-183524742D01*
X223918923Y-183572361D01*
X224014161Y-183619980D01*
X224299876Y-183619980D01*
X224395114Y-183572361D01*
X224442733Y-183524742D01*
X229290352Y-177339028D02*
X228528447Y-177339028D01*
X225365114Y-177512361D02*
X225222257Y-177559980D01*
X224984161Y-177559980D01*
X224888923Y-177512361D01*
X224841304Y-177464742D01*
X224793685Y-177369504D01*
X224793685Y-177274266D01*
X224841304Y-177179028D01*
X224888923Y-177131409D01*
X224984161Y-177083790D01*
X225174638Y-177036171D01*
X225269876Y-176988552D01*
X225317495Y-176940933D01*
X225365114Y-176845695D01*
X225365114Y-176750457D01*
X225317495Y-176655219D01*
X225269876Y-176607600D01*
X225174638Y-176559980D01*
X224936542Y-176559980D01*
X224793685Y-176607600D01*
X221680352Y-177359028D02*
X220918447Y-177359028D01*
X221299400Y-177739980D02*
X221299400Y-176978076D01*
%TO.C,U1*%
X325878704Y-184704980D02*
X325878704Y-185514504D01*
X325831085Y-185609742D01*
X325783466Y-185657361D01*
X325688228Y-185704980D01*
X325497752Y-185704980D01*
X325402514Y-185657361D01*
X325354895Y-185609742D01*
X325307276Y-185514504D01*
X325307276Y-184704980D01*
X324307276Y-185704980D02*
X324878704Y-185704980D01*
X324592990Y-185704980D02*
X324592990Y-184704980D01*
X324688228Y-184847838D01*
X324783466Y-184943076D01*
X324878704Y-184990695D01*
%TO.C,S4*%
X336287904Y-139403761D02*
X336145047Y-139451380D01*
X335906952Y-139451380D01*
X335811714Y-139403761D01*
X335764095Y-139356142D01*
X335716476Y-139260904D01*
X335716476Y-139165666D01*
X335764095Y-139070428D01*
X335811714Y-139022809D01*
X335906952Y-138975190D01*
X336097428Y-138927571D01*
X336192666Y-138879952D01*
X336240285Y-138832333D01*
X336287904Y-138737095D01*
X336287904Y-138641857D01*
X336240285Y-138546619D01*
X336192666Y-138499000D01*
X336097428Y-138451380D01*
X335859333Y-138451380D01*
X335716476Y-138499000D01*
X334859333Y-138784714D02*
X334859333Y-139451380D01*
X335097428Y-138403761D02*
X335335523Y-139118047D01*
X334716476Y-139118047D01*
%TO.C,S3*%
X216272904Y-139530761D02*
X216130047Y-139578380D01*
X215891952Y-139578380D01*
X215796714Y-139530761D01*
X215749095Y-139483142D01*
X215701476Y-139387904D01*
X215701476Y-139292666D01*
X215749095Y-139197428D01*
X215796714Y-139149809D01*
X215891952Y-139102190D01*
X216082428Y-139054571D01*
X216177666Y-139006952D01*
X216225285Y-138959333D01*
X216272904Y-138864095D01*
X216272904Y-138768857D01*
X216225285Y-138673619D01*
X216177666Y-138626000D01*
X216082428Y-138578380D01*
X215844333Y-138578380D01*
X215701476Y-138626000D01*
X215368142Y-138578380D02*
X214749095Y-138578380D01*
X215082428Y-138959333D01*
X214939571Y-138959333D01*
X214844333Y-139006952D01*
X214796714Y-139054571D01*
X214749095Y-139149809D01*
X214749095Y-139387904D01*
X214796714Y-139483142D01*
X214844333Y-139530761D01*
X214939571Y-139578380D01*
X215225285Y-139578380D01*
X215320523Y-139530761D01*
X215368142Y-139483142D01*
%TO.C,S2*%
X286376904Y-139467261D02*
X286234047Y-139514880D01*
X285995952Y-139514880D01*
X285900714Y-139467261D01*
X285853095Y-139419642D01*
X285805476Y-139324404D01*
X285805476Y-139229166D01*
X285853095Y-139133928D01*
X285900714Y-139086309D01*
X285995952Y-139038690D01*
X286186428Y-138991071D01*
X286281666Y-138943452D01*
X286329285Y-138895833D01*
X286376904Y-138800595D01*
X286376904Y-138705357D01*
X286329285Y-138610119D01*
X286281666Y-138562500D01*
X286186428Y-138514880D01*
X285948333Y-138514880D01*
X285805476Y-138562500D01*
X285424523Y-138610119D02*
X285376904Y-138562500D01*
X285281666Y-138514880D01*
X285043571Y-138514880D01*
X284948333Y-138562500D01*
X284900714Y-138610119D01*
X284853095Y-138705357D01*
X284853095Y-138800595D01*
X284900714Y-138943452D01*
X285472142Y-139514880D01*
X284853095Y-139514880D01*
%TO.C,S1*%
X266310904Y-139530761D02*
X266168047Y-139578380D01*
X265929952Y-139578380D01*
X265834714Y-139530761D01*
X265787095Y-139483142D01*
X265739476Y-139387904D01*
X265739476Y-139292666D01*
X265787095Y-139197428D01*
X265834714Y-139149809D01*
X265929952Y-139102190D01*
X266120428Y-139054571D01*
X266215666Y-139006952D01*
X266263285Y-138959333D01*
X266310904Y-138864095D01*
X266310904Y-138768857D01*
X266263285Y-138673619D01*
X266215666Y-138626000D01*
X266120428Y-138578380D01*
X265882333Y-138578380D01*
X265739476Y-138626000D01*
X264787095Y-139578380D02*
X265358523Y-139578380D01*
X265072809Y-139578380D02*
X265072809Y-138578380D01*
X265168047Y-138721238D01*
X265263285Y-138816476D01*
X265358523Y-138864095D01*
%TO.C,Q8*%
X249602380Y-110585238D02*
X249650000Y-110680476D01*
X249745238Y-110775714D01*
X249888095Y-110918571D01*
X249935714Y-111013809D01*
X249935714Y-111109047D01*
X249697619Y-111061428D02*
X249745238Y-111156666D01*
X249840476Y-111251904D01*
X250030952Y-111299523D01*
X250364285Y-111299523D01*
X250554761Y-111251904D01*
X250650000Y-111156666D01*
X250697619Y-111061428D01*
X250697619Y-110870952D01*
X250650000Y-110775714D01*
X250554761Y-110680476D01*
X250364285Y-110632857D01*
X250030952Y-110632857D01*
X249840476Y-110680476D01*
X249745238Y-110775714D01*
X249697619Y-110870952D01*
X249697619Y-111061428D01*
X250269047Y-110061428D02*
X250316666Y-110156666D01*
X250364285Y-110204285D01*
X250459523Y-110251904D01*
X250507142Y-110251904D01*
X250602380Y-110204285D01*
X250650000Y-110156666D01*
X250697619Y-110061428D01*
X250697619Y-109870952D01*
X250650000Y-109775714D01*
X250602380Y-109728095D01*
X250507142Y-109680476D01*
X250459523Y-109680476D01*
X250364285Y-109728095D01*
X250316666Y-109775714D01*
X250269047Y-109870952D01*
X250269047Y-110061428D01*
X250221428Y-110156666D01*
X250173809Y-110204285D01*
X250078571Y-110251904D01*
X249888095Y-110251904D01*
X249792857Y-110204285D01*
X249745238Y-110156666D01*
X249697619Y-110061428D01*
X249697619Y-109870952D01*
X249745238Y-109775714D01*
X249792857Y-109728095D01*
X249888095Y-109680476D01*
X250078571Y-109680476D01*
X250173809Y-109728095D01*
X250221428Y-109775714D01*
X250269047Y-109870952D01*
%TO.C,JT1*%
X306709380Y-154479714D02*
X307423666Y-154479714D01*
X307566523Y-154432095D01*
X307661761Y-154336857D01*
X307709380Y-154194000D01*
X307709380Y-154098761D01*
X306709380Y-154813047D02*
X306709380Y-155384476D01*
X307709380Y-155098761D02*
X306709380Y-155098761D01*
X307709380Y-156241619D02*
X307709380Y-155670190D01*
X307709380Y-155955904D02*
X306709380Y-155955904D01*
X306852238Y-155860666D01*
X306947476Y-155765428D01*
X306995095Y-155670190D01*
%TO.C,D12*%
X218963380Y-117606914D02*
X217963380Y-117606914D01*
X217963380Y-117845009D01*
X218011000Y-117987866D01*
X218106238Y-118083104D01*
X218201476Y-118130723D01*
X218391952Y-118178342D01*
X218534809Y-118178342D01*
X218725285Y-118130723D01*
X218820523Y-118083104D01*
X218915761Y-117987866D01*
X218963380Y-117845009D01*
X218963380Y-117606914D01*
X218963380Y-119130723D02*
X218963380Y-118559295D01*
X218963380Y-118845009D02*
X217963380Y-118845009D01*
X218106238Y-118749771D01*
X218201476Y-118654533D01*
X218249095Y-118559295D01*
X218058619Y-119511676D02*
X218011000Y-119559295D01*
X217963380Y-119654533D01*
X217963380Y-119892628D01*
X218011000Y-119987866D01*
X218058619Y-120035485D01*
X218153857Y-120083104D01*
X218249095Y-120083104D01*
X218391952Y-120035485D01*
X218963380Y-119464057D01*
X218963380Y-120083104D01*
%TO.C,D11*%
X212979380Y-150499914D02*
X211979380Y-150499914D01*
X211979380Y-150738009D01*
X212027000Y-150880866D01*
X212122238Y-150976104D01*
X212217476Y-151023723D01*
X212407952Y-151071342D01*
X212550809Y-151071342D01*
X212741285Y-151023723D01*
X212836523Y-150976104D01*
X212931761Y-150880866D01*
X212979380Y-150738009D01*
X212979380Y-150499914D01*
X212979380Y-152023723D02*
X212979380Y-151452295D01*
X212979380Y-151738009D02*
X211979380Y-151738009D01*
X212122238Y-151642771D01*
X212217476Y-151547533D01*
X212265095Y-151452295D01*
X212979380Y-152976104D02*
X212979380Y-152404676D01*
X212979380Y-152690390D02*
X211979380Y-152690390D01*
X212122238Y-152595152D01*
X212217476Y-152499914D01*
X212265095Y-152404676D01*
%TO.C,D10*%
X218973780Y-150499914D02*
X217973780Y-150499914D01*
X217973780Y-150738009D01*
X218021400Y-150880866D01*
X218116638Y-150976104D01*
X218211876Y-151023723D01*
X218402352Y-151071342D01*
X218545209Y-151071342D01*
X218735685Y-151023723D01*
X218830923Y-150976104D01*
X218926161Y-150880866D01*
X218973780Y-150738009D01*
X218973780Y-150499914D01*
X218973780Y-152023723D02*
X218973780Y-151452295D01*
X218973780Y-151738009D02*
X217973780Y-151738009D01*
X218116638Y-151642771D01*
X218211876Y-151547533D01*
X218259495Y-151452295D01*
X217973780Y-152642771D02*
X217973780Y-152738009D01*
X218021400Y-152833247D01*
X218069019Y-152880866D01*
X218164257Y-152928485D01*
X218354733Y-152976104D01*
X218592828Y-152976104D01*
X218783304Y-152928485D01*
X218878542Y-152880866D01*
X218926161Y-152833247D01*
X218973780Y-152738009D01*
X218973780Y-152642771D01*
X218926161Y-152547533D01*
X218878542Y-152499914D01*
X218783304Y-152452295D01*
X218592828Y-152404676D01*
X218354733Y-152404676D01*
X218164257Y-152452295D01*
X218069019Y-152499914D01*
X218021400Y-152547533D01*
X217973780Y-152642771D01*
%TO.C,D9*%
X224968180Y-151001504D02*
X223968180Y-151001504D01*
X223968180Y-151239600D01*
X224015800Y-151382457D01*
X224111038Y-151477695D01*
X224206276Y-151525314D01*
X224396752Y-151572933D01*
X224539609Y-151572933D01*
X224730085Y-151525314D01*
X224825323Y-151477695D01*
X224920561Y-151382457D01*
X224968180Y-151239600D01*
X224968180Y-151001504D01*
X224968180Y-152049123D02*
X224968180Y-152239600D01*
X224920561Y-152334838D01*
X224872942Y-152382457D01*
X224730085Y-152477695D01*
X224539609Y-152525314D01*
X224158657Y-152525314D01*
X224063419Y-152477695D01*
X224015800Y-152430076D01*
X223968180Y-152334838D01*
X223968180Y-152144361D01*
X224015800Y-152049123D01*
X224063419Y-152001504D01*
X224158657Y-151953885D01*
X224396752Y-151953885D01*
X224491990Y-152001504D01*
X224539609Y-152049123D01*
X224587228Y-152144361D01*
X224587228Y-152334838D01*
X224539609Y-152430076D01*
X224491990Y-152477695D01*
X224396752Y-152525314D01*
%TO.C,D8*%
X231013380Y-151026904D02*
X230013380Y-151026904D01*
X230013380Y-151265000D01*
X230061000Y-151407857D01*
X230156238Y-151503095D01*
X230251476Y-151550714D01*
X230441952Y-151598333D01*
X230584809Y-151598333D01*
X230775285Y-151550714D01*
X230870523Y-151503095D01*
X230965761Y-151407857D01*
X231013380Y-151265000D01*
X231013380Y-151026904D01*
X230441952Y-152169761D02*
X230394333Y-152074523D01*
X230346714Y-152026904D01*
X230251476Y-151979285D01*
X230203857Y-151979285D01*
X230108619Y-152026904D01*
X230061000Y-152074523D01*
X230013380Y-152169761D01*
X230013380Y-152360238D01*
X230061000Y-152455476D01*
X230108619Y-152503095D01*
X230203857Y-152550714D01*
X230251476Y-152550714D01*
X230346714Y-152503095D01*
X230394333Y-152455476D01*
X230441952Y-152360238D01*
X230441952Y-152169761D01*
X230489571Y-152074523D01*
X230537190Y-152026904D01*
X230632428Y-151979285D01*
X230822904Y-151979285D01*
X230918142Y-152026904D01*
X230965761Y-152074523D01*
X231013380Y-152169761D01*
X231013380Y-152360238D01*
X230965761Y-152455476D01*
X230918142Y-152503095D01*
X230822904Y-152550714D01*
X230632428Y-152550714D01*
X230537190Y-152503095D01*
X230489571Y-152455476D01*
X230441952Y-152360238D01*
%TO.C,D7*%
X329006580Y-117981504D02*
X328006580Y-117981504D01*
X328006580Y-118219600D01*
X328054200Y-118362457D01*
X328149438Y-118457695D01*
X328244676Y-118505314D01*
X328435152Y-118552933D01*
X328578009Y-118552933D01*
X328768485Y-118505314D01*
X328863723Y-118457695D01*
X328958961Y-118362457D01*
X329006580Y-118219600D01*
X329006580Y-117981504D01*
X328006580Y-118886266D02*
X328006580Y-119552933D01*
X329006580Y-119124361D01*
%TO.C,D6*%
X335000980Y-118006904D02*
X334000980Y-118006904D01*
X334000980Y-118245000D01*
X334048600Y-118387857D01*
X334143838Y-118483095D01*
X334239076Y-118530714D01*
X334429552Y-118578333D01*
X334572409Y-118578333D01*
X334762885Y-118530714D01*
X334858123Y-118483095D01*
X334953361Y-118387857D01*
X335000980Y-118245000D01*
X335000980Y-118006904D01*
X334000980Y-119435476D02*
X334000980Y-119245000D01*
X334048600Y-119149761D01*
X334096219Y-119102142D01*
X334239076Y-119006904D01*
X334429552Y-118959285D01*
X334810504Y-118959285D01*
X334905742Y-119006904D01*
X334953361Y-119054523D01*
X335000980Y-119149761D01*
X335000980Y-119340238D01*
X334953361Y-119435476D01*
X334905742Y-119483095D01*
X334810504Y-119530714D01*
X334572409Y-119530714D01*
X334477171Y-119483095D01*
X334429552Y-119435476D01*
X334381933Y-119340238D01*
X334381933Y-119149761D01*
X334429552Y-119054523D01*
X334477171Y-119006904D01*
X334572409Y-118959285D01*
%TD*%
M02*
