M48
; DRILL file {KiCad 5.1.7-a382d34a8~88~ubuntu20.04.1} date Sat May  8 15:19:45 2021
; FORMAT={-:-/ absolute / inch / decimal}
; #@! TF.CreationDate,2021-05-08T15:19:45+02:00
; #@! TF.GenerationSoftware,Kicad,Pcbnew,5.1.7-a382d34a8~88~ubuntu20.04.1
; #@! TF.FileFunction,Plated,1,4,PTH
FMAT,2
INCH
T1C0.0079
T2C0.0157
T3C0.0197
T4C0.0276
T5C0.0300
T6C0.0305
T7C0.0315
T8C0.0354
T9C0.0374
T10C0.0394
T11C0.0402
T12C0.0433
T13C0.0512
T14C0.0591
T15C0.0906
T16C0.0984
T17C0.1063
T18C0.1181
T19C0.1378
T20C0.1496
%
G90
G05
T1
X14.7224Y-7.4764
X14.7224Y-7.5551
X14.7224Y-7.6339
X14.7224Y-7.7126
X14.7224Y-7.7913
X14.7224Y-7.8701
X14.7224Y-7.9488
X14.7224Y-8.0276
X14.7224Y-8.1063
X14.7224Y-8.185
X14.7224Y-8.2638
X14.7224Y-8.3425
X14.7224Y-8.4213
X14.7224Y-8.5
X14.7224Y-8.5787
X14.7224Y-8.6575
X14.7224Y-8.7362
X14.8012Y-7.4764
X14.8012Y-7.5551
X14.8012Y-7.6339
X14.8012Y-7.7126
X14.8012Y-7.7913
X14.8012Y-7.8701
X14.8012Y-7.9488
X14.8012Y-8.0276
X14.8012Y-8.1063
X14.8012Y-8.185
X14.8012Y-8.2638
X14.8012Y-8.3425
X14.8012Y-8.4213
X14.8012Y-8.5
X14.8012Y-8.5787
X14.8012Y-8.6575
X14.8012Y-8.7362
X14.8799Y-7.4764
X14.8799Y-7.5551
X14.8799Y-7.6339
X14.8799Y-7.7126
X14.8799Y-7.7913
X14.8799Y-7.8701
X14.8799Y-7.9488
X14.8799Y-8.0276
X14.8799Y-8.1063
X14.8799Y-8.185
X14.8799Y-8.2638
X14.8799Y-8.3425
X14.8799Y-8.4213
X14.8799Y-8.5
X14.8799Y-8.5787
X14.8799Y-8.6575
X14.8799Y-8.7362
X14.9587Y-7.4764
X14.9587Y-7.5551
X14.9587Y-7.6339
X14.9587Y-7.7126
X14.9587Y-7.7913
X14.9587Y-7.8701
X14.9587Y-7.9488
X14.9587Y-8.0276
X14.9587Y-8.1063
X14.9587Y-8.185
X14.9587Y-8.2638
X14.9587Y-8.3425
X14.9587Y-8.4213
X14.9587Y-8.5
X14.9587Y-8.5787
X14.9587Y-8.6575
X14.9587Y-8.7362
X15.0374Y-7.4764
X15.0374Y-7.5551
X15.0374Y-7.6339
X15.0374Y-7.7126
X15.0374Y-7.7913
X15.0374Y-7.8701
X15.0374Y-7.9488
X15.0374Y-8.0276
X15.0374Y-8.1063
X15.0374Y-8.185
X15.0374Y-8.2638
X15.0374Y-8.3425
X15.0374Y-8.4213
X15.0374Y-8.5
X15.0374Y-8.5787
X15.0374Y-8.6575
X15.0374Y-8.7362
X15.1161Y-7.4764
X15.1161Y-7.5551
X15.1161Y-7.6339
X15.1161Y-7.7126
X15.1161Y-7.7913
X15.1161Y-7.8701
X15.1161Y-7.9488
X15.1161Y-8.0276
X15.1161Y-8.1063
X15.1161Y-8.185
X15.1161Y-8.2638
X15.1161Y-8.3425
X15.1161Y-8.4213
X15.1161Y-8.5
X15.1161Y-8.5787
X15.1161Y-8.6575
X15.1161Y-8.7362
X15.1949Y-7.4764
X15.1949Y-7.5551
X15.1949Y-7.6339
X15.1949Y-7.7126
X15.1949Y-7.7913
X15.1949Y-7.8701
X15.1949Y-7.9488
X15.1949Y-8.0276
X15.1949Y-8.1063
X15.1949Y-8.185
X15.1949Y-8.2638
X15.1949Y-8.3425
X15.1949Y-8.4213
X15.1949Y-8.5
X15.1949Y-8.5787
X15.1949Y-8.6575
X15.1949Y-8.7362
X15.2736Y-7.4764
X15.2736Y-7.5551
X15.2736Y-7.6339
X15.2736Y-7.7126
X15.2736Y-7.7913
X15.2736Y-7.8701
X15.2736Y-7.9488
X15.2736Y-8.0276
X15.2736Y-8.1063
X15.2736Y-8.185
X15.2736Y-8.2638
X15.2736Y-8.3425
X15.2736Y-8.4213
X15.2736Y-8.5
X15.2736Y-8.5787
X15.2736Y-8.6575
X15.2736Y-8.7362
X15.3524Y-7.4764
X15.3524Y-7.5551
X15.3524Y-7.6339
X15.3524Y-7.7126
X15.3524Y-7.7913
X15.3524Y-7.8701
X15.3524Y-7.9488
X15.3524Y-8.0276
X15.3524Y-8.1063
X15.3524Y-8.185
X15.3524Y-8.2638
X15.3524Y-8.3425
X15.3524Y-8.4213
X15.3524Y-8.5
X15.3524Y-8.5787
X15.3524Y-8.6575
X15.3524Y-8.7362
X15.4311Y-7.4764
X15.4311Y-7.5551
X15.4311Y-7.6339
X15.4311Y-7.7126
X15.4311Y-7.7913
X15.4311Y-7.8701
X15.4311Y-7.9488
X15.4311Y-8.0276
X15.4311Y-8.1063
X15.4311Y-8.185
X15.4311Y-8.2638
X15.4311Y-8.3425
X15.4311Y-8.4213
X15.4311Y-8.5
X15.4311Y-8.5787
X15.4311Y-8.6575
X15.4311Y-8.7362
X15.5098Y-7.4764
X15.5098Y-7.5551
X15.5098Y-7.6339
X15.5098Y-7.7126
X15.5098Y-7.7913
X15.5098Y-7.8701
X15.5098Y-7.9488
X15.5098Y-8.0276
X15.5098Y-8.1063
X15.5098Y-8.185
X15.5098Y-8.2638
X15.5098Y-8.3425
X15.5098Y-8.4213
X15.5098Y-8.5
X15.5098Y-8.5787
X15.5098Y-8.6575
X15.5098Y-8.7362
X15.5886Y-7.4764
X15.5886Y-7.5551
X15.5886Y-7.6339
X15.5886Y-7.7126
X15.5886Y-7.7913
X15.5886Y-7.8701
X15.5886Y-7.9488
X15.5886Y-8.0276
X15.5886Y-8.1063
X15.5886Y-8.185
X15.5886Y-8.2638
X15.5886Y-8.3425
X15.5886Y-8.4213
X15.5886Y-8.5
X15.5886Y-8.5787
X15.5886Y-8.6575
X15.5886Y-8.7362
X15.6673Y-7.4764
X15.6673Y-7.5551
X15.6673Y-7.6339
X15.6673Y-7.7126
X15.6673Y-7.7913
X15.6673Y-7.8701
X15.6673Y-7.9488
X15.6673Y-8.0276
X15.6673Y-8.1063
X15.6673Y-8.185
X15.6673Y-8.2638
X15.6673Y-8.3425
X15.6673Y-8.4213
X15.6673Y-8.5
X15.6673Y-8.5787
X15.6673Y-8.6575
X15.6673Y-8.7362
X15.7461Y-7.4764
X15.7461Y-7.5551
X15.7461Y-7.6339
X15.7461Y-7.7126
X15.7461Y-7.7913
X15.7461Y-7.8701
X15.7461Y-7.9488
X15.7461Y-8.0276
X15.7461Y-8.1063
X15.7461Y-8.185
X15.7461Y-8.2638
X15.7461Y-8.3425
X15.7461Y-8.4213
X15.7461Y-8.5
X15.7461Y-8.5787
X15.7461Y-8.6575
X15.7461Y-8.7362
X15.8248Y-7.4764
X15.8248Y-7.5551
X15.8248Y-7.6339
X15.8248Y-7.7126
X15.8248Y-7.7913
X15.8248Y-7.8701
X15.8248Y-7.9488
X15.8248Y-8.0276
X15.8248Y-8.1063
X15.8248Y-8.185
X15.8248Y-8.2638
X15.8248Y-8.3425
X15.8248Y-8.4213
X15.8248Y-8.5
X15.8248Y-8.5787
X15.8248Y-8.6575
X15.8248Y-8.7362
X15.9035Y-7.4764
X15.9035Y-7.5551
X15.9035Y-7.6339
X15.9035Y-7.7126
X15.9035Y-7.7913
X15.9035Y-7.8701
X15.9035Y-7.9488
X15.9035Y-8.0276
X15.9035Y-8.1063
X15.9035Y-8.185
X15.9035Y-8.2638
X15.9035Y-8.3425
X15.9035Y-8.4213
X15.9035Y-8.5
X15.9035Y-8.5787
X15.9035Y-8.6575
X15.9035Y-8.7362
X15.9823Y-7.4764
X15.9823Y-7.5551
X15.9823Y-7.6339
X15.9823Y-7.7126
X15.9823Y-7.7913
X15.9823Y-7.8701
X15.9823Y-7.9488
X15.9823Y-8.0276
X15.9823Y-8.1063
X15.9823Y-8.185
X15.9823Y-8.2638
X15.9823Y-8.3425
X15.9823Y-8.4213
X15.9823Y-8.5
X15.9823Y-8.5787
X15.9823Y-8.6575
X15.9823Y-8.7362
T2
X7.9921Y-6.6535
X8.5039Y-5.6299
X8.568Y-5.8765
X8.8287Y-4.9803
X8.861Y-7.3988
X9.1339Y-6.4764
X9.1732Y-5.2264
X9.252Y-5.6299
X9.278Y-6.0715
X9.3012Y-6.5157
X9.3799Y-8.1201
X9.5571Y-5.6988
X9.5669Y-5.9449
X9.6457Y-6.8504
X10.1181Y-6.2598
X10.1255Y-4.8351
X10.128Y-5.2953
X10.1476Y-4.3898
X10.1904Y-4.836
X10.1941Y-6.0291
X10.2362Y-5.9055
X10.3642Y-6.3583
X10.3937Y-5.9154
X10.4921Y-7.3622
X10.5906Y-7.8248
X10.748Y-5.6299
X10.7579Y-4.7835
X10.7874Y-5.5118
X10.7874Y-6.1024
X10.7874Y-6.1024
X10.8661Y-6.939
X10.9154Y-5.8957
X10.9154Y-7.0965
X10.9154Y-8.2382
X10.9822Y-6.9173
X10.9843Y-8.1493
X11.0335Y-8.0512
X11.0433Y-6.9685
X11.063Y-5.3937
X11.1319Y-8.1102
X11.1483Y-6.3633
X11.1516Y-6.9291
X11.1811Y-6.8307
X11.1811Y-8.8976
X11.1909Y-8.248
X11.2468Y-6.8634
X11.2598Y-8.376
X11.3189Y-5.5969
X11.3189Y-7.7461
X11.3386Y-5.0394
X11.3386Y-6.9685
X11.3481Y-7.1914
X11.3756Y-7.9626
X11.3878Y-4.2913
X11.4327Y-7.6083
X11.4515Y-7.7015
X11.4567Y-6.6535
X11.4567Y-6.939
X11.4861Y-4.209
X11.5256Y-7.2539
X11.5279Y-5.9032
X11.5748Y-6.063
X11.5748Y-9.0551
X11.5945Y-6.5059
X11.7224Y-8.9469
X11.7323Y-8.1201
X11.7325Y-8.297
X11.7717Y-6.378
X11.7763Y-6.5013
X11.811Y-7.2441
X11.811Y-7.4016
X11.811Y-8.1493
X11.8504Y-5.4331
X11.8553Y-6.3699
X11.8701Y-8.5236
X11.8701Y-8.7402
X11.8799Y-7.3524
X11.8898Y-7.5197
X11.8898Y-8.2283
X11.9214Y-4.678
X11.9291Y-6.8012
X11.9685Y-7.3297
X12.0768Y-6.7717
X12.0866Y-6.2992
X12.126Y-7.3622
X12.1654Y-4.1339
X12.1654Y-6.2992
X12.2047Y-7.2441
X12.2441Y-6.6535
X12.3193Y-6.1073
X12.3228Y-5.2756
X12.3601Y-6.998
X12.3622Y-5.0394
X12.3887Y-7.0866
X12.4016Y-6.4961
X12.433Y-7.4114
X12.44Y-6.5551
X12.4705Y-7.2736
X12.4846Y-7.2026
X12.4902Y-7.5098
X12.5046Y-7.3819
X12.5046Y-7.5984
X12.5197Y-5.0
X12.5197Y-6.378
X12.5197Y-8.0315
X12.5331Y-7.6637
X12.5591Y-6.4961
X12.5617Y-7.5984
X12.5984Y-7.4843
X12.6051Y-8.106
X12.627Y-7.4272
X12.6378Y-6.0236
X12.6378Y-7.874
X12.6378Y-8.0315
X12.6772Y-5.7087
X12.7235Y-7.4734
X12.7559Y-8.2283
X12.7953Y-5.5709
X12.8654Y-7.983
X12.874Y-5.7087
X12.874Y-8.0315
X12.9134Y-8.0709
X12.9232Y-7.1063
X13.0807Y-5.7776
X13.1496Y-6.9488
X13.2283Y-5.315
X13.2412Y-4.8554
X13.2776Y-7.0472
X13.3465Y-8.0315
X13.5039Y-7.0866
T3
X13.9173Y-4.2028
X13.9433Y-4.1401
X13.9433Y-4.2654
X14.0059Y-4.1142
X14.0059Y-4.2913
X14.0685Y-4.1401
X14.0685Y-4.2654
X14.0945Y-4.2028
X13.8435Y-10.6102
X13.8651Y-10.558
X13.8651Y-10.6624
X13.9173Y-10.5364
X13.9173Y-10.6841
X13.9695Y-10.558
X13.9695Y-10.6624
X13.9911Y-10.6102
X7.5591Y-7.7362
X7.585Y-7.6736
X7.585Y-7.7989
X7.6476Y-7.6476
X7.6476Y-7.8248
X7.7103Y-7.6736
X7.7103Y-7.7989
X7.7362Y-7.7362
X7.5689Y-4.2126
X7.5948Y-4.15
X7.5948Y-4.2752
X7.6575Y-4.124
X7.6575Y-4.3012
X7.7201Y-4.15
X7.7201Y-4.2752
X7.7461Y-4.2126
X7.5492Y-9.3504
X7.5752Y-9.2878
X7.5752Y-9.413
X7.6378Y-9.2618
X7.6378Y-9.439
X7.7004Y-9.2878
X7.7004Y-9.413
X7.7264Y-9.3504
X13.937Y-9.3701
X13.963Y-9.3074
X13.963Y-9.4327
X14.0256Y-9.2815
X14.0256Y-9.4587
X14.0882Y-9.3074
X14.0882Y-9.4327
X14.1142Y-9.3701
X13.8976Y-7.7461
X13.9236Y-7.6834
X13.9236Y-7.8087
X13.9862Y-7.6575
X13.9862Y-7.8346
X14.0489Y-7.6834
X14.0489Y-7.8087
X14.0748Y-7.7461
T4
X12.245Y-5.125
X12.245Y-5.425
X10.05Y-4.9
X10.05Y-5.2
X12.75Y-5.65
X13.05Y-5.65
X9.536Y-6.538
X9.536Y-6.838
X12.16Y-6.55
X12.16Y-6.85
X12.7Y-7.65
X12.7Y-7.95
X10.15Y-4.9
X10.15Y-5.2
X12.0Y-6.55
X12.0Y-6.85
X13.2Y-6.1
X13.5Y-6.1
X11.425Y-6.0
X11.425Y-6.3
X9.63Y-4.88
X9.63Y-5.18
X10.35Y-6.885
X10.35Y-7.185
X11.575Y-8.345
X11.575Y-8.645
X13.8425Y-10.3268
X13.8425Y-10.3976
X14.0Y-10.3268
X14.0Y-10.3976
X13.158Y-7.26
X13.158Y-7.56
X13.75Y-10.1768
X14.05Y-10.1768
X8.848Y-4.4
X8.848Y-4.7
X10.7543Y-4.61
X10.7543Y-4.91
X10.8783Y-4.61
X10.8783Y-4.91
X13.158Y-7.706
X13.158Y-8.006
X11.4Y-8.9
X11.4Y-9.2
X12.8Y-7.65
X12.8Y-7.95
X10.682Y-5.724
X10.682Y-6.024
X8.74Y-4.4
X8.74Y-4.7
X11.85Y-6.55
X11.85Y-6.85
X10.752Y-5.086
X10.752Y-5.386
X11.022Y-6.458
X11.022Y-6.758
X13.75Y-10.0268
X14.05Y-10.0268
X12.26Y-6.55
X12.26Y-6.85
X9.328Y-6.4
X9.328Y-6.7
T5
X11.96Y-7.155
X11.96Y-8.135
X12.06Y-7.155
X12.06Y-7.155
X12.06Y-8.135
X12.16Y-7.155
X12.16Y-8.135
X12.26Y-7.155
X12.26Y-8.135
X12.36Y-7.155
X12.36Y-8.135
X12.46Y-7.155
X12.46Y-8.135
X12.56Y-7.155
X12.56Y-8.135
X12.66Y-7.155
X12.66Y-8.135
X12.76Y-7.155
X12.76Y-8.135
X12.86Y-7.155
X12.86Y-8.135
X12.96Y-7.155
X12.96Y-8.135
X13.06Y-7.155
X13.06Y-8.135
X13.16Y-7.155
X13.16Y-8.135
X13.26Y-7.155
X13.26Y-8.135
X13.36Y-7.155
X13.36Y-8.135
X11.605Y-6.43
X11.705Y-6.43
T6
X11.605Y-5.93
X11.705Y-5.93
X11.805Y-5.93
X11.805Y-6.43
X11.905Y-5.93
X11.905Y-6.43
X12.005Y-5.93
X12.005Y-6.43
X12.105Y-5.93
X12.105Y-6.43
X12.205Y-5.93
X12.205Y-6.43
X12.305Y-5.93
X12.305Y-6.43
T7
X11.6Y-5.5516
X11.6Y-5.65
X12.5Y-5.65
X12.5984Y-5.65
X11.5433Y-4.5512
X11.6417Y-4.5512
X11.855Y-8.345
X11.855Y-8.945
X11.955Y-8.345
X11.955Y-8.945
X12.055Y-8.345
X12.055Y-8.945
X12.155Y-8.345
X12.155Y-8.945
X12.255Y-8.345
X12.255Y-8.945
X12.355Y-8.345
X12.355Y-8.945
X12.455Y-8.345
X12.455Y-8.945
X12.555Y-8.345
X12.555Y-8.945
X12.655Y-8.345
X12.655Y-8.945
X12.755Y-8.345
X12.755Y-8.945
X12.855Y-8.345
X12.855Y-8.945
X12.955Y-8.345
X12.955Y-8.945
X13.055Y-8.345
X13.055Y-8.945
X13.155Y-8.345
X13.155Y-8.945
X12.1654Y-6.1811
X12.2638Y-6.1811
X10.516Y-4.582
X10.516Y-4.7789
X11.35Y-8.1
X11.4484Y-8.1
X9.52Y-4.465
X9.52Y-4.765
X9.62Y-4.465
X9.62Y-4.765
X9.72Y-4.465
X9.72Y-4.765
X9.82Y-4.465
X9.82Y-4.765
X9.92Y-4.465
X9.92Y-4.765
X10.02Y-4.465
X10.02Y-4.765
X10.12Y-4.465
X10.12Y-4.765
X11.64Y-4.7136
X11.64Y-4.812
X12.0016Y-4.55
X12.1Y-4.55
X9.35Y-6.9
X9.35Y-7.0969
X11.65Y-6.65
X11.65Y-6.7484
X10.33Y-4.5781
X10.33Y-4.775
X11.6Y-5.2
X11.6Y-5.2984
X11.4Y-7.5
X11.4984Y-7.5
X11.7516Y-4.55
X11.85Y-4.55
X8.35Y-6.9031
X8.35Y-7.1
X10.4Y-6.486
X10.4Y-6.5844
T8
X12.8Y-5.9
X12.9Y-5.9
X9.49Y-5.345
X9.59Y-5.345
X11.588Y-8.828
X11.588Y-8.928
T9
X8.645Y-4.125
X8.7434Y-4.125
X8.8419Y-4.125
X9.095Y-4.125
X9.1934Y-4.125
X9.2919Y-4.125
X7.9Y-4.1
X7.9984Y-4.1
X8.0969Y-4.1
X13.8Y-9.7768
X13.8984Y-9.7768
X13.9969Y-9.7768
X9.545Y-4.125
X9.6434Y-4.125
X9.7419Y-4.125
X9.995Y-4.125
X10.0934Y-4.125
X10.1919Y-4.125
T10
X13.3Y-7.35
X13.3Y-7.45
X13.4Y-7.35
X13.4Y-7.45
X11.705Y-6.06
X11.705Y-6.16
X11.805Y-6.06
X11.805Y-6.16
X11.905Y-6.06
X11.905Y-6.16
X12.005Y-6.06
X12.005Y-6.16
X9.77Y-4.915
X9.77Y-5.015
X9.87Y-4.915
X9.87Y-5.015
X11.82Y-4.76
X11.92Y-4.76
X12.02Y-4.76
X12.6507Y-6.3596
X12.7983Y-6.3596
X12.9459Y-6.3596
X11.825Y-5.185
X11.925Y-5.185
X12.025Y-5.185
X8.761Y-7.054
X8.7626Y-6.4831
X8.861Y-7.054
X8.9594Y-6.4831
X8.961Y-7.054
X12.45Y-7.95
X12.55Y-7.95
X11.705Y-6.26
X11.805Y-6.26
X11.905Y-6.26
X12.005Y-6.26
X9.05Y-4.45
X9.05Y-4.55
X9.05Y-4.65
X9.05Y-4.75
X9.15Y-4.45
X9.15Y-4.55
X9.15Y-4.65
X9.15Y-4.75
X12.535Y-6.125
X12.635Y-6.125
X12.735Y-6.125
X12.835Y-6.125
X12.935Y-6.125
X13.035Y-6.125
X8.0Y-4.5
X8.0Y-4.6
X8.1Y-4.5
X8.1Y-4.6
X14.6811Y-6.6252
X14.7795Y-6.6252
X15.9201Y-6.6169
X16.0185Y-6.6169
X11.83Y-5.61
X11.93Y-5.61
X12.03Y-5.61
X9.08Y-4.935
X9.08Y-5.035
X9.18Y-4.935
X9.18Y-5.035
X9.28Y-4.935
X9.28Y-5.035
X13.5Y-6.35
X13.5Y-6.45
X13.5Y-6.55
X13.5Y-6.65
T11
X11.055Y-4.375
X11.1731Y-4.375
X11.2912Y-4.375
X11.4093Y-4.375
X12.395Y-4.375
X12.5131Y-4.375
X12.6312Y-4.375
X10.495Y-4.375
X10.6131Y-4.375
X10.7312Y-4.375
X15.1764Y-6.7197
X15.2945Y-6.7197
X15.4126Y-6.7197
X15.5307Y-6.7197
X11.7283Y-4.374
X11.8465Y-4.374
X11.9646Y-4.374
X12.0827Y-4.374
T12
X11.4Y-8.35
X11.4Y-8.75
X9.75Y-5.544
X9.85Y-5.544
X9.95Y-5.544
X10.65Y-6.45
X10.75Y-6.45
X10.85Y-6.45
X11.6Y-7.0
X12.0Y-7.0
X11.195Y-6.445
X11.295Y-6.445
X11.395Y-6.445
X12.495Y-4.675
X12.595Y-4.675
X12.695Y-4.675
X10.4724Y-6.811
X10.4724Y-7.211
X12.245Y-4.675
X12.245Y-4.975
X10.292Y-5.54
X10.392Y-5.54
X10.492Y-5.54
X9.95Y-6.45
X10.05Y-6.45
X10.15Y-6.45
X10.9Y-5.5632
X11.0Y-5.5632
X11.1Y-5.5632
T13
X13.1388Y-5.1811
X13.2412Y-5.1889
X8.4138Y-5.1861
X8.5162Y-5.1939
X11.1738Y-5.1836
X11.2762Y-5.1914
X10.3838Y-5.1861
X10.4862Y-5.1939
T14
X13.045Y-4.097
X13.045Y-4.4612
X8.5471Y-7.6102
X8.5471Y-8.3877
X8.5471Y-8.6259
X8.5471Y-8.8622
X8.5471Y-9.0984
X10.9172Y-8.622
X10.9172Y-9.124
T16
X13.9173Y-10.6102
T18
X7.6575Y-4.2126
X7.6378Y-9.3504
X14.0256Y-9.3701
X13.9862Y-7.7461
X14.0059Y-4.2028
X7.6476Y-7.7362
T19
X14.502Y-8.1063
X15.3524Y-7.2559
X15.3524Y-8.9567
X16.2028Y-8.1063
T20
X14.6898Y-7.4783
X14.6898Y-8.7382
X15.9496Y-7.4783
X15.9496Y-8.7382
T7
G00X12.856Y-4.2289
M15
G01X12.856Y-4.1817
M16
G05
G00X13.0017Y-4.225
M15
G01X13.0883Y-4.225
M16
G05
G00X13.234Y-4.2289
M15
G01X13.234Y-4.1817
M16
G05
T10
G00X12.6448Y-6.5721
M15
G01X12.7235Y-6.5721
M16
G05
G00X12.6448Y-6.9344
M15
G01X12.7235Y-6.9344
M16
G05
G00X12.8731Y-6.5721
M15
G01X12.9518Y-6.5721
M16
G05
G00X12.8731Y-6.9344
M15
G01X12.9518Y-6.9344
M16
G05
T15
G00X8.5854Y-6.7568
M15
G01X8.5854Y-6.7607
M16
G05
G00X9.1366Y-6.7568
M15
G01X9.1366Y-6.7607
M16
G05
T17
G00X12.5503Y-6.7473
M15
G01X12.5503Y-6.7592
M16
G05
G00X13.0463Y-6.7473
M15
G01X13.0463Y-6.7592
M16
G05
T0
M30
