%TF.GenerationSoftware,KiCad,Pcbnew,5.1.7-a382d34a8~88~ubuntu20.04.1*%
%TF.CreationDate,2021-05-08T15:19:39+02:00*%
%TF.ProjectId,OpenCelluloid,4f70656e-4365-46c6-9c75-6c6f69642e6b,rev?*%
%TF.SameCoordinates,Original*%
%TF.FileFunction,Legend,Top*%
%TF.FilePolarity,Positive*%
%FSLAX46Y46*%
G04 Gerber Fmt 4.6, Leading zero omitted, Abs format (unit mm)*
G04 Created by KiCad (PCBNEW 5.1.7-a382d34a8~88~ubuntu20.04.1) date 2021-05-08 15:19:39*
%MOMM*%
%LPD*%
G01*
G04 APERTURE LIST*
%ADD10C,0.150000*%
%ADD11C,0.120000*%
%ADD12C,0.050000*%
%ADD13C,0.228600*%
%ADD14C,0.254000*%
%ADD15C,0.190500*%
G04 APERTURE END LIST*
D10*
X210749999Y-252782142D02*
X209321428Y-252782142D01*
X209321428Y-249782142D01*
X212178571Y-252782142D02*
X211892857Y-252639285D01*
X211749999Y-252496428D01*
X211607142Y-252210714D01*
X211607142Y-251353571D01*
X211749999Y-251067857D01*
X211892857Y-250925000D01*
X212178571Y-250782142D01*
X212607142Y-250782142D01*
X212892857Y-250925000D01*
X213035714Y-251067857D01*
X213178571Y-251353571D01*
X213178571Y-252210714D01*
X213035714Y-252496428D01*
X212892857Y-252639285D01*
X212607142Y-252782142D01*
X212178571Y-252782142D01*
X214892857Y-252782142D02*
X214607142Y-252639285D01*
X214464285Y-252496428D01*
X214321428Y-252210714D01*
X214321428Y-251353571D01*
X214464285Y-251067857D01*
X214607142Y-250925000D01*
X214892857Y-250782142D01*
X215321428Y-250782142D01*
X215607142Y-250925000D01*
X215749999Y-251067857D01*
X215892857Y-251353571D01*
X215892857Y-252210714D01*
X215749999Y-252496428D01*
X215607142Y-252639285D01*
X215321428Y-252782142D01*
X214892857Y-252782142D01*
X217178571Y-252782142D02*
X217178571Y-249782142D01*
X217464285Y-251639285D02*
X218321428Y-252782142D01*
X218321428Y-250782142D02*
X217178571Y-251925000D01*
X221607142Y-250782142D02*
X222178571Y-252782142D01*
X222749999Y-251353571D01*
X223321428Y-252782142D01*
X223892857Y-250782142D01*
X225035714Y-252782142D02*
X225035714Y-250782142D01*
X225035714Y-249782142D02*
X224892857Y-249925000D01*
X225035714Y-250067857D01*
X225178571Y-249925000D01*
X225035714Y-249782142D01*
X225035714Y-250067857D01*
X226035714Y-250782142D02*
X227178571Y-250782142D01*
X226464285Y-249782142D02*
X226464285Y-252353571D01*
X226607142Y-252639285D01*
X226892857Y-252782142D01*
X227178571Y-252782142D01*
X228178571Y-252782142D02*
X228178571Y-249782142D01*
X229464285Y-252782142D02*
X229464285Y-251210714D01*
X229321428Y-250925000D01*
X229035714Y-250782142D01*
X228607142Y-250782142D01*
X228321428Y-250925000D01*
X228178571Y-251067857D01*
X230892857Y-252782142D02*
X230892857Y-250782142D01*
X230892857Y-249782142D02*
X230749999Y-249925000D01*
X230892857Y-250067857D01*
X231035714Y-249925000D01*
X230892857Y-249782142D01*
X230892857Y-250067857D01*
X232321428Y-250782142D02*
X232321428Y-252782142D01*
X232321428Y-251067857D02*
X232464285Y-250925000D01*
X232749999Y-250782142D01*
X233178571Y-250782142D01*
X233464285Y-250925000D01*
X233607142Y-251210714D01*
X233607142Y-252782142D01*
X235035714Y-252496428D02*
X235178571Y-252639285D01*
X235035714Y-252782142D01*
X234892857Y-252639285D01*
X235035714Y-252496428D01*
X235035714Y-252782142D01*
X238464285Y-249782142D02*
X239178571Y-252782142D01*
X239749999Y-250639285D01*
X240321428Y-252782142D01*
X241035714Y-249782142D01*
X242178571Y-252782142D02*
X242178571Y-250782142D01*
X242178571Y-249782142D02*
X242035714Y-249925000D01*
X242178571Y-250067857D01*
X242321428Y-249925000D01*
X242178571Y-249782142D01*
X242178571Y-250067857D01*
X243178571Y-250782142D02*
X244321428Y-250782142D01*
X243607142Y-249782142D02*
X243607142Y-252353571D01*
X243749999Y-252639285D01*
X244035714Y-252782142D01*
X244321428Y-252782142D01*
X245321428Y-252782142D02*
X245321428Y-249782142D01*
X246607142Y-252782142D02*
X246607142Y-251210714D01*
X246464285Y-250925000D01*
X246178571Y-250782142D01*
X245749999Y-250782142D01*
X245464285Y-250925000D01*
X245321428Y-251067857D01*
X248035714Y-252782142D02*
X248035714Y-250782142D01*
X248035714Y-249782142D02*
X247892857Y-249925000D01*
X248035714Y-250067857D01*
X248178571Y-249925000D01*
X248035714Y-249782142D01*
X248035714Y-250067857D01*
X249464285Y-250782142D02*
X249464285Y-252782142D01*
X249464285Y-251067857D02*
X249607142Y-250925000D01*
X249892857Y-250782142D01*
X250321428Y-250782142D01*
X250607142Y-250925000D01*
X250749999Y-251210714D01*
X250749999Y-252782142D01*
X254464285Y-252782142D02*
X254464285Y-250782142D01*
X254464285Y-249782142D02*
X254321428Y-249925000D01*
X254464285Y-250067857D01*
X254607142Y-249925000D01*
X254464285Y-249782142D01*
X254464285Y-250067857D01*
X255749999Y-252639285D02*
X256035714Y-252782142D01*
X256607142Y-252782142D01*
X256892857Y-252639285D01*
X257035714Y-252353571D01*
X257035714Y-252210714D01*
X256892857Y-251925000D01*
X256607142Y-251782142D01*
X256178571Y-251782142D01*
X255892857Y-251639285D01*
X255749999Y-251353571D01*
X255749999Y-251210714D01*
X255892857Y-250925000D01*
X256178571Y-250782142D01*
X256607142Y-250782142D01*
X256892857Y-250925000D01*
X260178571Y-250782142D02*
X261321428Y-250782142D01*
X260607142Y-249782142D02*
X260607142Y-252353571D01*
X260749999Y-252639285D01*
X261035714Y-252782142D01*
X261321428Y-252782142D01*
X262321428Y-252782142D02*
X262321428Y-249782142D01*
X263607142Y-252782142D02*
X263607142Y-251210714D01*
X263464285Y-250925000D01*
X263178571Y-250782142D01*
X262749999Y-250782142D01*
X262464285Y-250925000D01*
X262321428Y-251067857D01*
X266178571Y-252639285D02*
X265892857Y-252782142D01*
X265321428Y-252782142D01*
X265035714Y-252639285D01*
X264892857Y-252353571D01*
X264892857Y-251210714D01*
X265035714Y-250925000D01*
X265321428Y-250782142D01*
X265892857Y-250782142D01*
X266178571Y-250925000D01*
X266321428Y-251210714D01*
X266321428Y-251496428D01*
X264892857Y-251782142D01*
X269464285Y-250782142D02*
X270607142Y-250782142D01*
X269892857Y-252782142D02*
X269892857Y-250210714D01*
X270035714Y-249925000D01*
X270321428Y-249782142D01*
X270607142Y-249782142D01*
X272035714Y-252782142D02*
X271750000Y-252639285D01*
X271607142Y-252496428D01*
X271464285Y-252210714D01*
X271464285Y-251353571D01*
X271607142Y-251067857D01*
X271750000Y-250925000D01*
X272035714Y-250782142D01*
X272464285Y-250782142D01*
X272750000Y-250925000D01*
X272892857Y-251067857D01*
X273035714Y-251353571D01*
X273035714Y-252210714D01*
X272892857Y-252496428D01*
X272750000Y-252639285D01*
X272464285Y-252782142D01*
X272035714Y-252782142D01*
X275607142Y-250782142D02*
X275607142Y-252782142D01*
X274321428Y-250782142D02*
X274321428Y-252353571D01*
X274464285Y-252639285D01*
X274750000Y-252782142D01*
X275178571Y-252782142D01*
X275464285Y-252639285D01*
X275607142Y-252496428D01*
X277035714Y-250782142D02*
X277035714Y-252782142D01*
X277035714Y-251067857D02*
X277178571Y-250925000D01*
X277464285Y-250782142D01*
X277892857Y-250782142D01*
X278178571Y-250925000D01*
X278321428Y-251210714D01*
X278321428Y-252782142D01*
X279321428Y-250782142D02*
X280464285Y-250782142D01*
X279750000Y-249782142D02*
X279750000Y-252353571D01*
X279892857Y-252639285D01*
X280178571Y-252782142D01*
X280464285Y-252782142D01*
X282750000Y-252782142D02*
X282750000Y-251210714D01*
X282607142Y-250925000D01*
X282321428Y-250782142D01*
X281750000Y-250782142D01*
X281464285Y-250925000D01*
X282750000Y-252639285D02*
X282464285Y-252782142D01*
X281750000Y-252782142D01*
X281464285Y-252639285D01*
X281321428Y-252353571D01*
X281321428Y-252067857D01*
X281464285Y-251782142D01*
X281750000Y-251639285D01*
X282464285Y-251639285D01*
X282750000Y-251496428D01*
X284178571Y-252782142D02*
X284178571Y-250782142D01*
X284178571Y-249782142D02*
X284035714Y-249925000D01*
X284178571Y-250067857D01*
X284321428Y-249925000D01*
X284178571Y-249782142D01*
X284178571Y-250067857D01*
X285607142Y-250782142D02*
X285607142Y-252782142D01*
X285607142Y-251067857D02*
X285750000Y-250925000D01*
X286035714Y-250782142D01*
X286464285Y-250782142D01*
X286750000Y-250925000D01*
X286892857Y-251210714D01*
X286892857Y-252782142D01*
X291035714Y-252782142D02*
X290750000Y-252639285D01*
X290607142Y-252496428D01*
X290464285Y-252210714D01*
X290464285Y-251353571D01*
X290607142Y-251067857D01*
X290750000Y-250925000D01*
X291035714Y-250782142D01*
X291464285Y-250782142D01*
X291750000Y-250925000D01*
X291892857Y-251067857D01*
X292035714Y-251353571D01*
X292035714Y-252210714D01*
X291892857Y-252496428D01*
X291750000Y-252639285D01*
X291464285Y-252782142D01*
X291035714Y-252782142D01*
X292892857Y-250782142D02*
X294035714Y-250782142D01*
X293321428Y-252782142D02*
X293321428Y-250210714D01*
X293464285Y-249925000D01*
X293750000Y-249782142D01*
X294035714Y-249782142D01*
X298607142Y-250782142D02*
X298607142Y-253210714D01*
X298464285Y-253496428D01*
X298321428Y-253639285D01*
X298035714Y-253782142D01*
X297607142Y-253782142D01*
X297321428Y-253639285D01*
X298607142Y-252639285D02*
X298321428Y-252782142D01*
X297750000Y-252782142D01*
X297464285Y-252639285D01*
X297321428Y-252496428D01*
X297178571Y-252210714D01*
X297178571Y-251353571D01*
X297321428Y-251067857D01*
X297464285Y-250925000D01*
X297750000Y-250782142D01*
X298321428Y-250782142D01*
X298607142Y-250925000D01*
X300464285Y-252782142D02*
X300178571Y-252639285D01*
X300035714Y-252496428D01*
X299892857Y-252210714D01*
X299892857Y-251353571D01*
X300035714Y-251067857D01*
X300178571Y-250925000D01*
X300464285Y-250782142D01*
X300892857Y-250782142D01*
X301178571Y-250925000D01*
X301321428Y-251067857D01*
X301464285Y-251353571D01*
X301464285Y-252210714D01*
X301321428Y-252496428D01*
X301178571Y-252639285D01*
X300892857Y-252782142D01*
X300464285Y-252782142D01*
X303178571Y-252782142D02*
X302892857Y-252639285D01*
X302750000Y-252496428D01*
X302607142Y-252210714D01*
X302607142Y-251353571D01*
X302750000Y-251067857D01*
X302892857Y-250925000D01*
X303178571Y-250782142D01*
X303607142Y-250782142D01*
X303892857Y-250925000D01*
X304035714Y-251067857D01*
X304178571Y-251353571D01*
X304178571Y-252210714D01*
X304035714Y-252496428D01*
X303892857Y-252639285D01*
X303607142Y-252782142D01*
X303178571Y-252782142D01*
X306750000Y-252782142D02*
X306750000Y-249782142D01*
X306750000Y-252639285D02*
X306464285Y-252782142D01*
X305892857Y-252782142D01*
X305607142Y-252639285D01*
X305464285Y-252496428D01*
X305321428Y-252210714D01*
X305321428Y-251353571D01*
X305464285Y-251067857D01*
X305607142Y-250925000D01*
X305892857Y-250782142D01*
X306464285Y-250782142D01*
X306750000Y-250925000D01*
X308321428Y-252639285D02*
X308321428Y-252782142D01*
X308178571Y-253067857D01*
X308035714Y-253210714D01*
X205035714Y-257432142D02*
X205035714Y-255860714D01*
X204892857Y-255575000D01*
X204607142Y-255432142D01*
X204035714Y-255432142D01*
X203750000Y-255575000D01*
X205035714Y-257289285D02*
X204750000Y-257432142D01*
X204035714Y-257432142D01*
X203750000Y-257289285D01*
X203607142Y-257003571D01*
X203607142Y-256717857D01*
X203750000Y-256432142D01*
X204035714Y-256289285D01*
X204750000Y-256289285D01*
X205035714Y-256146428D01*
X206464285Y-255432142D02*
X206464285Y-257432142D01*
X206464285Y-255717857D02*
X206607142Y-255575000D01*
X206892857Y-255432142D01*
X207321428Y-255432142D01*
X207607142Y-255575000D01*
X207750000Y-255860714D01*
X207750000Y-257432142D01*
X210464285Y-257432142D02*
X210464285Y-254432142D01*
X210464285Y-257289285D02*
X210178571Y-257432142D01*
X209607142Y-257432142D01*
X209321428Y-257289285D01*
X209178571Y-257146428D01*
X209035714Y-256860714D01*
X209035714Y-256003571D01*
X209178571Y-255717857D01*
X209321428Y-255575000D01*
X209607142Y-255432142D01*
X210178571Y-255432142D01*
X210464285Y-255575000D01*
X214178571Y-257432142D02*
X214178571Y-255432142D01*
X214178571Y-254432142D02*
X214035714Y-254575000D01*
X214178571Y-254717857D01*
X214321428Y-254575000D01*
X214178571Y-254432142D01*
X214178571Y-254717857D01*
X215178571Y-255432142D02*
X216321428Y-255432142D01*
X215607142Y-254432142D02*
X215607142Y-257003571D01*
X215750000Y-257289285D01*
X216035714Y-257432142D01*
X216321428Y-257432142D01*
X219321428Y-255432142D02*
X219892857Y-257432142D01*
X220464285Y-256003571D01*
X221035714Y-257432142D01*
X221607142Y-255432142D01*
X222750000Y-257432142D02*
X222750000Y-255432142D01*
X222750000Y-254432142D02*
X222607142Y-254575000D01*
X222750000Y-254717857D01*
X222892857Y-254575000D01*
X222750000Y-254432142D01*
X222750000Y-254717857D01*
X224607142Y-257432142D02*
X224321428Y-257289285D01*
X224178571Y-257003571D01*
X224178571Y-254432142D01*
X226178571Y-257432142D02*
X225892857Y-257289285D01*
X225750000Y-257003571D01*
X225750000Y-254432142D01*
X230750000Y-257289285D02*
X230464285Y-257432142D01*
X229892857Y-257432142D01*
X229607142Y-257289285D01*
X229464285Y-257003571D01*
X229464285Y-255860714D01*
X229607142Y-255575000D01*
X229892857Y-255432142D01*
X230464285Y-255432142D01*
X230750000Y-255575000D01*
X230892857Y-255860714D01*
X230892857Y-256146428D01*
X229464285Y-256432142D01*
X231892857Y-255432142D02*
X232607142Y-257432142D01*
X233321428Y-255432142D01*
X235607142Y-257289285D02*
X235321428Y-257432142D01*
X234750000Y-257432142D01*
X234464285Y-257289285D01*
X234321428Y-257003571D01*
X234321428Y-255860714D01*
X234464285Y-255575000D01*
X234750000Y-255432142D01*
X235321428Y-255432142D01*
X235607142Y-255575000D01*
X235750000Y-255860714D01*
X235750000Y-256146428D01*
X234321428Y-256432142D01*
X237035714Y-257432142D02*
X237035714Y-255432142D01*
X237035714Y-256003571D02*
X237178571Y-255717857D01*
X237321428Y-255575000D01*
X237607142Y-255432142D01*
X237892857Y-255432142D01*
X241178571Y-257432142D02*
X241178571Y-254432142D01*
X241178571Y-255575000D02*
X241464285Y-255432142D01*
X242035714Y-255432142D01*
X242321428Y-255575000D01*
X242464285Y-255717857D01*
X242607142Y-256003571D01*
X242607142Y-256860714D01*
X242464285Y-257146428D01*
X242321428Y-257289285D01*
X242035714Y-257432142D01*
X241464285Y-257432142D01*
X241178571Y-257289285D01*
X245178571Y-255432142D02*
X245178571Y-257432142D01*
X243892857Y-255432142D02*
X243892857Y-257003571D01*
X244035714Y-257289285D01*
X244321428Y-257432142D01*
X244750000Y-257432142D01*
X245035714Y-257289285D01*
X245178571Y-257146428D01*
X246607142Y-257432142D02*
X246607142Y-254432142D01*
X246607142Y-255575000D02*
X246892857Y-255432142D01*
X247464285Y-255432142D01*
X247750000Y-255575000D01*
X247892857Y-255717857D01*
X248035714Y-256003571D01*
X248035714Y-256860714D01*
X247892857Y-257146428D01*
X247750000Y-257289285D01*
X247464285Y-257432142D01*
X246892857Y-257432142D01*
X246607142Y-257289285D01*
X249321428Y-257432142D02*
X249321428Y-254432142D01*
X249321428Y-255575000D02*
X249607142Y-255432142D01*
X250178571Y-255432142D01*
X250464285Y-255575000D01*
X250607142Y-255717857D01*
X250750000Y-256003571D01*
X250750000Y-256860714D01*
X250607142Y-257146428D01*
X250464285Y-257289285D01*
X250178571Y-257432142D01*
X249607142Y-257432142D01*
X249321428Y-257289285D01*
X252464285Y-257432142D02*
X252178571Y-257289285D01*
X252035714Y-257003571D01*
X252035714Y-254432142D01*
X254750000Y-257289285D02*
X254464285Y-257432142D01*
X253892857Y-257432142D01*
X253607142Y-257289285D01*
X253464285Y-257003571D01*
X253464285Y-255860714D01*
X253607142Y-255575000D01*
X253892857Y-255432142D01*
X254464285Y-255432142D01*
X254750000Y-255575000D01*
X254892857Y-255860714D01*
X254892857Y-256146428D01*
X253464285Y-256432142D01*
X259750000Y-255432142D02*
X259750000Y-257432142D01*
X258464285Y-255432142D02*
X258464285Y-257003571D01*
X258607142Y-257289285D01*
X258892857Y-257432142D01*
X259321428Y-257432142D01*
X259607142Y-257289285D01*
X259750000Y-257146428D01*
X261178571Y-255432142D02*
X261178571Y-258432142D01*
X261178571Y-255575000D02*
X261464285Y-255432142D01*
X262035714Y-255432142D01*
X262321428Y-255575000D01*
X262464285Y-255717857D01*
X262607142Y-256003571D01*
X262607142Y-256860714D01*
X262464285Y-257146428D01*
X262321428Y-257289285D01*
X262035714Y-257432142D01*
X261464285Y-257432142D01*
X261178571Y-257289285D01*
X264035714Y-257289285D02*
X264035714Y-257432142D01*
X263892857Y-257717857D01*
X263750000Y-257860714D01*
X267607142Y-257432142D02*
X267607142Y-255432142D01*
X267607142Y-254432142D02*
X267464285Y-254575000D01*
X267607142Y-254717857D01*
X267750000Y-254575000D01*
X267607142Y-254432142D01*
X267607142Y-254717857D01*
X268607142Y-255432142D02*
X269750000Y-255432142D01*
X269035714Y-257432142D02*
X269035714Y-254860714D01*
X269178571Y-254575000D01*
X269464285Y-254432142D01*
X269750000Y-254432142D01*
X272607142Y-255432142D02*
X273750000Y-255432142D01*
X273035714Y-254432142D02*
X273035714Y-257003571D01*
X273178571Y-257289285D01*
X273464285Y-257432142D01*
X273750000Y-257432142D01*
X274750000Y-257432142D02*
X274750000Y-254432142D01*
X276035714Y-257432142D02*
X276035714Y-255860714D01*
X275892857Y-255575000D01*
X275607142Y-255432142D01*
X275178571Y-255432142D01*
X274892857Y-255575000D01*
X274750000Y-255717857D01*
X277892857Y-257432142D02*
X277607142Y-257289285D01*
X277464285Y-257146428D01*
X277321428Y-256860714D01*
X277321428Y-256003571D01*
X277464285Y-255717857D01*
X277607142Y-255575000D01*
X277892857Y-255432142D01*
X278321428Y-255432142D01*
X278607142Y-255575000D01*
X278750000Y-255717857D01*
X278892857Y-256003571D01*
X278892857Y-256860714D01*
X278750000Y-257146428D01*
X278607142Y-257289285D01*
X278321428Y-257432142D01*
X277892857Y-257432142D01*
X281464285Y-255432142D02*
X281464285Y-257432142D01*
X280178571Y-255432142D02*
X280178571Y-257003571D01*
X280321428Y-257289285D01*
X280607142Y-257432142D01*
X281035714Y-257432142D01*
X281321428Y-257289285D01*
X281464285Y-257146428D01*
X284892857Y-255432142D02*
X285464285Y-257432142D01*
X286035714Y-256003571D01*
X286607142Y-257432142D01*
X287178571Y-255432142D01*
X288321428Y-257432142D02*
X288321428Y-255432142D01*
X288321428Y-254432142D02*
X288178571Y-254575000D01*
X288321428Y-254717857D01*
X288464285Y-254575000D01*
X288321428Y-254432142D01*
X288321428Y-254717857D01*
X290178571Y-257432142D02*
X289892857Y-257289285D01*
X289750000Y-257003571D01*
X289750000Y-254432142D01*
X290892857Y-255432142D02*
X292035714Y-255432142D01*
X291321428Y-254432142D02*
X291321428Y-257003571D01*
X291464285Y-257289285D01*
X291750000Y-257432142D01*
X292035714Y-257432142D01*
X296464285Y-257289285D02*
X296178571Y-257432142D01*
X295607142Y-257432142D01*
X295321428Y-257289285D01*
X295178571Y-257003571D01*
X295178571Y-255860714D01*
X295321428Y-255575000D01*
X295607142Y-255432142D01*
X296178571Y-255432142D01*
X296464285Y-255575000D01*
X296607142Y-255860714D01*
X296607142Y-256146428D01*
X295178571Y-256432142D01*
X297607142Y-255432142D02*
X298321428Y-257432142D01*
X299035714Y-255432142D01*
X301321428Y-257289285D02*
X301035714Y-257432142D01*
X300464285Y-257432142D01*
X300178571Y-257289285D01*
X300035714Y-257003571D01*
X300035714Y-255860714D01*
X300178571Y-255575000D01*
X300464285Y-255432142D01*
X301035714Y-255432142D01*
X301321428Y-255575000D01*
X301464285Y-255860714D01*
X301464285Y-256146428D01*
X300035714Y-256432142D01*
X302750000Y-257432142D02*
X302750000Y-255432142D01*
X302750000Y-256003571D02*
X302892857Y-255717857D01*
X303035714Y-255575000D01*
X303321428Y-255432142D01*
X303607142Y-255432142D01*
X308178571Y-257432142D02*
X308178571Y-254432142D01*
X308178571Y-257289285D02*
X307892857Y-257432142D01*
X307321428Y-257432142D01*
X307035714Y-257289285D01*
X306892857Y-257146428D01*
X306750000Y-256860714D01*
X306750000Y-256003571D01*
X306892857Y-255717857D01*
X307035714Y-255575000D01*
X307321428Y-255432142D01*
X307892857Y-255432142D01*
X308178571Y-255575000D01*
X309607142Y-257432142D02*
X309607142Y-255432142D01*
X309607142Y-254432142D02*
X309464285Y-254575000D01*
X309607142Y-254717857D01*
X309750000Y-254575000D01*
X309607142Y-254432142D01*
X309607142Y-254717857D01*
X312321428Y-255432142D02*
X312321428Y-257860714D01*
X312178571Y-258146428D01*
X312035714Y-258289285D01*
X311750000Y-258432142D01*
X311321428Y-258432142D01*
X311035714Y-258289285D01*
X312321428Y-257289285D02*
X312035714Y-257432142D01*
X311464285Y-257432142D01*
X311178571Y-257289285D01*
X311035714Y-257146428D01*
X310892857Y-256860714D01*
X310892857Y-256003571D01*
X311035714Y-255717857D01*
X311178571Y-255575000D01*
X311464285Y-255432142D01*
X312035714Y-255432142D01*
X312321428Y-255575000D01*
X313750000Y-257146428D02*
X313892857Y-257289285D01*
X313750000Y-257432142D01*
X313607142Y-257289285D01*
X313750000Y-257146428D01*
X313750000Y-257432142D01*
D11*
X388850000Y-291000000D02*
X388850000Y-230600000D01*
D12*
X413850000Y-205900000D02*
G75*
G03*
X413850000Y-205900000I-24600000J0D01*
G01*
D11*
X377507359Y-102757359D02*
G75*
G02*
X381750000Y-101000000I4242641J-4242641D01*
G01*
X381750000Y-103000000D02*
X381750000Y-101000000D01*
X377750000Y-103000000D02*
X377750000Y-101000000D01*
X381750000Y-290656853D02*
G75*
G02*
X377750001Y-288999999I0J5656853D01*
G01*
X381750000Y-289000000D02*
X381750000Y-291000000D01*
X377750000Y-289000000D02*
X377750000Y-291000000D01*
X364750000Y-289000000D02*
X419750000Y-289000000D01*
X364750000Y-103000000D02*
X419750000Y-103000000D01*
%TO.C,J16*%
X409120000Y-225950000D02*
X369120000Y-225950000D01*
X379120000Y-225950000D02*
X409120000Y-225950000D01*
X409120000Y-185950000D02*
X369120000Y-185950000D01*
X369120000Y-185950000D02*
X369120000Y-225950000D01*
X409120000Y-185950000D02*
X409120000Y-225950000D01*
X397915000Y-162650000D02*
X397915000Y-171770000D01*
X397915000Y-171770000D02*
X395131767Y-171770000D01*
X396915000Y-161650000D02*
X397915000Y-162650000D01*
X382045000Y-162650000D02*
X383045000Y-161650000D01*
X382045000Y-171770000D02*
X382045000Y-162650000D01*
X382045000Y-171770000D02*
X384470000Y-171770000D01*
X386490000Y-171770000D02*
X387828233Y-171770000D01*
X383045000Y-161650000D02*
X396915000Y-161650000D01*
X389131767Y-171770000D02*
X390828233Y-171770000D01*
X392131767Y-171770000D02*
X393828233Y-171770000D01*
X415050000Y-205900000D02*
G75*
G03*
X415050000Y-205900000I-25100000J0D01*
G01*
X405950000Y-189900000D02*
X405950000Y-221900000D01*
X405950000Y-189900000D02*
X373950000Y-189900000D01*
X373950000Y-189900000D02*
X373950000Y-221900000D01*
X373950000Y-221900000D02*
X405950000Y-221900000D01*
X368450000Y-205900000D02*
X411450000Y-205900000D01*
X389950000Y-184400000D02*
X389950000Y-227400000D01*
X393950000Y-177900000D02*
X415850000Y-177900000D01*
X415850000Y-177900000D02*
X415850000Y-234000000D01*
X415850000Y-234000000D02*
X364050000Y-234000000D01*
X364050000Y-234000000D02*
X364050000Y-177900000D01*
X364050000Y-177900000D02*
X385950000Y-177900000D01*
X376150000Y-165830000D02*
X376150000Y-166580000D01*
X372150000Y-165830000D02*
X370350000Y-165830000D01*
X372150000Y-166580000D02*
X372150000Y-165830000D01*
X370350000Y-166580000D02*
X372150000Y-166580000D01*
X377200000Y-171030000D02*
X374150000Y-171030000D01*
X370050000Y-165530000D02*
X370050000Y-166780000D01*
X377950000Y-168080000D02*
X377200000Y-168080000D01*
X371100000Y-168080000D02*
X371100000Y-169420000D01*
X374150000Y-171030000D02*
X372160000Y-171030000D01*
X377950000Y-165830000D02*
X376150000Y-165830000D01*
X377950000Y-166580000D02*
X377950000Y-165830000D01*
X376150000Y-166580000D02*
X377950000Y-166580000D01*
X370350000Y-168080000D02*
X371100000Y-168080000D01*
X371300000Y-165530000D02*
X370050000Y-165530000D01*
X370350000Y-165830000D02*
X370350000Y-166580000D01*
X374650000Y-165830000D02*
X373650000Y-165830000D01*
X374650000Y-166580000D02*
X374650000Y-165830000D01*
X373650000Y-166580000D02*
X374650000Y-166580000D01*
X373650000Y-165830000D02*
X373650000Y-166580000D01*
X377200000Y-168080000D02*
X377200000Y-171030000D01*
X377960000Y-165820000D02*
X370340000Y-165820000D01*
X377960000Y-171790000D02*
X377960000Y-165820000D01*
X370340000Y-171790000D02*
X377960000Y-171790000D01*
X370340000Y-165820000D02*
X370340000Y-171790000D01*
X407620000Y-165620000D02*
X407620000Y-166370000D01*
X403620000Y-165620000D02*
X401820000Y-165620000D01*
X403620000Y-166370000D02*
X403620000Y-165620000D01*
X401820000Y-166370000D02*
X403620000Y-166370000D01*
X408670000Y-170820000D02*
X405620000Y-170820000D01*
X401520000Y-165320000D02*
X401520000Y-166570000D01*
X409420000Y-167870000D02*
X408670000Y-167870000D01*
X402570000Y-167870000D02*
X402570000Y-169210000D01*
X405620000Y-170820000D02*
X403630000Y-170820000D01*
X409420000Y-165620000D02*
X407620000Y-165620000D01*
X409420000Y-166370000D02*
X409420000Y-165620000D01*
X407620000Y-166370000D02*
X409420000Y-166370000D01*
X401820000Y-167870000D02*
X402570000Y-167870000D01*
X402770000Y-165320000D02*
X401520000Y-165320000D01*
X401820000Y-165620000D02*
X401820000Y-166370000D01*
X406120000Y-165620000D02*
X405120000Y-165620000D01*
X406120000Y-166370000D02*
X406120000Y-165620000D01*
X405120000Y-166370000D02*
X406120000Y-166370000D01*
X405120000Y-165620000D02*
X405120000Y-166370000D01*
X408670000Y-167870000D02*
X408670000Y-170820000D01*
X409430000Y-165610000D02*
X401810000Y-165610000D01*
X409430000Y-171580000D02*
X409430000Y-165610000D01*
X401810000Y-171580000D02*
X409430000Y-171580000D01*
X401810000Y-165610000D02*
X401810000Y-171580000D01*
%TO.C,J15*%
X304551767Y-112190000D02*
X306248233Y-112190000D01*
X301551767Y-112190000D02*
X303248233Y-112190000D01*
X298910000Y-112190000D02*
X300248233Y-112190000D01*
X310335000Y-112190000D02*
X307551767Y-112190000D01*
X294465000Y-112190000D02*
X296890000Y-112190000D01*
X310335000Y-103070000D02*
X310335000Y-112190000D01*
X309335000Y-102070000D02*
X310335000Y-103070000D01*
X295465000Y-102070000D02*
X309335000Y-102070000D01*
X294465000Y-103070000D02*
X295465000Y-102070000D01*
X294465000Y-112190000D02*
X294465000Y-103070000D01*
%TO.C,Murata-Ceramic-Capacitor-50v1-22uF1*%
X306719000Y-114650000D02*
X305461000Y-114650000D01*
X306719000Y-116490000D02*
X305461000Y-116490000D01*
%TO.C,Murata-Ceramic-Capacitor-50v1-22uF6*%
X296576000Y-121603800D02*
X296576000Y-120345800D01*
X294736000Y-121603800D02*
X294736000Y-120345800D01*
%TO.C,U7*%
X284696000Y-186198800D02*
X284696000Y-239198800D01*
X209696000Y-186198800D02*
X209696000Y-239198800D01*
X209696000Y-239198800D02*
X284696000Y-239198800D01*
X209696000Y-186198800D02*
X284696000Y-186198800D01*
%TO.C,U15*%
X258438000Y-122361000D02*
X258438000Y-112081000D01*
X240418000Y-122361000D02*
X258438000Y-122361000D01*
X240418000Y-112081000D02*
X240418000Y-122361000D01*
X258438000Y-112081000D02*
X240418000Y-112081000D01*
X258378000Y-119871000D02*
X258378000Y-118221000D01*
X240478000Y-119871000D02*
X258378000Y-119871000D01*
X240478000Y-114571000D02*
X240478000Y-119871000D01*
X258378000Y-114571000D02*
X240478000Y-114571000D01*
X258378000Y-116221000D02*
X258378000Y-114571000D01*
X258378000Y-118221000D02*
G75*
G02*
X258378000Y-116221000I0J1000000D01*
G01*
%TO.C,U14*%
X352300000Y-264920000D02*
X354900000Y-264920000D01*
X354450000Y-261480000D02*
X350870000Y-261480000D01*
X354780000Y-261810000D02*
X354450000Y-261480000D01*
D13*
%TO.C,U12*%
X311531000Y-154432000D02*
G75*
G03*
X311531000Y-154432000I-254000J0D01*
G01*
X312801000Y-155702000D02*
G75*
G03*
X312801000Y-155702000I-254000J0D01*
G01*
X312801000Y-153162000D02*
G75*
G03*
X312801000Y-153162000I-254000J0D01*
G01*
X293497000Y-164592000D02*
X313817000Y-164592000D01*
X313817000Y-164592000D02*
X313817000Y-149352000D01*
X313817000Y-149352000D02*
X293497000Y-149352000D01*
X293497000Y-149352000D02*
X293497000Y-164592000D01*
D11*
%TO.C,U11*%
X216733000Y-102025000D02*
X216733000Y-103275000D01*
X217983000Y-102025000D02*
X216733000Y-102025000D01*
X226383000Y-107525000D02*
X222083000Y-107525000D01*
X226383000Y-104575000D02*
X226383000Y-107525000D01*
X227133000Y-104575000D02*
X226383000Y-104575000D01*
X217783000Y-107525000D02*
X222083000Y-107525000D01*
X217783000Y-104575000D02*
X217783000Y-107525000D01*
X217033000Y-104575000D02*
X217783000Y-104575000D01*
X227133000Y-102325000D02*
X225333000Y-102325000D01*
X227133000Y-103075000D02*
X227133000Y-102325000D01*
X225333000Y-103075000D02*
X227133000Y-103075000D01*
X225333000Y-102325000D02*
X225333000Y-103075000D01*
X218833000Y-102325000D02*
X217033000Y-102325000D01*
X218833000Y-103075000D02*
X218833000Y-102325000D01*
X217033000Y-103075000D02*
X218833000Y-103075000D01*
X217033000Y-102325000D02*
X217033000Y-103075000D01*
X223833000Y-102325000D02*
X220333000Y-102325000D01*
X223833000Y-103075000D02*
X223833000Y-102325000D01*
X220333000Y-103075000D02*
X223833000Y-103075000D01*
X220333000Y-102325000D02*
X220333000Y-103075000D01*
X227143000Y-102315000D02*
X217023000Y-102315000D01*
X227143000Y-108285000D02*
X227143000Y-102315000D01*
X217023000Y-108285000D02*
X227143000Y-108285000D01*
X217023000Y-102315000D02*
X217023000Y-108285000D01*
%TO.C,U10*%
X335527000Y-228643000D02*
X335527000Y-210523000D01*
X299727000Y-228643000D02*
X335527000Y-228643000D01*
X299727000Y-210523000D02*
X299727000Y-228643000D01*
X335527000Y-210523000D02*
X299727000Y-210523000D01*
X335467000Y-225643000D02*
X335467000Y-220583000D01*
X299787000Y-225643000D02*
X335467000Y-225643000D01*
X299787000Y-213523000D02*
X299787000Y-225643000D01*
X335467000Y-213523000D02*
X299787000Y-213523000D01*
X335467000Y-218583000D02*
X335467000Y-213523000D01*
X335467000Y-220583000D02*
G75*
G02*
X335467000Y-218583000I0J1000000D01*
G01*
%TO.C,U9*%
X347310000Y-179683000D02*
X295310000Y-179683000D01*
X347310000Y-208683000D02*
X295310000Y-208683000D01*
X347310000Y-179683000D02*
X347310000Y-208683000D01*
X295310000Y-179683000D02*
X295310000Y-208683000D01*
X295402000Y-191643000D02*
X298450000Y-191643000D01*
X298450000Y-191643000D02*
X298450000Y-196723000D01*
X298450000Y-196723000D02*
X295402000Y-196723000D01*
%TO.C,U8*%
X228163000Y-102025000D02*
X228163000Y-103275000D01*
X229413000Y-102025000D02*
X228163000Y-102025000D01*
X237813000Y-107525000D02*
X233513000Y-107525000D01*
X237813000Y-104575000D02*
X237813000Y-107525000D01*
X238563000Y-104575000D02*
X237813000Y-104575000D01*
X229213000Y-107525000D02*
X233513000Y-107525000D01*
X229213000Y-104575000D02*
X229213000Y-107525000D01*
X228463000Y-104575000D02*
X229213000Y-104575000D01*
X238563000Y-102325000D02*
X236763000Y-102325000D01*
X238563000Y-103075000D02*
X238563000Y-102325000D01*
X236763000Y-103075000D02*
X238563000Y-103075000D01*
X236763000Y-102325000D02*
X236763000Y-103075000D01*
X230263000Y-102325000D02*
X228463000Y-102325000D01*
X230263000Y-103075000D02*
X230263000Y-102325000D01*
X228463000Y-103075000D02*
X230263000Y-103075000D01*
X228463000Y-102325000D02*
X228463000Y-103075000D01*
X235263000Y-102325000D02*
X231763000Y-102325000D01*
X235263000Y-103075000D02*
X235263000Y-102325000D01*
X231763000Y-103075000D02*
X235263000Y-103075000D01*
X231763000Y-102325000D02*
X231763000Y-103075000D01*
X238573000Y-102315000D02*
X228453000Y-102315000D01*
X238573000Y-108285000D02*
X238573000Y-102315000D01*
X228453000Y-108285000D02*
X238573000Y-108285000D01*
X228453000Y-102315000D02*
X228453000Y-108285000D01*
%TO.C,U6*%
X306708000Y-122044000D02*
X308098000Y-122044000D01*
X306708000Y-119804000D02*
X306708000Y-122044000D01*
X298828000Y-119804000D02*
X306708000Y-119804000D01*
X298828000Y-122044000D02*
X298828000Y-119804000D01*
X297428000Y-122044000D02*
X298828000Y-122044000D01*
X297428000Y-122054000D02*
X297428000Y-123824000D01*
X297428000Y-123824000D02*
X308098000Y-123824000D01*
X308098000Y-123824000D02*
X308098000Y-122044000D01*
%TO.C,U5*%
X306962000Y-143634000D02*
X308352000Y-143634000D01*
X306962000Y-141394000D02*
X306962000Y-143634000D01*
X299082000Y-141394000D02*
X306962000Y-141394000D01*
X299082000Y-143634000D02*
X299082000Y-141394000D01*
X297682000Y-143634000D02*
X299082000Y-143634000D01*
X297682000Y-143644000D02*
X297682000Y-145414000D01*
X297682000Y-145414000D02*
X308352000Y-145414000D01*
X308352000Y-145414000D02*
X308352000Y-143634000D01*
%TO.C,U4*%
X306835000Y-132839000D02*
X308225000Y-132839000D01*
X306835000Y-130599000D02*
X306835000Y-132839000D01*
X298955000Y-130599000D02*
X306835000Y-130599000D01*
X298955000Y-132839000D02*
X298955000Y-130599000D01*
X297555000Y-132839000D02*
X298955000Y-132839000D01*
X297555000Y-132849000D02*
X297555000Y-134619000D01*
X297555000Y-134619000D02*
X308225000Y-134619000D01*
X308225000Y-134619000D02*
X308225000Y-132839000D01*
%TO.C,U2*%
X326543000Y-113315000D02*
X336143000Y-113315000D01*
X326543000Y-101315000D02*
X336143000Y-101315000D01*
X326543000Y-101315000D02*
X326543000Y-113315000D01*
X336143000Y-101315000D02*
X336143000Y-113315000D01*
%TO.C,SW1*%
X318484767Y-112215000D02*
X320181233Y-112215000D01*
X315843000Y-112215000D02*
X317181233Y-112215000D01*
X324268000Y-112215000D02*
X321484767Y-112215000D01*
X311398000Y-112215000D02*
X313823000Y-112215000D01*
X324268000Y-103095000D02*
X324268000Y-112215000D01*
X323268000Y-102095000D02*
X324268000Y-103095000D01*
X312398000Y-102095000D02*
X323268000Y-102095000D01*
X311398000Y-103095000D02*
X312398000Y-102095000D01*
X311398000Y-112215000D02*
X311398000Y-103095000D01*
%TO.C,R29*%
X276309000Y-118033698D02*
X276309000Y-118983698D01*
X276309000Y-123773698D02*
X276309000Y-122823698D01*
X275389000Y-118983698D02*
X275389000Y-122823698D01*
X277229000Y-118983698D02*
X275389000Y-118983698D01*
X277229000Y-122823698D02*
X277229000Y-118983698D01*
X275389000Y-122823698D02*
X277229000Y-122823698D01*
%TO.C,R28*%
X255270000Y-125400000D02*
X255270000Y-126350000D01*
X255270000Y-131140000D02*
X255270000Y-130190000D01*
X254350000Y-126350000D02*
X254350000Y-130190000D01*
X256190000Y-126350000D02*
X254350000Y-126350000D01*
X256190000Y-130190000D02*
X256190000Y-126350000D01*
X254350000Y-130190000D02*
X256190000Y-130190000D01*
%TO.C,R27*%
X244602000Y-124892000D02*
X244602000Y-125842000D01*
X244602000Y-130632000D02*
X244602000Y-129682000D01*
X243682000Y-125842000D02*
X243682000Y-129682000D01*
X245522000Y-125842000D02*
X243682000Y-125842000D01*
X245522000Y-129682000D02*
X245522000Y-125842000D01*
X243682000Y-129682000D02*
X245522000Y-129682000D01*
%TO.C,R26*%
X257810000Y-131140000D02*
X257810000Y-130190000D01*
X257810000Y-125400000D02*
X257810000Y-126350000D01*
X258730000Y-130190000D02*
X258730000Y-126350000D01*
X256890000Y-130190000D02*
X258730000Y-130190000D01*
X256890000Y-126350000D02*
X256890000Y-130190000D01*
X258730000Y-126350000D02*
X256890000Y-126350000D01*
%TO.C,R25*%
X350190000Y-254680000D02*
X351140000Y-254680000D01*
X355930000Y-254680000D02*
X354980000Y-254680000D01*
X351140000Y-255600000D02*
X354980000Y-255600000D01*
X351140000Y-253760000D02*
X351140000Y-255600000D01*
X354980000Y-253760000D02*
X351140000Y-253760000D01*
X354980000Y-255600000D02*
X354980000Y-253760000D01*
%TO.C,R24*%
X273159000Y-118033698D02*
X273159000Y-118983698D01*
X273159000Y-123773698D02*
X273159000Y-122823698D01*
X272239000Y-118983698D02*
X272239000Y-122823698D01*
X274079000Y-118983698D02*
X272239000Y-118983698D01*
X274079000Y-122823698D02*
X274079000Y-118983698D01*
X272239000Y-122823698D02*
X274079000Y-122823698D01*
%TO.C,R23*%
X350190000Y-258490000D02*
X351140000Y-258490000D01*
X355930000Y-258490000D02*
X354980000Y-258490000D01*
X351140000Y-259410000D02*
X354980000Y-259410000D01*
X351140000Y-257570000D02*
X351140000Y-259410000D01*
X354980000Y-257570000D02*
X351140000Y-257570000D01*
X354980000Y-259410000D02*
X354980000Y-257570000D01*
%TO.C,R22*%
X334213200Y-202412400D02*
X334213200Y-201462400D01*
X334213200Y-196672400D02*
X334213200Y-197622400D01*
X335133200Y-201462400D02*
X335133200Y-197622400D01*
X333293200Y-201462400D02*
X335133200Y-201462400D01*
X333293200Y-197622400D02*
X333293200Y-201462400D01*
X335133200Y-197622400D02*
X333293200Y-197622400D01*
%TO.C,R21*%
X334213200Y-185344000D02*
X334213200Y-186294000D01*
X334213200Y-191084000D02*
X334213200Y-190134000D01*
X333293200Y-186294000D02*
X333293200Y-190134000D01*
X335133200Y-186294000D02*
X333293200Y-186294000D01*
X335133200Y-190134000D02*
X335133200Y-186294000D01*
X333293200Y-190134000D02*
X335133200Y-190134000D01*
%TO.C,R20*%
X236931200Y-169240000D02*
X236931200Y-168290000D01*
X236931200Y-163500000D02*
X236931200Y-164450000D01*
X237851200Y-168290000D02*
X237851200Y-164450000D01*
X236011200Y-168290000D02*
X237851200Y-168290000D01*
X236011200Y-164450000D02*
X236011200Y-168290000D01*
X237851200Y-164450000D02*
X236011200Y-164450000D01*
%TO.C,R19*%
X322580000Y-200990000D02*
X322580000Y-200040000D01*
X322580000Y-195250000D02*
X322580000Y-196200000D01*
X323500000Y-200040000D02*
X323500000Y-196200000D01*
X321660000Y-200040000D02*
X323500000Y-200040000D01*
X321660000Y-196200000D02*
X321660000Y-200040000D01*
X323500000Y-196200000D02*
X321660000Y-196200000D01*
%TO.C,R18*%
X325120000Y-200990000D02*
X325120000Y-200040000D01*
X325120000Y-195250000D02*
X325120000Y-196200000D01*
X326040000Y-200040000D02*
X326040000Y-196200000D01*
X324200000Y-200040000D02*
X326040000Y-200040000D01*
X324200000Y-196200000D02*
X324200000Y-200040000D01*
X326040000Y-196200000D02*
X324200000Y-196200000D01*
%TO.C,R17*%
X308864000Y-173050000D02*
X308864000Y-172100000D01*
X308864000Y-167310000D02*
X308864000Y-168260000D01*
X309784000Y-172100000D02*
X309784000Y-168260000D01*
X307944000Y-172100000D02*
X309784000Y-172100000D01*
X307944000Y-168260000D02*
X307944000Y-172100000D01*
X309784000Y-168260000D02*
X307944000Y-168260000D01*
%TO.C,R16*%
X336220000Y-154940000D02*
X337170000Y-154940000D01*
X341960000Y-154940000D02*
X341010000Y-154940000D01*
X337170000Y-155860000D02*
X341010000Y-155860000D01*
X337170000Y-154020000D02*
X337170000Y-155860000D01*
X341010000Y-154020000D02*
X337170000Y-154020000D01*
X341010000Y-155860000D02*
X341010000Y-154020000D01*
%TO.C,R15*%
X221996000Y-118440000D02*
X221996000Y-117490000D01*
X221996000Y-112700000D02*
X221996000Y-113650000D01*
X222916000Y-117490000D02*
X222916000Y-113650000D01*
X221076000Y-117490000D02*
X222916000Y-117490000D01*
X221076000Y-113650000D02*
X221076000Y-117490000D01*
X222916000Y-113650000D02*
X221076000Y-113650000D01*
%TO.C,R14*%
X324790000Y-143510000D02*
X325740000Y-143510000D01*
X330530000Y-143510000D02*
X329580000Y-143510000D01*
X325740000Y-144430000D02*
X329580000Y-144430000D01*
X325740000Y-142590000D02*
X325740000Y-144430000D01*
X329580000Y-142590000D02*
X325740000Y-142590000D01*
X329580000Y-144430000D02*
X329580000Y-142590000D01*
%TO.C,R13*%
X304800000Y-167310000D02*
X304800000Y-168260000D01*
X304800000Y-173050000D02*
X304800000Y-172100000D01*
X303880000Y-168260000D02*
X303880000Y-172100000D01*
X305720000Y-168260000D02*
X303880000Y-168260000D01*
X305720000Y-172100000D02*
X305720000Y-168260000D01*
X303880000Y-172100000D02*
X305720000Y-172100000D01*
%TO.C,R12*%
X311404000Y-167310000D02*
X311404000Y-168260000D01*
X311404000Y-173050000D02*
X311404000Y-172100000D01*
X310484000Y-168260000D02*
X310484000Y-172100000D01*
X312324000Y-168260000D02*
X310484000Y-168260000D01*
X312324000Y-172100000D02*
X312324000Y-168260000D01*
X310484000Y-172100000D02*
X312324000Y-172100000D01*
%TO.C,R11*%
X262890000Y-181559000D02*
X262890000Y-180609000D01*
X262890000Y-175819000D02*
X262890000Y-176769000D01*
X263810000Y-180609000D02*
X263810000Y-176769000D01*
X261970000Y-180609000D02*
X263810000Y-180609000D01*
X261970000Y-176769000D02*
X261970000Y-180609000D01*
X263810000Y-176769000D02*
X261970000Y-176769000D01*
%TO.C,R10*%
X273100800Y-135864400D02*
X273100800Y-134914400D01*
X273100800Y-130124400D02*
X273100800Y-131074400D01*
X274020800Y-134914400D02*
X274020800Y-131074400D01*
X272180800Y-134914400D02*
X274020800Y-134914400D01*
X272180800Y-131074400D02*
X272180800Y-134914400D01*
X274020800Y-131074400D02*
X272180800Y-131074400D01*
%TO.C,R9*%
X290195000Y-159080000D02*
X290195000Y-158130000D01*
X290195000Y-153340000D02*
X290195000Y-154290000D01*
X291115000Y-158130000D02*
X291115000Y-154290000D01*
X289275000Y-158130000D02*
X291115000Y-158130000D01*
X289275000Y-154290000D02*
X289275000Y-158130000D01*
X291115000Y-154290000D02*
X289275000Y-154290000D01*
%TO.C,R8*%
X242214400Y-172745200D02*
X242214400Y-171795200D01*
X242214400Y-167005200D02*
X242214400Y-167955200D01*
X243134400Y-171795200D02*
X243134400Y-167955200D01*
X241294400Y-171795200D02*
X243134400Y-171795200D01*
X241294400Y-167955200D02*
X241294400Y-171795200D01*
X243134400Y-167955200D02*
X241294400Y-167955200D01*
%TO.C,R7*%
X224739200Y-112700000D02*
X224739200Y-113650000D01*
X224739200Y-118440000D02*
X224739200Y-117490000D01*
X223819200Y-113650000D02*
X223819200Y-117490000D01*
X225659200Y-113650000D02*
X223819200Y-113650000D01*
X225659200Y-117490000D02*
X225659200Y-113650000D01*
X223819200Y-117490000D02*
X225659200Y-117490000D01*
%TO.C,R6*%
X294005000Y-218643000D02*
X294005000Y-217693000D01*
X294005000Y-212903000D02*
X294005000Y-213853000D01*
X294925000Y-217693000D02*
X294925000Y-213853000D01*
X293085000Y-217693000D02*
X294925000Y-217693000D01*
X293085000Y-213853000D02*
X293085000Y-217693000D01*
X294925000Y-213853000D02*
X293085000Y-213853000D01*
%TO.C,R5*%
X289560000Y-227000000D02*
X289560000Y-227950000D01*
X289560000Y-232740000D02*
X289560000Y-231790000D01*
X288640000Y-227950000D02*
X288640000Y-231790000D01*
X290480000Y-227950000D02*
X288640000Y-227950000D01*
X290480000Y-231790000D02*
X290480000Y-227950000D01*
X288640000Y-231790000D02*
X290480000Y-231790000D01*
%TO.C,R4*%
X279958800Y-164973200D02*
X279958800Y-165923200D01*
X279958800Y-170713200D02*
X279958800Y-169763200D01*
X279038800Y-165923200D02*
X279038800Y-169763200D01*
X280878800Y-165923200D02*
X279038800Y-165923200D01*
X280878800Y-169763200D02*
X280878800Y-165923200D01*
X279038800Y-169763200D02*
X280878800Y-169763200D01*
%TO.C,R3*%
X300990000Y-167310000D02*
X300990000Y-168260000D01*
X300990000Y-173050000D02*
X300990000Y-172100000D01*
X300070000Y-168260000D02*
X300070000Y-172100000D01*
X301910000Y-168260000D02*
X300070000Y-168260000D01*
X301910000Y-172100000D02*
X301910000Y-168260000D01*
X300070000Y-172100000D02*
X301910000Y-172100000D01*
%TO.C,R2*%
X271322800Y-146329600D02*
X271322800Y-147279600D01*
X271322800Y-152069600D02*
X271322800Y-151119600D01*
X270402800Y-147279600D02*
X270402800Y-151119600D01*
X272242800Y-147279600D02*
X270402800Y-147279600D01*
X272242800Y-151119600D02*
X272242800Y-147279600D01*
X270402800Y-151119600D02*
X272242800Y-151119600D01*
%TO.C,R1*%
X311023000Y-136855000D02*
X311023000Y-135905000D01*
X311023000Y-131115000D02*
X311023000Y-132065000D01*
X311943000Y-135905000D02*
X311943000Y-132065000D01*
X310103000Y-135905000D02*
X311943000Y-135905000D01*
X310103000Y-132065000D02*
X310103000Y-135905000D01*
X311943000Y-132065000D02*
X310103000Y-132065000D01*
%TO.C,Q7*%
X252730000Y-167520000D02*
X252730000Y-164980000D01*
X255270000Y-167520000D02*
X255270000Y-164980000D01*
X257810000Y-167520000D02*
X257810000Y-164980000D01*
X250150000Y-183410000D02*
X250150000Y-167520000D01*
X260390000Y-183410000D02*
X260390000Y-167520000D01*
X260390000Y-183410000D02*
X250150000Y-183410000D01*
X260390000Y-167520000D02*
X250150000Y-167520000D01*
%TO.C,Q6*%
X276860000Y-144995280D02*
X276860000Y-142455280D01*
X279400000Y-144995280D02*
X279400000Y-142455280D01*
X281940000Y-144995280D02*
X281940000Y-142455280D01*
X274280000Y-160885280D02*
X274280000Y-144995280D01*
X284520000Y-160885280D02*
X284520000Y-144995280D01*
X284520000Y-160885280D02*
X274280000Y-160885280D01*
X284520000Y-144995280D02*
X274280000Y-144995280D01*
%TO.C,Q5*%
X247650000Y-144507600D02*
X247650000Y-141967600D01*
X250190000Y-144507600D02*
X250190000Y-141967600D01*
X252730000Y-144507600D02*
X252730000Y-141967600D01*
X245070000Y-160397600D02*
X245070000Y-144507600D01*
X255310000Y-160397600D02*
X255310000Y-144507600D01*
X255310000Y-160397600D02*
X245070000Y-160397600D01*
X255310000Y-144507600D02*
X245070000Y-144507600D01*
%TO.C,Q4*%
X270510000Y-167520000D02*
X270510000Y-164980000D01*
X273050000Y-167520000D02*
X273050000Y-164980000D01*
X275590000Y-167520000D02*
X275590000Y-164980000D01*
X267930000Y-183410000D02*
X267930000Y-167520000D01*
X278170000Y-183410000D02*
X278170000Y-167520000D01*
X278170000Y-183410000D02*
X267930000Y-183410000D01*
X278170000Y-167520000D02*
X267930000Y-167520000D01*
%TO.C,Q3*%
X284353000Y-167393000D02*
X284353000Y-164853000D01*
X286893000Y-167393000D02*
X286893000Y-164853000D01*
X289433000Y-167393000D02*
X289433000Y-164853000D01*
X281773000Y-183283000D02*
X281773000Y-167393000D01*
X292013000Y-183283000D02*
X292013000Y-167393000D01*
X292013000Y-183283000D02*
X281773000Y-183283000D01*
X292013000Y-167393000D02*
X281773000Y-167393000D01*
%TO.C,Q2*%
X261416800Y-144406000D02*
X261416800Y-141866000D01*
X263956800Y-144406000D02*
X263956800Y-141866000D01*
X266496800Y-144406000D02*
X266496800Y-141866000D01*
X258836800Y-160296000D02*
X258836800Y-144406000D01*
X269076800Y-160296000D02*
X269076800Y-144406000D01*
X269076800Y-160296000D02*
X258836800Y-160296000D01*
X269076800Y-144406000D02*
X258836800Y-144406000D01*
%TO.C,Q1*%
X317373000Y-122435000D02*
X317373000Y-119895000D01*
X319913000Y-122435000D02*
X319913000Y-119895000D01*
X322453000Y-122435000D02*
X322453000Y-119895000D01*
X314793000Y-138325000D02*
X314793000Y-122435000D01*
X325033000Y-138325000D02*
X325033000Y-122435000D01*
X325033000Y-138325000D02*
X314793000Y-138325000D01*
X325033000Y-122435000D02*
X314793000Y-122435000D01*
%TO.C,Murata-Ceramic-Capacitor-50v1-22uF5*%
X295560000Y-142889000D02*
X295560000Y-141631000D01*
X293720000Y-142889000D02*
X293720000Y-141631000D01*
%TO.C,Murata-Ceramic-Capacitor-50v1-22uF4*%
X293720000Y-132701000D02*
X293720000Y-133959000D01*
X295560000Y-132701000D02*
X295560000Y-133959000D01*
%TO.C,50V-10uF1*%
X295079000Y-114680000D02*
X293821000Y-114680000D01*
X295079000Y-116520000D02*
X293821000Y-116520000D01*
%TO.C,Murata-Ceramic-Capacitor-50v1-22uF2*%
X300369000Y-114650000D02*
X299111000Y-114650000D01*
X300369000Y-116490000D02*
X299111000Y-116490000D01*
%TO.C,JP1*%
X317059000Y-156905000D02*
X317059000Y-155575000D01*
X318389000Y-156905000D02*
X317059000Y-156905000D01*
X319659000Y-156905000D02*
X319659000Y-154245000D01*
X319659000Y-154245000D02*
X332419000Y-154245000D01*
X319659000Y-156905000D02*
X332419000Y-156905000D01*
X332419000Y-156905000D02*
X332419000Y-154245000D01*
%TO.C,J10*%
X347670000Y-245580000D02*
X347670000Y-246830000D01*
X348920000Y-245580000D02*
X347670000Y-245580000D01*
X357320000Y-251080000D02*
X353020000Y-251080000D01*
X357320000Y-248130000D02*
X357320000Y-251080000D01*
X358070000Y-248130000D02*
X357320000Y-248130000D01*
X348720000Y-251080000D02*
X353020000Y-251080000D01*
X348720000Y-248130000D02*
X348720000Y-251080000D01*
X347970000Y-248130000D02*
X348720000Y-248130000D01*
X358070000Y-245880000D02*
X356270000Y-245880000D01*
X358070000Y-246630000D02*
X358070000Y-245880000D01*
X356270000Y-246630000D02*
X358070000Y-246630000D01*
X356270000Y-245880000D02*
X356270000Y-246630000D01*
X349770000Y-245880000D02*
X347970000Y-245880000D01*
X349770000Y-246630000D02*
X349770000Y-245880000D01*
X347970000Y-246630000D02*
X349770000Y-246630000D01*
X347970000Y-245880000D02*
X347970000Y-246630000D01*
X354770000Y-245880000D02*
X351270000Y-245880000D01*
X354770000Y-246630000D02*
X354770000Y-245880000D01*
X351270000Y-246630000D02*
X354770000Y-246630000D01*
X351270000Y-245880000D02*
X351270000Y-246630000D01*
X358080000Y-245870000D02*
X347960000Y-245870000D01*
X358080000Y-251840000D02*
X358080000Y-245870000D01*
X347960000Y-251840000D02*
X358080000Y-251840000D01*
X347960000Y-245870000D02*
X347960000Y-251840000D01*
%TO.C,J9*%
X239593000Y-102025000D02*
X239593000Y-103275000D01*
X240843000Y-102025000D02*
X239593000Y-102025000D01*
X249243000Y-107525000D02*
X244943000Y-107525000D01*
X249243000Y-104575000D02*
X249243000Y-107525000D01*
X249993000Y-104575000D02*
X249243000Y-104575000D01*
X240643000Y-107525000D02*
X244943000Y-107525000D01*
X240643000Y-104575000D02*
X240643000Y-107525000D01*
X239893000Y-104575000D02*
X240643000Y-104575000D01*
X249993000Y-102325000D02*
X248193000Y-102325000D01*
X249993000Y-103075000D02*
X249993000Y-102325000D01*
X248193000Y-103075000D02*
X249993000Y-103075000D01*
X248193000Y-102325000D02*
X248193000Y-103075000D01*
X241693000Y-102325000D02*
X239893000Y-102325000D01*
X241693000Y-103075000D02*
X241693000Y-102325000D01*
X239893000Y-103075000D02*
X241693000Y-103075000D01*
X239893000Y-102325000D02*
X239893000Y-103075000D01*
X246693000Y-102325000D02*
X243193000Y-102325000D01*
X246693000Y-103075000D02*
X246693000Y-102325000D01*
X243193000Y-103075000D02*
X246693000Y-103075000D01*
X243193000Y-102325000D02*
X243193000Y-103075000D01*
X250003000Y-102315000D02*
X239883000Y-102315000D01*
X250003000Y-108285000D02*
X250003000Y-102315000D01*
X239883000Y-108285000D02*
X250003000Y-108285000D01*
X239883000Y-102315000D02*
X239883000Y-108285000D01*
%TO.C,J8*%
X295977000Y-160334000D02*
X295977000Y-159004000D01*
X297307000Y-160334000D02*
X295977000Y-160334000D01*
X298577000Y-160334000D02*
X298577000Y-157674000D01*
X298577000Y-157674000D02*
X306257000Y-157674000D01*
X298577000Y-160334000D02*
X306257000Y-160334000D01*
X306257000Y-160334000D02*
X306257000Y-157674000D01*
%TO.C,J7*%
X287448767Y-112215000D02*
X289145233Y-112215000D01*
X284448767Y-112215000D02*
X286145233Y-112215000D01*
X281807000Y-112215000D02*
X283145233Y-112215000D01*
X293232000Y-112215000D02*
X290448767Y-112215000D01*
X277362000Y-112215000D02*
X279787000Y-112215000D01*
X293232000Y-103095000D02*
X293232000Y-112215000D01*
X292232000Y-102095000D02*
X293232000Y-103095000D01*
X278362000Y-102095000D02*
X292232000Y-102095000D01*
X277362000Y-103095000D02*
X278362000Y-102095000D01*
X277362000Y-112215000D02*
X277362000Y-103095000D01*
%TO.C,J6*%
X270224767Y-112215000D02*
X271921233Y-112215000D01*
X267583000Y-112215000D02*
X268921233Y-112215000D01*
X276008000Y-112215000D02*
X273224767Y-112215000D01*
X263138000Y-112215000D02*
X265563000Y-112215000D01*
X276008000Y-103095000D02*
X276008000Y-112215000D01*
X275008000Y-102095000D02*
X276008000Y-103095000D01*
X264138000Y-102095000D02*
X275008000Y-102095000D01*
X263138000Y-103095000D02*
X264138000Y-102095000D01*
X263138000Y-112215000D02*
X263138000Y-103095000D01*
%TO.C,J5*%
X314900000Y-203260000D02*
X314900000Y-201930000D01*
X316230000Y-203260000D02*
X314900000Y-203260000D01*
X317500000Y-203260000D02*
X317500000Y-200600000D01*
X317500000Y-200600000D02*
X320100000Y-200600000D01*
X317500000Y-203260000D02*
X320100000Y-203260000D01*
X320100000Y-203260000D02*
X320100000Y-200600000D01*
%TO.C,J4*%
X251023000Y-102025000D02*
X251023000Y-103275000D01*
X252273000Y-102025000D02*
X251023000Y-102025000D01*
X260673000Y-107525000D02*
X256373000Y-107525000D01*
X260673000Y-104575000D02*
X260673000Y-107525000D01*
X261423000Y-104575000D02*
X260673000Y-104575000D01*
X252073000Y-107525000D02*
X256373000Y-107525000D01*
X252073000Y-104575000D02*
X252073000Y-107525000D01*
X251323000Y-104575000D02*
X252073000Y-104575000D01*
X261423000Y-102325000D02*
X259623000Y-102325000D01*
X261423000Y-103075000D02*
X261423000Y-102325000D01*
X259623000Y-103075000D02*
X261423000Y-103075000D01*
X259623000Y-102325000D02*
X259623000Y-103075000D01*
X253123000Y-102325000D02*
X251323000Y-102325000D01*
X253123000Y-103075000D02*
X253123000Y-102325000D01*
X251323000Y-103075000D02*
X253123000Y-103075000D01*
X251323000Y-102325000D02*
X251323000Y-103075000D01*
X258123000Y-102325000D02*
X254623000Y-102325000D01*
X258123000Y-103075000D02*
X258123000Y-102325000D01*
X254623000Y-103075000D02*
X258123000Y-103075000D01*
X254623000Y-102325000D02*
X254623000Y-103075000D01*
X261433000Y-102315000D02*
X251313000Y-102315000D01*
X261433000Y-108285000D02*
X261433000Y-102315000D01*
X251313000Y-108285000D02*
X261433000Y-108285000D01*
X251313000Y-102315000D02*
X251313000Y-108285000D01*
%TO.C,J3*%
X340360000Y-185360000D02*
X341690000Y-185360000D01*
X341690000Y-185360000D02*
X341690000Y-186690000D01*
X339090000Y-185360000D02*
X339090000Y-187960000D01*
X339090000Y-187960000D02*
X341690000Y-187960000D01*
X341690000Y-187960000D02*
X341690000Y-190560000D01*
X336490000Y-190560000D02*
X341690000Y-190560000D01*
X336490000Y-185360000D02*
X336490000Y-190560000D01*
X336490000Y-185360000D02*
X339090000Y-185360000D01*
%TO.C,J2*%
X229302000Y-129219000D02*
X229302000Y-127889000D01*
X230632000Y-129219000D02*
X229302000Y-129219000D01*
X229302000Y-126619000D02*
X229302000Y-124019000D01*
X231902000Y-126619000D02*
X229302000Y-126619000D01*
X231902000Y-129219000D02*
X231902000Y-126619000D01*
X229302000Y-124019000D02*
X237042000Y-124019000D01*
X231902000Y-129219000D02*
X237042000Y-129219000D01*
X237042000Y-129219000D02*
X237042000Y-124019000D01*
%TO.C,J1*%
X341570000Y-159960000D02*
X342900000Y-159960000D01*
X341570000Y-161290000D02*
X341570000Y-159960000D01*
X341570000Y-162560000D02*
X344230000Y-162560000D01*
X344230000Y-162560000D02*
X344230000Y-170240000D01*
X341570000Y-162560000D02*
X341570000Y-170240000D01*
X341570000Y-170240000D02*
X344230000Y-170240000D01*
%TO.C,D14*%
X324830000Y-150940000D02*
X324830000Y-151096000D01*
X324830000Y-148624000D02*
X324830000Y-148780000D01*
X327431130Y-150939837D02*
G75*
G02*
X325349039Y-150940000I-1041130J1079837D01*
G01*
X327431130Y-148780163D02*
G75*
G03*
X325349039Y-148780000I-1041130J-1079837D01*
G01*
X328062335Y-150938608D02*
G75*
G02*
X324830000Y-151095516I-1672335J1078608D01*
G01*
X328062335Y-148781392D02*
G75*
G03*
X324830000Y-148624484I-1672335J-1078608D01*
G01*
%TO.C,D13*%
X240756000Y-136843000D02*
X240756000Y-136999000D01*
X240756000Y-134527000D02*
X240756000Y-134683000D01*
X243357130Y-136842837D02*
G75*
G02*
X241275039Y-136843000I-1041130J1079837D01*
G01*
X243357130Y-134683163D02*
G75*
G03*
X241275039Y-134683000I-1041130J-1079837D01*
G01*
X243988335Y-136841608D02*
G75*
G02*
X240756000Y-136998516I-1672335J1078608D01*
G01*
X243988335Y-134684392D02*
G75*
G03*
X240756000Y-134527484I-1672335J-1078608D01*
G01*
%TO.C,D5*%
X295415200Y-227061200D02*
X295571200Y-227061200D01*
X293099200Y-227061200D02*
X293255200Y-227061200D01*
X295415037Y-224460070D02*
G75*
G02*
X295415200Y-226542161I-1079837J-1041130D01*
G01*
X293255363Y-224460070D02*
G75*
G03*
X293255200Y-226542161I1079837J-1041130D01*
G01*
X295413808Y-223828865D02*
G75*
G02*
X295570716Y-227061200I-1078608J-1672335D01*
G01*
X293256592Y-223828865D02*
G75*
G03*
X293099684Y-227061200I1078608J-1672335D01*
G01*
%TO.C,D4*%
X291030000Y-215230000D02*
X288090000Y-215230000D01*
X291030000Y-215470000D02*
X288090000Y-215470000D01*
X291030000Y-215350000D02*
X288090000Y-215350000D01*
X289560000Y-220910000D02*
X289560000Y-219890000D01*
X289560000Y-213430000D02*
X289560000Y-214450000D01*
X291030000Y-219890000D02*
X291030000Y-214450000D01*
X288090000Y-219890000D02*
X291030000Y-219890000D01*
X288090000Y-214450000D02*
X288090000Y-219890000D01*
X291030000Y-214450000D02*
X288090000Y-214450000D01*
%TO.C,D3*%
X267470000Y-176140000D02*
X264530000Y-176140000D01*
X267470000Y-176380000D02*
X264530000Y-176380000D01*
X267470000Y-176260000D02*
X264530000Y-176260000D01*
X266000000Y-181820000D02*
X266000000Y-180800000D01*
X266000000Y-174340000D02*
X266000000Y-175360000D01*
X267470000Y-180800000D02*
X267470000Y-175360000D01*
X264530000Y-180800000D02*
X267470000Y-180800000D01*
X264530000Y-175360000D02*
X264530000Y-180800000D01*
X267470000Y-175360000D02*
X264530000Y-175360000D01*
%TO.C,D2*%
X297780000Y-176330000D02*
X297780000Y-179270000D01*
X298020000Y-176330000D02*
X298020000Y-179270000D01*
X297900000Y-176330000D02*
X297900000Y-179270000D01*
X303460000Y-177800000D02*
X302440000Y-177800000D01*
X295980000Y-177800000D02*
X297000000Y-177800000D01*
X302440000Y-176330000D02*
X297000000Y-176330000D01*
X302440000Y-179270000D02*
X302440000Y-176330000D01*
X297000000Y-179270000D02*
X302440000Y-179270000D01*
X297000000Y-176330000D02*
X297000000Y-179270000D01*
%TO.C,D1*%
X309553000Y-124495000D02*
X312493000Y-124495000D01*
X309553000Y-124255000D02*
X312493000Y-124255000D01*
X309553000Y-124375000D02*
X312493000Y-124375000D01*
X312493000Y-119835000D02*
X312363000Y-119835000D01*
X312493000Y-125275000D02*
X312493000Y-119835000D01*
X312363000Y-125275000D02*
X312493000Y-125275000D01*
X309553000Y-119835000D02*
X309683000Y-119835000D01*
X309553000Y-125275000D02*
X309553000Y-119835000D01*
X309683000Y-125275000D02*
X309553000Y-125275000D01*
%TO.C,C10*%
X260512000Y-115165000D02*
X264252000Y-115165000D01*
X260512000Y-122405000D02*
X264252000Y-122405000D01*
X264252000Y-122405000D02*
X264252000Y-115165000D01*
X260512000Y-122405000D02*
X260512000Y-115165000D01*
%TO.C,C9*%
X268976400Y-122502800D02*
X265236400Y-122502800D01*
X268976400Y-115262800D02*
X265236400Y-115262800D01*
X265236400Y-115262800D02*
X265236400Y-122502800D01*
X268976400Y-115262800D02*
X268976400Y-122502800D01*
%TO.C,C8*%
X239360000Y-181380000D02*
X235620000Y-181380000D01*
X239360000Y-174140000D02*
X235620000Y-174140000D01*
X235620000Y-174140000D02*
X235620000Y-181380000D01*
X239360000Y-174140000D02*
X239360000Y-181380000D01*
%TO.C,C7*%
X210220000Y-174220000D02*
X213960000Y-174220000D01*
X210220000Y-181460000D02*
X213960000Y-181460000D01*
X213960000Y-181460000D02*
X213960000Y-174220000D01*
X210220000Y-181460000D02*
X210220000Y-174220000D01*
%TO.C,C6*%
X307695225Y-155275000D02*
X307695225Y-155775000D01*
X307445225Y-155525000D02*
X307945225Y-155525000D01*
X312851000Y-156716000D02*
X312851000Y-157284000D01*
X312811000Y-156482000D02*
X312811000Y-157518000D01*
X312771000Y-156323000D02*
X312771000Y-157677000D01*
X312731000Y-156195000D02*
X312731000Y-157805000D01*
X312691000Y-156085000D02*
X312691000Y-157915000D01*
X312651000Y-155989000D02*
X312651000Y-158011000D01*
X312611000Y-155902000D02*
X312611000Y-158098000D01*
X312571000Y-155822000D02*
X312571000Y-158178000D01*
X312531000Y-158040000D02*
X312531000Y-158251000D01*
X312531000Y-155749000D02*
X312531000Y-155960000D01*
X312491000Y-158040000D02*
X312491000Y-158319000D01*
X312491000Y-155681000D02*
X312491000Y-155960000D01*
X312451000Y-158040000D02*
X312451000Y-158383000D01*
X312451000Y-155617000D02*
X312451000Y-155960000D01*
X312411000Y-158040000D02*
X312411000Y-158443000D01*
X312411000Y-155557000D02*
X312411000Y-155960000D01*
X312371000Y-158040000D02*
X312371000Y-158500000D01*
X312371000Y-155500000D02*
X312371000Y-155960000D01*
X312331000Y-158040000D02*
X312331000Y-158554000D01*
X312331000Y-155446000D02*
X312331000Y-155960000D01*
X312291000Y-158040000D02*
X312291000Y-158605000D01*
X312291000Y-155395000D02*
X312291000Y-155960000D01*
X312251000Y-158040000D02*
X312251000Y-158653000D01*
X312251000Y-155347000D02*
X312251000Y-155960000D01*
X312211000Y-158040000D02*
X312211000Y-158699000D01*
X312211000Y-155301000D02*
X312211000Y-155960000D01*
X312171000Y-158040000D02*
X312171000Y-158743000D01*
X312171000Y-155257000D02*
X312171000Y-155960000D01*
X312131000Y-158040000D02*
X312131000Y-158785000D01*
X312131000Y-155215000D02*
X312131000Y-155960000D01*
X312091000Y-158040000D02*
X312091000Y-158826000D01*
X312091000Y-155174000D02*
X312091000Y-155960000D01*
X312051000Y-158040000D02*
X312051000Y-158864000D01*
X312051000Y-155136000D02*
X312051000Y-155960000D01*
X312011000Y-158040000D02*
X312011000Y-158901000D01*
X312011000Y-155099000D02*
X312011000Y-155960000D01*
X311971000Y-158040000D02*
X311971000Y-158937000D01*
X311971000Y-155063000D02*
X311971000Y-155960000D01*
X311931000Y-158040000D02*
X311931000Y-158971000D01*
X311931000Y-155029000D02*
X311931000Y-155960000D01*
X311891000Y-158040000D02*
X311891000Y-159004000D01*
X311891000Y-154996000D02*
X311891000Y-155960000D01*
X311851000Y-158040000D02*
X311851000Y-159035000D01*
X311851000Y-154965000D02*
X311851000Y-155960000D01*
X311811000Y-158040000D02*
X311811000Y-159065000D01*
X311811000Y-154935000D02*
X311811000Y-155960000D01*
X311771000Y-158040000D02*
X311771000Y-159095000D01*
X311771000Y-154905000D02*
X311771000Y-155960000D01*
X311731000Y-158040000D02*
X311731000Y-159122000D01*
X311731000Y-154878000D02*
X311731000Y-155960000D01*
X311691000Y-158040000D02*
X311691000Y-159149000D01*
X311691000Y-154851000D02*
X311691000Y-155960000D01*
X311651000Y-158040000D02*
X311651000Y-159175000D01*
X311651000Y-154825000D02*
X311651000Y-155960000D01*
X311611000Y-158040000D02*
X311611000Y-159200000D01*
X311611000Y-154800000D02*
X311611000Y-155960000D01*
X311571000Y-158040000D02*
X311571000Y-159224000D01*
X311571000Y-154776000D02*
X311571000Y-155960000D01*
X311531000Y-158040000D02*
X311531000Y-159247000D01*
X311531000Y-154753000D02*
X311531000Y-155960000D01*
X311491000Y-158040000D02*
X311491000Y-159268000D01*
X311491000Y-154732000D02*
X311491000Y-155960000D01*
X311451000Y-158040000D02*
X311451000Y-159290000D01*
X311451000Y-154710000D02*
X311451000Y-155960000D01*
X311411000Y-158040000D02*
X311411000Y-159310000D01*
X311411000Y-154690000D02*
X311411000Y-155960000D01*
X311371000Y-158040000D02*
X311371000Y-159329000D01*
X311371000Y-154671000D02*
X311371000Y-155960000D01*
X311331000Y-158040000D02*
X311331000Y-159348000D01*
X311331000Y-154652000D02*
X311331000Y-155960000D01*
X311291000Y-158040000D02*
X311291000Y-159365000D01*
X311291000Y-154635000D02*
X311291000Y-155960000D01*
X311251000Y-158040000D02*
X311251000Y-159382000D01*
X311251000Y-154618000D02*
X311251000Y-155960000D01*
X311211000Y-158040000D02*
X311211000Y-159398000D01*
X311211000Y-154602000D02*
X311211000Y-155960000D01*
X311171000Y-158040000D02*
X311171000Y-159414000D01*
X311171000Y-154586000D02*
X311171000Y-155960000D01*
X311131000Y-158040000D02*
X311131000Y-159428000D01*
X311131000Y-154572000D02*
X311131000Y-155960000D01*
X311091000Y-158040000D02*
X311091000Y-159442000D01*
X311091000Y-154558000D02*
X311091000Y-155960000D01*
X311051000Y-158040000D02*
X311051000Y-159455000D01*
X311051000Y-154545000D02*
X311051000Y-155960000D01*
X311011000Y-158040000D02*
X311011000Y-159468000D01*
X311011000Y-154532000D02*
X311011000Y-155960000D01*
X310971000Y-158040000D02*
X310971000Y-159480000D01*
X310971000Y-154520000D02*
X310971000Y-155960000D01*
X310930000Y-158040000D02*
X310930000Y-159491000D01*
X310930000Y-154509000D02*
X310930000Y-155960000D01*
X310890000Y-158040000D02*
X310890000Y-159501000D01*
X310890000Y-154499000D02*
X310890000Y-155960000D01*
X310850000Y-158040000D02*
X310850000Y-159511000D01*
X310850000Y-154489000D02*
X310850000Y-155960000D01*
X310810000Y-158040000D02*
X310810000Y-159520000D01*
X310810000Y-154480000D02*
X310810000Y-155960000D01*
X310770000Y-158040000D02*
X310770000Y-159528000D01*
X310770000Y-154472000D02*
X310770000Y-155960000D01*
X310730000Y-158040000D02*
X310730000Y-159536000D01*
X310730000Y-154464000D02*
X310730000Y-155960000D01*
X310690000Y-158040000D02*
X310690000Y-159543000D01*
X310690000Y-154457000D02*
X310690000Y-155960000D01*
X310650000Y-158040000D02*
X310650000Y-159550000D01*
X310650000Y-154450000D02*
X310650000Y-155960000D01*
X310610000Y-158040000D02*
X310610000Y-159556000D01*
X310610000Y-154444000D02*
X310610000Y-155960000D01*
X310570000Y-158040000D02*
X310570000Y-159561000D01*
X310570000Y-154439000D02*
X310570000Y-155960000D01*
X310530000Y-158040000D02*
X310530000Y-159565000D01*
X310530000Y-154435000D02*
X310530000Y-155960000D01*
X310490000Y-158040000D02*
X310490000Y-159569000D01*
X310490000Y-154431000D02*
X310490000Y-155960000D01*
X310450000Y-154427000D02*
X310450000Y-159573000D01*
X310410000Y-154424000D02*
X310410000Y-159576000D01*
X310370000Y-154422000D02*
X310370000Y-159578000D01*
X310330000Y-154421000D02*
X310330000Y-159579000D01*
X310290000Y-154420000D02*
X310290000Y-159580000D01*
X310250000Y-154420000D02*
X310250000Y-159580000D01*
X312870000Y-157000000D02*
G75*
G03*
X312870000Y-157000000I-2620000J0D01*
G01*
%TO.C,C5*%
X265885000Y-163439625D02*
X265385000Y-163439625D01*
X265635000Y-163189625D02*
X265635000Y-163689625D01*
X264444000Y-168595400D02*
X263876000Y-168595400D01*
X264678000Y-168555400D02*
X263642000Y-168555400D01*
X264837000Y-168515400D02*
X263483000Y-168515400D01*
X264965000Y-168475400D02*
X263355000Y-168475400D01*
X265075000Y-168435400D02*
X263245000Y-168435400D01*
X265171000Y-168395400D02*
X263149000Y-168395400D01*
X265258000Y-168355400D02*
X263062000Y-168355400D01*
X265338000Y-168315400D02*
X262982000Y-168315400D01*
X263120000Y-168275400D02*
X262909000Y-168275400D01*
X265411000Y-168275400D02*
X265200000Y-168275400D01*
X263120000Y-168235400D02*
X262841000Y-168235400D01*
X265479000Y-168235400D02*
X265200000Y-168235400D01*
X263120000Y-168195400D02*
X262777000Y-168195400D01*
X265543000Y-168195400D02*
X265200000Y-168195400D01*
X263120000Y-168155400D02*
X262717000Y-168155400D01*
X265603000Y-168155400D02*
X265200000Y-168155400D01*
X263120000Y-168115400D02*
X262660000Y-168115400D01*
X265660000Y-168115400D02*
X265200000Y-168115400D01*
X263120000Y-168075400D02*
X262606000Y-168075400D01*
X265714000Y-168075400D02*
X265200000Y-168075400D01*
X263120000Y-168035400D02*
X262555000Y-168035400D01*
X265765000Y-168035400D02*
X265200000Y-168035400D01*
X263120000Y-167995400D02*
X262507000Y-167995400D01*
X265813000Y-167995400D02*
X265200000Y-167995400D01*
X263120000Y-167955400D02*
X262461000Y-167955400D01*
X265859000Y-167955400D02*
X265200000Y-167955400D01*
X263120000Y-167915400D02*
X262417000Y-167915400D01*
X265903000Y-167915400D02*
X265200000Y-167915400D01*
X263120000Y-167875400D02*
X262375000Y-167875400D01*
X265945000Y-167875400D02*
X265200000Y-167875400D01*
X263120000Y-167835400D02*
X262334000Y-167835400D01*
X265986000Y-167835400D02*
X265200000Y-167835400D01*
X263120000Y-167795400D02*
X262296000Y-167795400D01*
X266024000Y-167795400D02*
X265200000Y-167795400D01*
X263120000Y-167755400D02*
X262259000Y-167755400D01*
X266061000Y-167755400D02*
X265200000Y-167755400D01*
X263120000Y-167715400D02*
X262223000Y-167715400D01*
X266097000Y-167715400D02*
X265200000Y-167715400D01*
X263120000Y-167675400D02*
X262189000Y-167675400D01*
X266131000Y-167675400D02*
X265200000Y-167675400D01*
X263120000Y-167635400D02*
X262156000Y-167635400D01*
X266164000Y-167635400D02*
X265200000Y-167635400D01*
X263120000Y-167595400D02*
X262125000Y-167595400D01*
X266195000Y-167595400D02*
X265200000Y-167595400D01*
X263120000Y-167555400D02*
X262095000Y-167555400D01*
X266225000Y-167555400D02*
X265200000Y-167555400D01*
X263120000Y-167515400D02*
X262065000Y-167515400D01*
X266255000Y-167515400D02*
X265200000Y-167515400D01*
X263120000Y-167475400D02*
X262038000Y-167475400D01*
X266282000Y-167475400D02*
X265200000Y-167475400D01*
X263120000Y-167435400D02*
X262011000Y-167435400D01*
X266309000Y-167435400D02*
X265200000Y-167435400D01*
X263120000Y-167395400D02*
X261985000Y-167395400D01*
X266335000Y-167395400D02*
X265200000Y-167395400D01*
X263120000Y-167355400D02*
X261960000Y-167355400D01*
X266360000Y-167355400D02*
X265200000Y-167355400D01*
X263120000Y-167315400D02*
X261936000Y-167315400D01*
X266384000Y-167315400D02*
X265200000Y-167315400D01*
X263120000Y-167275400D02*
X261913000Y-167275400D01*
X266407000Y-167275400D02*
X265200000Y-167275400D01*
X263120000Y-167235400D02*
X261892000Y-167235400D01*
X266428000Y-167235400D02*
X265200000Y-167235400D01*
X263120000Y-167195400D02*
X261870000Y-167195400D01*
X266450000Y-167195400D02*
X265200000Y-167195400D01*
X263120000Y-167155400D02*
X261850000Y-167155400D01*
X266470000Y-167155400D02*
X265200000Y-167155400D01*
X263120000Y-167115400D02*
X261831000Y-167115400D01*
X266489000Y-167115400D02*
X265200000Y-167115400D01*
X263120000Y-167075400D02*
X261812000Y-167075400D01*
X266508000Y-167075400D02*
X265200000Y-167075400D01*
X263120000Y-167035400D02*
X261795000Y-167035400D01*
X266525000Y-167035400D02*
X265200000Y-167035400D01*
X263120000Y-166995400D02*
X261778000Y-166995400D01*
X266542000Y-166995400D02*
X265200000Y-166995400D01*
X263120000Y-166955400D02*
X261762000Y-166955400D01*
X266558000Y-166955400D02*
X265200000Y-166955400D01*
X263120000Y-166915400D02*
X261746000Y-166915400D01*
X266574000Y-166915400D02*
X265200000Y-166915400D01*
X263120000Y-166875400D02*
X261732000Y-166875400D01*
X266588000Y-166875400D02*
X265200000Y-166875400D01*
X263120000Y-166835400D02*
X261718000Y-166835400D01*
X266602000Y-166835400D02*
X265200000Y-166835400D01*
X263120000Y-166795400D02*
X261705000Y-166795400D01*
X266615000Y-166795400D02*
X265200000Y-166795400D01*
X263120000Y-166755400D02*
X261692000Y-166755400D01*
X266628000Y-166755400D02*
X265200000Y-166755400D01*
X263120000Y-166715400D02*
X261680000Y-166715400D01*
X266640000Y-166715400D02*
X265200000Y-166715400D01*
X263120000Y-166674400D02*
X261669000Y-166674400D01*
X266651000Y-166674400D02*
X265200000Y-166674400D01*
X263120000Y-166634400D02*
X261659000Y-166634400D01*
X266661000Y-166634400D02*
X265200000Y-166634400D01*
X263120000Y-166594400D02*
X261649000Y-166594400D01*
X266671000Y-166594400D02*
X265200000Y-166594400D01*
X263120000Y-166554400D02*
X261640000Y-166554400D01*
X266680000Y-166554400D02*
X265200000Y-166554400D01*
X263120000Y-166514400D02*
X261632000Y-166514400D01*
X266688000Y-166514400D02*
X265200000Y-166514400D01*
X263120000Y-166474400D02*
X261624000Y-166474400D01*
X266696000Y-166474400D02*
X265200000Y-166474400D01*
X263120000Y-166434400D02*
X261617000Y-166434400D01*
X266703000Y-166434400D02*
X265200000Y-166434400D01*
X263120000Y-166394400D02*
X261610000Y-166394400D01*
X266710000Y-166394400D02*
X265200000Y-166394400D01*
X263120000Y-166354400D02*
X261604000Y-166354400D01*
X266716000Y-166354400D02*
X265200000Y-166354400D01*
X263120000Y-166314400D02*
X261599000Y-166314400D01*
X266721000Y-166314400D02*
X265200000Y-166314400D01*
X263120000Y-166274400D02*
X261595000Y-166274400D01*
X266725000Y-166274400D02*
X265200000Y-166274400D01*
X263120000Y-166234400D02*
X261591000Y-166234400D01*
X266729000Y-166234400D02*
X265200000Y-166234400D01*
X266733000Y-166194400D02*
X261587000Y-166194400D01*
X266736000Y-166154400D02*
X261584000Y-166154400D01*
X266738000Y-166114400D02*
X261582000Y-166114400D01*
X266739000Y-166074400D02*
X261581000Y-166074400D01*
X266740000Y-166034400D02*
X261580000Y-166034400D01*
X266740000Y-165994400D02*
X261580000Y-165994400D01*
X266780000Y-165994400D02*
G75*
G03*
X266780000Y-165994400I-2620000J0D01*
G01*
%TO.C,C4*%
X297635000Y-167605225D02*
X297135000Y-167605225D01*
X297385000Y-167355225D02*
X297385000Y-167855225D01*
X296194000Y-172761000D02*
X295626000Y-172761000D01*
X296428000Y-172721000D02*
X295392000Y-172721000D01*
X296587000Y-172681000D02*
X295233000Y-172681000D01*
X296715000Y-172641000D02*
X295105000Y-172641000D01*
X296825000Y-172601000D02*
X294995000Y-172601000D01*
X296921000Y-172561000D02*
X294899000Y-172561000D01*
X297008000Y-172521000D02*
X294812000Y-172521000D01*
X297088000Y-172481000D02*
X294732000Y-172481000D01*
X294870000Y-172441000D02*
X294659000Y-172441000D01*
X297161000Y-172441000D02*
X296950000Y-172441000D01*
X294870000Y-172401000D02*
X294591000Y-172401000D01*
X297229000Y-172401000D02*
X296950000Y-172401000D01*
X294870000Y-172361000D02*
X294527000Y-172361000D01*
X297293000Y-172361000D02*
X296950000Y-172361000D01*
X294870000Y-172321000D02*
X294467000Y-172321000D01*
X297353000Y-172321000D02*
X296950000Y-172321000D01*
X294870000Y-172281000D02*
X294410000Y-172281000D01*
X297410000Y-172281000D02*
X296950000Y-172281000D01*
X294870000Y-172241000D02*
X294356000Y-172241000D01*
X297464000Y-172241000D02*
X296950000Y-172241000D01*
X294870000Y-172201000D02*
X294305000Y-172201000D01*
X297515000Y-172201000D02*
X296950000Y-172201000D01*
X294870000Y-172161000D02*
X294257000Y-172161000D01*
X297563000Y-172161000D02*
X296950000Y-172161000D01*
X294870000Y-172121000D02*
X294211000Y-172121000D01*
X297609000Y-172121000D02*
X296950000Y-172121000D01*
X294870000Y-172081000D02*
X294167000Y-172081000D01*
X297653000Y-172081000D02*
X296950000Y-172081000D01*
X294870000Y-172041000D02*
X294125000Y-172041000D01*
X297695000Y-172041000D02*
X296950000Y-172041000D01*
X294870000Y-172001000D02*
X294084000Y-172001000D01*
X297736000Y-172001000D02*
X296950000Y-172001000D01*
X294870000Y-171961000D02*
X294046000Y-171961000D01*
X297774000Y-171961000D02*
X296950000Y-171961000D01*
X294870000Y-171921000D02*
X294009000Y-171921000D01*
X297811000Y-171921000D02*
X296950000Y-171921000D01*
X294870000Y-171881000D02*
X293973000Y-171881000D01*
X297847000Y-171881000D02*
X296950000Y-171881000D01*
X294870000Y-171841000D02*
X293939000Y-171841000D01*
X297881000Y-171841000D02*
X296950000Y-171841000D01*
X294870000Y-171801000D02*
X293906000Y-171801000D01*
X297914000Y-171801000D02*
X296950000Y-171801000D01*
X294870000Y-171761000D02*
X293875000Y-171761000D01*
X297945000Y-171761000D02*
X296950000Y-171761000D01*
X294870000Y-171721000D02*
X293845000Y-171721000D01*
X297975000Y-171721000D02*
X296950000Y-171721000D01*
X294870000Y-171681000D02*
X293815000Y-171681000D01*
X298005000Y-171681000D02*
X296950000Y-171681000D01*
X294870000Y-171641000D02*
X293788000Y-171641000D01*
X298032000Y-171641000D02*
X296950000Y-171641000D01*
X294870000Y-171601000D02*
X293761000Y-171601000D01*
X298059000Y-171601000D02*
X296950000Y-171601000D01*
X294870000Y-171561000D02*
X293735000Y-171561000D01*
X298085000Y-171561000D02*
X296950000Y-171561000D01*
X294870000Y-171521000D02*
X293710000Y-171521000D01*
X298110000Y-171521000D02*
X296950000Y-171521000D01*
X294870000Y-171481000D02*
X293686000Y-171481000D01*
X298134000Y-171481000D02*
X296950000Y-171481000D01*
X294870000Y-171441000D02*
X293663000Y-171441000D01*
X298157000Y-171441000D02*
X296950000Y-171441000D01*
X294870000Y-171401000D02*
X293642000Y-171401000D01*
X298178000Y-171401000D02*
X296950000Y-171401000D01*
X294870000Y-171361000D02*
X293620000Y-171361000D01*
X298200000Y-171361000D02*
X296950000Y-171361000D01*
X294870000Y-171321000D02*
X293600000Y-171321000D01*
X298220000Y-171321000D02*
X296950000Y-171321000D01*
X294870000Y-171281000D02*
X293581000Y-171281000D01*
X298239000Y-171281000D02*
X296950000Y-171281000D01*
X294870000Y-171241000D02*
X293562000Y-171241000D01*
X298258000Y-171241000D02*
X296950000Y-171241000D01*
X294870000Y-171201000D02*
X293545000Y-171201000D01*
X298275000Y-171201000D02*
X296950000Y-171201000D01*
X294870000Y-171161000D02*
X293528000Y-171161000D01*
X298292000Y-171161000D02*
X296950000Y-171161000D01*
X294870000Y-171121000D02*
X293512000Y-171121000D01*
X298308000Y-171121000D02*
X296950000Y-171121000D01*
X294870000Y-171081000D02*
X293496000Y-171081000D01*
X298324000Y-171081000D02*
X296950000Y-171081000D01*
X294870000Y-171041000D02*
X293482000Y-171041000D01*
X298338000Y-171041000D02*
X296950000Y-171041000D01*
X294870000Y-171001000D02*
X293468000Y-171001000D01*
X298352000Y-171001000D02*
X296950000Y-171001000D01*
X294870000Y-170961000D02*
X293455000Y-170961000D01*
X298365000Y-170961000D02*
X296950000Y-170961000D01*
X294870000Y-170921000D02*
X293442000Y-170921000D01*
X298378000Y-170921000D02*
X296950000Y-170921000D01*
X294870000Y-170881000D02*
X293430000Y-170881000D01*
X298390000Y-170881000D02*
X296950000Y-170881000D01*
X294870000Y-170840000D02*
X293419000Y-170840000D01*
X298401000Y-170840000D02*
X296950000Y-170840000D01*
X294870000Y-170800000D02*
X293409000Y-170800000D01*
X298411000Y-170800000D02*
X296950000Y-170800000D01*
X294870000Y-170760000D02*
X293399000Y-170760000D01*
X298421000Y-170760000D02*
X296950000Y-170760000D01*
X294870000Y-170720000D02*
X293390000Y-170720000D01*
X298430000Y-170720000D02*
X296950000Y-170720000D01*
X294870000Y-170680000D02*
X293382000Y-170680000D01*
X298438000Y-170680000D02*
X296950000Y-170680000D01*
X294870000Y-170640000D02*
X293374000Y-170640000D01*
X298446000Y-170640000D02*
X296950000Y-170640000D01*
X294870000Y-170600000D02*
X293367000Y-170600000D01*
X298453000Y-170600000D02*
X296950000Y-170600000D01*
X294870000Y-170560000D02*
X293360000Y-170560000D01*
X298460000Y-170560000D02*
X296950000Y-170560000D01*
X294870000Y-170520000D02*
X293354000Y-170520000D01*
X298466000Y-170520000D02*
X296950000Y-170520000D01*
X294870000Y-170480000D02*
X293349000Y-170480000D01*
X298471000Y-170480000D02*
X296950000Y-170480000D01*
X294870000Y-170440000D02*
X293345000Y-170440000D01*
X298475000Y-170440000D02*
X296950000Y-170440000D01*
X294870000Y-170400000D02*
X293341000Y-170400000D01*
X298479000Y-170400000D02*
X296950000Y-170400000D01*
X298483000Y-170360000D02*
X293337000Y-170360000D01*
X298486000Y-170320000D02*
X293334000Y-170320000D01*
X298488000Y-170280000D02*
X293332000Y-170280000D01*
X298489000Y-170240000D02*
X293331000Y-170240000D01*
X298490000Y-170200000D02*
X293330000Y-170200000D01*
X298490000Y-170160000D02*
X293330000Y-170160000D01*
X298530000Y-170160000D02*
G75*
G03*
X298530000Y-170160000I-2620000J0D01*
G01*
%TO.C,C3*%
X286985225Y-204015000D02*
X286985225Y-204515000D01*
X286735225Y-204265000D02*
X287235225Y-204265000D01*
X292141000Y-205456000D02*
X292141000Y-206024000D01*
X292101000Y-205222000D02*
X292101000Y-206258000D01*
X292061000Y-205063000D02*
X292061000Y-206417000D01*
X292021000Y-204935000D02*
X292021000Y-206545000D01*
X291981000Y-204825000D02*
X291981000Y-206655000D01*
X291941000Y-204729000D02*
X291941000Y-206751000D01*
X291901000Y-204642000D02*
X291901000Y-206838000D01*
X291861000Y-204562000D02*
X291861000Y-206918000D01*
X291821000Y-206780000D02*
X291821000Y-206991000D01*
X291821000Y-204489000D02*
X291821000Y-204700000D01*
X291781000Y-206780000D02*
X291781000Y-207059000D01*
X291781000Y-204421000D02*
X291781000Y-204700000D01*
X291741000Y-206780000D02*
X291741000Y-207123000D01*
X291741000Y-204357000D02*
X291741000Y-204700000D01*
X291701000Y-206780000D02*
X291701000Y-207183000D01*
X291701000Y-204297000D02*
X291701000Y-204700000D01*
X291661000Y-206780000D02*
X291661000Y-207240000D01*
X291661000Y-204240000D02*
X291661000Y-204700000D01*
X291621000Y-206780000D02*
X291621000Y-207294000D01*
X291621000Y-204186000D02*
X291621000Y-204700000D01*
X291581000Y-206780000D02*
X291581000Y-207345000D01*
X291581000Y-204135000D02*
X291581000Y-204700000D01*
X291541000Y-206780000D02*
X291541000Y-207393000D01*
X291541000Y-204087000D02*
X291541000Y-204700000D01*
X291501000Y-206780000D02*
X291501000Y-207439000D01*
X291501000Y-204041000D02*
X291501000Y-204700000D01*
X291461000Y-206780000D02*
X291461000Y-207483000D01*
X291461000Y-203997000D02*
X291461000Y-204700000D01*
X291421000Y-206780000D02*
X291421000Y-207525000D01*
X291421000Y-203955000D02*
X291421000Y-204700000D01*
X291381000Y-206780000D02*
X291381000Y-207566000D01*
X291381000Y-203914000D02*
X291381000Y-204700000D01*
X291341000Y-206780000D02*
X291341000Y-207604000D01*
X291341000Y-203876000D02*
X291341000Y-204700000D01*
X291301000Y-206780000D02*
X291301000Y-207641000D01*
X291301000Y-203839000D02*
X291301000Y-204700000D01*
X291261000Y-206780000D02*
X291261000Y-207677000D01*
X291261000Y-203803000D02*
X291261000Y-204700000D01*
X291221000Y-206780000D02*
X291221000Y-207711000D01*
X291221000Y-203769000D02*
X291221000Y-204700000D01*
X291181000Y-206780000D02*
X291181000Y-207744000D01*
X291181000Y-203736000D02*
X291181000Y-204700000D01*
X291141000Y-206780000D02*
X291141000Y-207775000D01*
X291141000Y-203705000D02*
X291141000Y-204700000D01*
X291101000Y-206780000D02*
X291101000Y-207805000D01*
X291101000Y-203675000D02*
X291101000Y-204700000D01*
X291061000Y-206780000D02*
X291061000Y-207835000D01*
X291061000Y-203645000D02*
X291061000Y-204700000D01*
X291021000Y-206780000D02*
X291021000Y-207862000D01*
X291021000Y-203618000D02*
X291021000Y-204700000D01*
X290981000Y-206780000D02*
X290981000Y-207889000D01*
X290981000Y-203591000D02*
X290981000Y-204700000D01*
X290941000Y-206780000D02*
X290941000Y-207915000D01*
X290941000Y-203565000D02*
X290941000Y-204700000D01*
X290901000Y-206780000D02*
X290901000Y-207940000D01*
X290901000Y-203540000D02*
X290901000Y-204700000D01*
X290861000Y-206780000D02*
X290861000Y-207964000D01*
X290861000Y-203516000D02*
X290861000Y-204700000D01*
X290821000Y-206780000D02*
X290821000Y-207987000D01*
X290821000Y-203493000D02*
X290821000Y-204700000D01*
X290781000Y-206780000D02*
X290781000Y-208008000D01*
X290781000Y-203472000D02*
X290781000Y-204700000D01*
X290741000Y-206780000D02*
X290741000Y-208030000D01*
X290741000Y-203450000D02*
X290741000Y-204700000D01*
X290701000Y-206780000D02*
X290701000Y-208050000D01*
X290701000Y-203430000D02*
X290701000Y-204700000D01*
X290661000Y-206780000D02*
X290661000Y-208069000D01*
X290661000Y-203411000D02*
X290661000Y-204700000D01*
X290621000Y-206780000D02*
X290621000Y-208088000D01*
X290621000Y-203392000D02*
X290621000Y-204700000D01*
X290581000Y-206780000D02*
X290581000Y-208105000D01*
X290581000Y-203375000D02*
X290581000Y-204700000D01*
X290541000Y-206780000D02*
X290541000Y-208122000D01*
X290541000Y-203358000D02*
X290541000Y-204700000D01*
X290501000Y-206780000D02*
X290501000Y-208138000D01*
X290501000Y-203342000D02*
X290501000Y-204700000D01*
X290461000Y-206780000D02*
X290461000Y-208154000D01*
X290461000Y-203326000D02*
X290461000Y-204700000D01*
X290421000Y-206780000D02*
X290421000Y-208168000D01*
X290421000Y-203312000D02*
X290421000Y-204700000D01*
X290381000Y-206780000D02*
X290381000Y-208182000D01*
X290381000Y-203298000D02*
X290381000Y-204700000D01*
X290341000Y-206780000D02*
X290341000Y-208195000D01*
X290341000Y-203285000D02*
X290341000Y-204700000D01*
X290301000Y-206780000D02*
X290301000Y-208208000D01*
X290301000Y-203272000D02*
X290301000Y-204700000D01*
X290261000Y-206780000D02*
X290261000Y-208220000D01*
X290261000Y-203260000D02*
X290261000Y-204700000D01*
X290220000Y-206780000D02*
X290220000Y-208231000D01*
X290220000Y-203249000D02*
X290220000Y-204700000D01*
X290180000Y-206780000D02*
X290180000Y-208241000D01*
X290180000Y-203239000D02*
X290180000Y-204700000D01*
X290140000Y-206780000D02*
X290140000Y-208251000D01*
X290140000Y-203229000D02*
X290140000Y-204700000D01*
X290100000Y-206780000D02*
X290100000Y-208260000D01*
X290100000Y-203220000D02*
X290100000Y-204700000D01*
X290060000Y-206780000D02*
X290060000Y-208268000D01*
X290060000Y-203212000D02*
X290060000Y-204700000D01*
X290020000Y-206780000D02*
X290020000Y-208276000D01*
X290020000Y-203204000D02*
X290020000Y-204700000D01*
X289980000Y-206780000D02*
X289980000Y-208283000D01*
X289980000Y-203197000D02*
X289980000Y-204700000D01*
X289940000Y-206780000D02*
X289940000Y-208290000D01*
X289940000Y-203190000D02*
X289940000Y-204700000D01*
X289900000Y-206780000D02*
X289900000Y-208296000D01*
X289900000Y-203184000D02*
X289900000Y-204700000D01*
X289860000Y-206780000D02*
X289860000Y-208301000D01*
X289860000Y-203179000D02*
X289860000Y-204700000D01*
X289820000Y-206780000D02*
X289820000Y-208305000D01*
X289820000Y-203175000D02*
X289820000Y-204700000D01*
X289780000Y-206780000D02*
X289780000Y-208309000D01*
X289780000Y-203171000D02*
X289780000Y-204700000D01*
X289740000Y-203167000D02*
X289740000Y-208313000D01*
X289700000Y-203164000D02*
X289700000Y-208316000D01*
X289660000Y-203162000D02*
X289660000Y-208318000D01*
X289620000Y-203161000D02*
X289620000Y-208319000D01*
X289580000Y-203160000D02*
X289580000Y-208320000D01*
X289540000Y-203160000D02*
X289540000Y-208320000D01*
X292160000Y-205740000D02*
G75*
G03*
X292160000Y-205740000I-2620000J0D01*
G01*
%TO.C,C2*%
X318121000Y-144430000D02*
X319379000Y-144430000D01*
X318121000Y-142590000D02*
X319379000Y-142590000D01*
%TO.C,C1*%
X286800302Y-187785000D02*
X286800302Y-188585000D01*
X286400302Y-188185000D02*
X287200302Y-188185000D01*
X294891000Y-189967000D02*
X294891000Y-191033000D01*
X294851000Y-189732000D02*
X294851000Y-191268000D01*
X294811000Y-189552000D02*
X294811000Y-191448000D01*
X294771000Y-189402000D02*
X294771000Y-191598000D01*
X294731000Y-189271000D02*
X294731000Y-191729000D01*
X294691000Y-189154000D02*
X294691000Y-191846000D01*
X294651000Y-189047000D02*
X294651000Y-191953000D01*
X294611000Y-188948000D02*
X294611000Y-192052000D01*
X294571000Y-188855000D02*
X294571000Y-192145000D01*
X294531000Y-188769000D02*
X294531000Y-192231000D01*
X294491000Y-188687000D02*
X294491000Y-192313000D01*
X294451000Y-188610000D02*
X294451000Y-192390000D01*
X294411000Y-188536000D02*
X294411000Y-192464000D01*
X294371000Y-188466000D02*
X294371000Y-192534000D01*
X294331000Y-188398000D02*
X294331000Y-192602000D01*
X294291000Y-188334000D02*
X294291000Y-192666000D01*
X294251000Y-188272000D02*
X294251000Y-192728000D01*
X294211000Y-188213000D02*
X294211000Y-192787000D01*
X294171000Y-188155000D02*
X294171000Y-192845000D01*
X294131000Y-188100000D02*
X294131000Y-192900000D01*
X294091000Y-188046000D02*
X294091000Y-192954000D01*
X294051000Y-187995000D02*
X294051000Y-193005000D01*
X294011000Y-187944000D02*
X294011000Y-193056000D01*
X293971000Y-187896000D02*
X293971000Y-193104000D01*
X293931000Y-187849000D02*
X293931000Y-193151000D01*
X293891000Y-187803000D02*
X293891000Y-193197000D01*
X293851000Y-187759000D02*
X293851000Y-193241000D01*
X293811000Y-187716000D02*
X293811000Y-193284000D01*
X293771000Y-187674000D02*
X293771000Y-193326000D01*
X293731000Y-187633000D02*
X293731000Y-193367000D01*
X293691000Y-187593000D02*
X293691000Y-193407000D01*
X293651000Y-187555000D02*
X293651000Y-193445000D01*
X293611000Y-187517000D02*
X293611000Y-193483000D01*
X293571000Y-187481000D02*
X293571000Y-193519000D01*
X293531000Y-187445000D02*
X293531000Y-193555000D01*
X293491000Y-187410000D02*
X293491000Y-193590000D01*
X293451000Y-187376000D02*
X293451000Y-193624000D01*
X293411000Y-187344000D02*
X293411000Y-193656000D01*
X293371000Y-187311000D02*
X293371000Y-193689000D01*
X293331000Y-187280000D02*
X293331000Y-193720000D01*
X293291000Y-187250000D02*
X293291000Y-193750000D01*
X293251000Y-187220000D02*
X293251000Y-193780000D01*
X293211000Y-187191000D02*
X293211000Y-193809000D01*
X293171000Y-187162000D02*
X293171000Y-193838000D01*
X293131000Y-187135000D02*
X293131000Y-193865000D01*
X293091000Y-191540000D02*
X293091000Y-193892000D01*
X293091000Y-187108000D02*
X293091000Y-189460000D01*
X293051000Y-191540000D02*
X293051000Y-193918000D01*
X293051000Y-187082000D02*
X293051000Y-189460000D01*
X293011000Y-191540000D02*
X293011000Y-193944000D01*
X293011000Y-187056000D02*
X293011000Y-189460000D01*
X292971000Y-191540000D02*
X292971000Y-193969000D01*
X292971000Y-187031000D02*
X292971000Y-189460000D01*
X292931000Y-191540000D02*
X292931000Y-193993000D01*
X292931000Y-187007000D02*
X292931000Y-189460000D01*
X292891000Y-191540000D02*
X292891000Y-194017000D01*
X292891000Y-186983000D02*
X292891000Y-189460000D01*
X292851000Y-191540000D02*
X292851000Y-194040000D01*
X292851000Y-186960000D02*
X292851000Y-189460000D01*
X292811000Y-191540000D02*
X292811000Y-194062000D01*
X292811000Y-186938000D02*
X292811000Y-189460000D01*
X292771000Y-191540000D02*
X292771000Y-194084000D01*
X292771000Y-186916000D02*
X292771000Y-189460000D01*
X292731000Y-191540000D02*
X292731000Y-194106000D01*
X292731000Y-186894000D02*
X292731000Y-189460000D01*
X292691000Y-191540000D02*
X292691000Y-194127000D01*
X292691000Y-186873000D02*
X292691000Y-189460000D01*
X292651000Y-191540000D02*
X292651000Y-194147000D01*
X292651000Y-186853000D02*
X292651000Y-189460000D01*
X292611000Y-191540000D02*
X292611000Y-194166000D01*
X292611000Y-186834000D02*
X292611000Y-189460000D01*
X292571000Y-191540000D02*
X292571000Y-194186000D01*
X292571000Y-186814000D02*
X292571000Y-189460000D01*
X292531000Y-191540000D02*
X292531000Y-194204000D01*
X292531000Y-186796000D02*
X292531000Y-189460000D01*
X292491000Y-191540000D02*
X292491000Y-194222000D01*
X292491000Y-186778000D02*
X292491000Y-189460000D01*
X292451000Y-191540000D02*
X292451000Y-194240000D01*
X292451000Y-186760000D02*
X292451000Y-189460000D01*
X292411000Y-191540000D02*
X292411000Y-194257000D01*
X292411000Y-186743000D02*
X292411000Y-189460000D01*
X292371000Y-191540000D02*
X292371000Y-194274000D01*
X292371000Y-186726000D02*
X292371000Y-189460000D01*
X292331000Y-191540000D02*
X292331000Y-194290000D01*
X292331000Y-186710000D02*
X292331000Y-189460000D01*
X292291000Y-191540000D02*
X292291000Y-194305000D01*
X292291000Y-186695000D02*
X292291000Y-189460000D01*
X292251000Y-191540000D02*
X292251000Y-194321000D01*
X292251000Y-186679000D02*
X292251000Y-189460000D01*
X292211000Y-191540000D02*
X292211000Y-194335000D01*
X292211000Y-186665000D02*
X292211000Y-189460000D01*
X292171000Y-191540000D02*
X292171000Y-194350000D01*
X292171000Y-186650000D02*
X292171000Y-189460000D01*
X292131000Y-191540000D02*
X292131000Y-194363000D01*
X292131000Y-186637000D02*
X292131000Y-189460000D01*
X292091000Y-191540000D02*
X292091000Y-194377000D01*
X292091000Y-186623000D02*
X292091000Y-189460000D01*
X292051000Y-191540000D02*
X292051000Y-194389000D01*
X292051000Y-186611000D02*
X292051000Y-189460000D01*
X292011000Y-191540000D02*
X292011000Y-194402000D01*
X292011000Y-186598000D02*
X292011000Y-189460000D01*
X291971000Y-191540000D02*
X291971000Y-194414000D01*
X291971000Y-186586000D02*
X291971000Y-189460000D01*
X291931000Y-191540000D02*
X291931000Y-194425000D01*
X291931000Y-186575000D02*
X291931000Y-189460000D01*
X291891000Y-191540000D02*
X291891000Y-194436000D01*
X291891000Y-186564000D02*
X291891000Y-189460000D01*
X291851000Y-191540000D02*
X291851000Y-194447000D01*
X291851000Y-186553000D02*
X291851000Y-189460000D01*
X291811000Y-191540000D02*
X291811000Y-194457000D01*
X291811000Y-186543000D02*
X291811000Y-189460000D01*
X291771000Y-191540000D02*
X291771000Y-194467000D01*
X291771000Y-186533000D02*
X291771000Y-189460000D01*
X291731000Y-191540000D02*
X291731000Y-194476000D01*
X291731000Y-186524000D02*
X291731000Y-189460000D01*
X291691000Y-191540000D02*
X291691000Y-194485000D01*
X291691000Y-186515000D02*
X291691000Y-189460000D01*
X291651000Y-191540000D02*
X291651000Y-194494000D01*
X291651000Y-186506000D02*
X291651000Y-189460000D01*
X291611000Y-191540000D02*
X291611000Y-194502000D01*
X291611000Y-186498000D02*
X291611000Y-189460000D01*
X291571000Y-191540000D02*
X291571000Y-194510000D01*
X291571000Y-186490000D02*
X291571000Y-189460000D01*
X291531000Y-191540000D02*
X291531000Y-194517000D01*
X291531000Y-186483000D02*
X291531000Y-189460000D01*
X291490000Y-191540000D02*
X291490000Y-194524000D01*
X291490000Y-186476000D02*
X291490000Y-189460000D01*
X291450000Y-191540000D02*
X291450000Y-194530000D01*
X291450000Y-186470000D02*
X291450000Y-189460000D01*
X291410000Y-191540000D02*
X291410000Y-194537000D01*
X291410000Y-186463000D02*
X291410000Y-189460000D01*
X291370000Y-191540000D02*
X291370000Y-194542000D01*
X291370000Y-186458000D02*
X291370000Y-189460000D01*
X291330000Y-191540000D02*
X291330000Y-194548000D01*
X291330000Y-186452000D02*
X291330000Y-189460000D01*
X291290000Y-191540000D02*
X291290000Y-194552000D01*
X291290000Y-186448000D02*
X291290000Y-189460000D01*
X291250000Y-191540000D02*
X291250000Y-194557000D01*
X291250000Y-186443000D02*
X291250000Y-189460000D01*
X291210000Y-191540000D02*
X291210000Y-194561000D01*
X291210000Y-186439000D02*
X291210000Y-189460000D01*
X291170000Y-191540000D02*
X291170000Y-194565000D01*
X291170000Y-186435000D02*
X291170000Y-189460000D01*
X291130000Y-191540000D02*
X291130000Y-194568000D01*
X291130000Y-186432000D02*
X291130000Y-189460000D01*
X291090000Y-191540000D02*
X291090000Y-194571000D01*
X291090000Y-186429000D02*
X291090000Y-189460000D01*
X291050000Y-191540000D02*
X291050000Y-194574000D01*
X291050000Y-186426000D02*
X291050000Y-189460000D01*
X291010000Y-186424000D02*
X291010000Y-194576000D01*
X290970000Y-186423000D02*
X290970000Y-194577000D01*
X290930000Y-186421000D02*
X290930000Y-194579000D01*
X290890000Y-186420000D02*
X290890000Y-194580000D01*
X290850000Y-186420000D02*
X290850000Y-194580000D01*
X290810000Y-186420000D02*
X290810000Y-194580000D01*
X294930000Y-190500000D02*
G75*
G03*
X294930000Y-190500000I-4120000J0D01*
G01*
%TO.C,J11*%
X246828000Y-123511000D02*
X249428000Y-123511000D01*
X246828000Y-123511000D02*
X246828000Y-128711000D01*
X246828000Y-128711000D02*
X252028000Y-128711000D01*
X252028000Y-126111000D02*
X252028000Y-128711000D01*
X249428000Y-126111000D02*
X252028000Y-126111000D01*
X249428000Y-123511000D02*
X249428000Y-126111000D01*
X252028000Y-123511000D02*
X252028000Y-124841000D01*
X250698000Y-123511000D02*
X252028000Y-123511000D01*
%TO.C,J12*%
X198100000Y-101680000D02*
X198100000Y-107650000D01*
X198100000Y-107650000D02*
X208220000Y-107650000D01*
X208220000Y-107650000D02*
X208220000Y-101680000D01*
X208220000Y-101680000D02*
X198100000Y-101680000D01*
X201410000Y-101690000D02*
X201410000Y-102440000D01*
X201410000Y-102440000D02*
X204910000Y-102440000D01*
X204910000Y-102440000D02*
X204910000Y-101690000D01*
X204910000Y-101690000D02*
X201410000Y-101690000D01*
X198110000Y-101690000D02*
X198110000Y-102440000D01*
X198110000Y-102440000D02*
X199910000Y-102440000D01*
X199910000Y-102440000D02*
X199910000Y-101690000D01*
X199910000Y-101690000D02*
X198110000Y-101690000D01*
X206410000Y-101690000D02*
X206410000Y-102440000D01*
X206410000Y-102440000D02*
X208210000Y-102440000D01*
X208210000Y-102440000D02*
X208210000Y-101690000D01*
X208210000Y-101690000D02*
X206410000Y-101690000D01*
X198110000Y-103940000D02*
X198860000Y-103940000D01*
X198860000Y-103940000D02*
X198860000Y-106890000D01*
X198860000Y-106890000D02*
X203160000Y-106890000D01*
X208210000Y-103940000D02*
X207460000Y-103940000D01*
X207460000Y-103940000D02*
X207460000Y-106890000D01*
X207460000Y-106890000D02*
X203160000Y-106890000D01*
X199060000Y-101390000D02*
X197810000Y-101390000D01*
X197810000Y-101390000D02*
X197810000Y-102640000D01*
%TO.C,J13*%
X201870000Y-112970000D02*
X204470000Y-112970000D01*
X201870000Y-112970000D02*
X201870000Y-118170000D01*
X201870000Y-118170000D02*
X207070000Y-118170000D01*
X207070000Y-115570000D02*
X207070000Y-118170000D01*
X204470000Y-115570000D02*
X207070000Y-115570000D01*
X204470000Y-112970000D02*
X204470000Y-115570000D01*
X207070000Y-112970000D02*
X207070000Y-114300000D01*
X205740000Y-112970000D02*
X207070000Y-112970000D01*
%TO.C,J14*%
X228540000Y-121980000D02*
X233740000Y-121980000D01*
X228540000Y-114300000D02*
X228540000Y-121980000D01*
X233740000Y-111700000D02*
X233740000Y-121980000D01*
X228540000Y-114300000D02*
X231140000Y-114300000D01*
X231140000Y-114300000D02*
X231140000Y-111700000D01*
X231140000Y-111700000D02*
X233740000Y-111700000D01*
X228540000Y-113030000D02*
X228540000Y-111700000D01*
X228540000Y-111700000D02*
X229870000Y-111700000D01*
%TO.C,REF\u002A\u002A*%
D10*
X352166666Y-266452380D02*
X351833333Y-265976190D01*
X351595238Y-266452380D02*
X351595238Y-265452380D01*
X351976190Y-265452380D01*
X352071428Y-265500000D01*
X352119047Y-265547619D01*
X352166666Y-265642857D01*
X352166666Y-265785714D01*
X352119047Y-265880952D01*
X352071428Y-265928571D01*
X351976190Y-265976190D01*
X351595238Y-265976190D01*
X352595238Y-265928571D02*
X352928571Y-265928571D01*
X353071428Y-266452380D02*
X352595238Y-266452380D01*
X352595238Y-265452380D01*
X353071428Y-265452380D01*
X353833333Y-265928571D02*
X353500000Y-265928571D01*
X353500000Y-266452380D02*
X353500000Y-265452380D01*
X353976190Y-265452380D01*
X354500000Y-265452380D02*
X354500000Y-265690476D01*
X354261904Y-265595238D02*
X354500000Y-265690476D01*
X354738095Y-265595238D01*
X354357142Y-265880952D02*
X354500000Y-265690476D01*
X354642857Y-265880952D01*
X355261904Y-265452380D02*
X355261904Y-265690476D01*
X355023809Y-265595238D02*
X355261904Y-265690476D01*
X355500000Y-265595238D01*
X355119047Y-265880952D02*
X355261904Y-265690476D01*
X355404761Y-265880952D01*
X354916666Y-234452380D02*
X354583333Y-233976190D01*
X354345238Y-234452380D02*
X354345238Y-233452380D01*
X354726190Y-233452380D01*
X354821428Y-233500000D01*
X354869047Y-233547619D01*
X354916666Y-233642857D01*
X354916666Y-233785714D01*
X354869047Y-233880952D01*
X354821428Y-233928571D01*
X354726190Y-233976190D01*
X354345238Y-233976190D01*
X355345238Y-233928571D02*
X355678571Y-233928571D01*
X355821428Y-234452380D02*
X355345238Y-234452380D01*
X355345238Y-233452380D01*
X355821428Y-233452380D01*
X356583333Y-233928571D02*
X356250000Y-233928571D01*
X356250000Y-234452380D02*
X356250000Y-233452380D01*
X356726190Y-233452380D01*
X357250000Y-233452380D02*
X357250000Y-233690476D01*
X357011904Y-233595238D02*
X357250000Y-233690476D01*
X357488095Y-233595238D01*
X357107142Y-233880952D02*
X357250000Y-233690476D01*
X357392857Y-233880952D01*
X358011904Y-233452380D02*
X358011904Y-233690476D01*
X357773809Y-233595238D02*
X358011904Y-233690476D01*
X358250000Y-233595238D01*
X357869047Y-233880952D02*
X358011904Y-233690476D01*
X358154761Y-233880952D01*
X192666666Y-233952380D02*
X192333333Y-233476190D01*
X192095238Y-233952380D02*
X192095238Y-232952380D01*
X192476190Y-232952380D01*
X192571428Y-233000000D01*
X192619047Y-233047619D01*
X192666666Y-233142857D01*
X192666666Y-233285714D01*
X192619047Y-233380952D01*
X192571428Y-233428571D01*
X192476190Y-233476190D01*
X192095238Y-233476190D01*
X193095238Y-233428571D02*
X193428571Y-233428571D01*
X193571428Y-233952380D02*
X193095238Y-233952380D01*
X193095238Y-232952380D01*
X193571428Y-232952380D01*
X194333333Y-233428571D02*
X194000000Y-233428571D01*
X194000000Y-233952380D02*
X194000000Y-232952380D01*
X194476190Y-232952380D01*
X195000000Y-232952380D02*
X195000000Y-233190476D01*
X194761904Y-233095238D02*
X195000000Y-233190476D01*
X195238095Y-233095238D01*
X194857142Y-233380952D02*
X195000000Y-233190476D01*
X195142857Y-233380952D01*
X195761904Y-232952380D02*
X195761904Y-233190476D01*
X195523809Y-233095238D02*
X195761904Y-233190476D01*
X196000000Y-233095238D01*
X195619047Y-233380952D02*
X195761904Y-233190476D01*
X195904761Y-233380952D01*
X192916666Y-192952380D02*
X192583333Y-192476190D01*
X192345238Y-192952380D02*
X192345238Y-191952380D01*
X192726190Y-191952380D01*
X192821428Y-192000000D01*
X192869047Y-192047619D01*
X192916666Y-192142857D01*
X192916666Y-192285714D01*
X192869047Y-192380952D01*
X192821428Y-192428571D01*
X192726190Y-192476190D01*
X192345238Y-192476190D01*
X193345238Y-192428571D02*
X193678571Y-192428571D01*
X193821428Y-192952380D02*
X193345238Y-192952380D01*
X193345238Y-191952380D01*
X193821428Y-191952380D01*
X194583333Y-192428571D02*
X194250000Y-192428571D01*
X194250000Y-192952380D02*
X194250000Y-191952380D01*
X194726190Y-191952380D01*
X195250000Y-191952380D02*
X195250000Y-192190476D01*
X195011904Y-192095238D02*
X195250000Y-192190476D01*
X195488095Y-192095238D01*
X195107142Y-192380952D02*
X195250000Y-192190476D01*
X195392857Y-192380952D01*
X196011904Y-191952380D02*
X196011904Y-192190476D01*
X195773809Y-192095238D02*
X196011904Y-192190476D01*
X196250000Y-192095238D01*
X195869047Y-192380952D02*
X196011904Y-192190476D01*
X196154761Y-192380952D01*
X353916666Y-193202380D02*
X353583333Y-192726190D01*
X353345238Y-193202380D02*
X353345238Y-192202380D01*
X353726190Y-192202380D01*
X353821428Y-192250000D01*
X353869047Y-192297619D01*
X353916666Y-192392857D01*
X353916666Y-192535714D01*
X353869047Y-192630952D01*
X353821428Y-192678571D01*
X353726190Y-192726190D01*
X353345238Y-192726190D01*
X354345238Y-192678571D02*
X354678571Y-192678571D01*
X354821428Y-193202380D02*
X354345238Y-193202380D01*
X354345238Y-192202380D01*
X354821428Y-192202380D01*
X355583333Y-192678571D02*
X355250000Y-192678571D01*
X355250000Y-193202380D02*
X355250000Y-192202380D01*
X355726190Y-192202380D01*
X356250000Y-192202380D02*
X356250000Y-192440476D01*
X356011904Y-192345238D02*
X356250000Y-192440476D01*
X356488095Y-192345238D01*
X356107142Y-192630952D02*
X356250000Y-192440476D01*
X356392857Y-192630952D01*
X357011904Y-192202380D02*
X357011904Y-192440476D01*
X356773809Y-192345238D02*
X357011904Y-192440476D01*
X357250000Y-192345238D01*
X356869047Y-192630952D02*
X357011904Y-192440476D01*
X357154761Y-192630952D01*
X193166666Y-103452380D02*
X192833333Y-102976190D01*
X192595238Y-103452380D02*
X192595238Y-102452380D01*
X192976190Y-102452380D01*
X193071428Y-102500000D01*
X193119047Y-102547619D01*
X193166666Y-102642857D01*
X193166666Y-102785714D01*
X193119047Y-102880952D01*
X193071428Y-102928571D01*
X192976190Y-102976190D01*
X192595238Y-102976190D01*
X193595238Y-102928571D02*
X193928571Y-102928571D01*
X194071428Y-103452380D02*
X193595238Y-103452380D01*
X193595238Y-102452380D01*
X194071428Y-102452380D01*
X194833333Y-102928571D02*
X194500000Y-102928571D01*
X194500000Y-103452380D02*
X194500000Y-102452380D01*
X194976190Y-102452380D01*
X195500000Y-102452380D02*
X195500000Y-102690476D01*
X195261904Y-102595238D02*
X195500000Y-102690476D01*
X195738095Y-102595238D01*
X195357142Y-102880952D02*
X195500000Y-102690476D01*
X195642857Y-102880952D01*
X196261904Y-102452380D02*
X196261904Y-102690476D01*
X196023809Y-102595238D02*
X196261904Y-102690476D01*
X196500000Y-102595238D01*
X196119047Y-102880952D02*
X196261904Y-102690476D01*
X196404761Y-102880952D01*
X354416666Y-103202380D02*
X354083333Y-102726190D01*
X353845238Y-103202380D02*
X353845238Y-102202380D01*
X354226190Y-102202380D01*
X354321428Y-102250000D01*
X354369047Y-102297619D01*
X354416666Y-102392857D01*
X354416666Y-102535714D01*
X354369047Y-102630952D01*
X354321428Y-102678571D01*
X354226190Y-102726190D01*
X353845238Y-102726190D01*
X354845238Y-102678571D02*
X355178571Y-102678571D01*
X355321428Y-103202380D02*
X354845238Y-103202380D01*
X354845238Y-102202380D01*
X355321428Y-102202380D01*
X356083333Y-102678571D02*
X355750000Y-102678571D01*
X355750000Y-103202380D02*
X355750000Y-102202380D01*
X356226190Y-102202380D01*
X356750000Y-102202380D02*
X356750000Y-102440476D01*
X356511904Y-102345238D02*
X356750000Y-102440476D01*
X356988095Y-102345238D01*
X356607142Y-102630952D02*
X356750000Y-102440476D01*
X356892857Y-102630952D01*
X357511904Y-102202380D02*
X357511904Y-102440476D01*
X357273809Y-102345238D02*
X357511904Y-102440476D01*
X357750000Y-102345238D01*
X357369047Y-102630952D02*
X357511904Y-102440476D01*
X357654761Y-102630952D01*
%TO.C,J16*%
X368602380Y-206709523D02*
X369316666Y-206709523D01*
X369459523Y-206757142D01*
X369554761Y-206852380D01*
X369602380Y-206995238D01*
X369602380Y-207090476D01*
X369602380Y-205709523D02*
X369602380Y-206280952D01*
X369602380Y-205995238D02*
X368602380Y-205995238D01*
X368745238Y-206090476D01*
X368840476Y-206185714D01*
X368888095Y-206280952D01*
X368602380Y-204852380D02*
X368602380Y-205042857D01*
X368650000Y-205138095D01*
X368697619Y-205185714D01*
X368840476Y-205280952D01*
X369030952Y-205328571D01*
X369411904Y-205328571D01*
X369507142Y-205280952D01*
X369554761Y-205233333D01*
X369602380Y-205138095D01*
X369602380Y-204947619D01*
X369554761Y-204852380D01*
X369507142Y-204804761D01*
X369411904Y-204757142D01*
X369173809Y-204757142D01*
X369078571Y-204804761D01*
X369030952Y-204852380D01*
X368983333Y-204947619D01*
X368983333Y-205138095D01*
X369030952Y-205233333D01*
X369078571Y-205280952D01*
X369173809Y-205328571D01*
X409107142Y-214566666D02*
X409154761Y-214614285D01*
X409202380Y-214757142D01*
X409202380Y-214852380D01*
X409154761Y-214995238D01*
X409059523Y-215090476D01*
X408964285Y-215138095D01*
X408773809Y-215185714D01*
X408630952Y-215185714D01*
X408440476Y-215138095D01*
X408345238Y-215090476D01*
X408250000Y-214995238D01*
X408202380Y-214852380D01*
X408202380Y-214757142D01*
X408250000Y-214614285D01*
X408297619Y-214566666D01*
X409202380Y-213995238D02*
X409154761Y-214090476D01*
X409107142Y-214138095D01*
X409011904Y-214185714D01*
X408726190Y-214185714D01*
X408630952Y-214138095D01*
X408583333Y-214090476D01*
X408535714Y-213995238D01*
X408535714Y-213852380D01*
X408583333Y-213757142D01*
X408630952Y-213709523D01*
X408726190Y-213661904D01*
X409011904Y-213661904D01*
X409107142Y-213709523D01*
X409154761Y-213757142D01*
X409202380Y-213852380D01*
X409202380Y-213995238D01*
X408535714Y-213233333D02*
X409202380Y-213233333D01*
X408630952Y-213233333D02*
X408583333Y-213185714D01*
X408535714Y-213090476D01*
X408535714Y-212947619D01*
X408583333Y-212852380D01*
X408678571Y-212804761D01*
X409202380Y-212804761D01*
X408535714Y-212328571D02*
X409202380Y-212328571D01*
X408630952Y-212328571D02*
X408583333Y-212280952D01*
X408535714Y-212185714D01*
X408535714Y-212042857D01*
X408583333Y-211947619D01*
X408678571Y-211900000D01*
X409202380Y-211900000D01*
X409297619Y-211661904D02*
X409297619Y-210900000D01*
X408202380Y-210471428D02*
X408202380Y-210376190D01*
X408250000Y-210280952D01*
X408297619Y-210233333D01*
X408392857Y-210185714D01*
X408583333Y-210138095D01*
X408821428Y-210138095D01*
X409011904Y-210185714D01*
X409107142Y-210233333D01*
X409154761Y-210280952D01*
X409202380Y-210376190D01*
X409202380Y-210471428D01*
X409154761Y-210566666D01*
X409107142Y-210614285D01*
X409011904Y-210661904D01*
X408821428Y-210709523D01*
X408583333Y-210709523D01*
X408392857Y-210661904D01*
X408297619Y-210614285D01*
X408250000Y-210566666D01*
X408202380Y-210471428D01*
X409202380Y-209185714D02*
X409202380Y-209757142D01*
X409202380Y-209471428D02*
X408202380Y-209471428D01*
X408345238Y-209566666D01*
X408440476Y-209661904D01*
X408488095Y-209757142D01*
X409202380Y-208852380D02*
X408535714Y-208328571D01*
X408535714Y-208852380D02*
X409202380Y-208328571D01*
X408202380Y-207757142D02*
X408202380Y-207661904D01*
X408250000Y-207566666D01*
X408297619Y-207519047D01*
X408392857Y-207471428D01*
X408583333Y-207423809D01*
X408821428Y-207423809D01*
X409011904Y-207471428D01*
X409107142Y-207519047D01*
X409154761Y-207566666D01*
X409202380Y-207661904D01*
X409202380Y-207757142D01*
X409154761Y-207852380D01*
X409107142Y-207900000D01*
X409011904Y-207947619D01*
X408821428Y-207995238D01*
X408583333Y-207995238D01*
X408392857Y-207947619D01*
X408297619Y-207900000D01*
X408250000Y-207852380D01*
X408202380Y-207757142D01*
X408535714Y-206566666D02*
X409202380Y-206566666D01*
X408154761Y-206804761D02*
X408869047Y-207042857D01*
X408869047Y-206423809D01*
X409297619Y-206280952D02*
X409297619Y-205519047D01*
X409202380Y-205280952D02*
X408202380Y-205280952D01*
X408916666Y-204947619D01*
X408202380Y-204614285D01*
X409202380Y-204614285D01*
X409202380Y-203995238D02*
X409154761Y-204090476D01*
X409107142Y-204138095D01*
X409011904Y-204185714D01*
X408726190Y-204185714D01*
X408630952Y-204138095D01*
X408583333Y-204090476D01*
X408535714Y-203995238D01*
X408535714Y-203852380D01*
X408583333Y-203757142D01*
X408630952Y-203709523D01*
X408726190Y-203661904D01*
X409011904Y-203661904D01*
X409107142Y-203709523D01*
X409154761Y-203757142D01*
X409202380Y-203852380D01*
X409202380Y-203995238D01*
X408535714Y-202804761D02*
X409202380Y-202804761D01*
X408535714Y-203233333D02*
X409059523Y-203233333D01*
X409154761Y-203185714D01*
X409202380Y-203090476D01*
X409202380Y-202947619D01*
X409154761Y-202852380D01*
X409107142Y-202804761D01*
X408535714Y-202328571D02*
X409202380Y-202328571D01*
X408630952Y-202328571D02*
X408583333Y-202280952D01*
X408535714Y-202185714D01*
X408535714Y-202042857D01*
X408583333Y-201947619D01*
X408678571Y-201900000D01*
X409202380Y-201900000D01*
X408535714Y-201566666D02*
X408535714Y-201185714D01*
X408202380Y-201423809D02*
X409059523Y-201423809D01*
X409154761Y-201376190D01*
X409202380Y-201280952D01*
X409202380Y-201185714D01*
X409202380Y-200852380D02*
X408535714Y-200852380D01*
X408202380Y-200852380D02*
X408250000Y-200900000D01*
X408297619Y-200852380D01*
X408250000Y-200804761D01*
X408202380Y-200852380D01*
X408297619Y-200852380D01*
X408535714Y-200376190D02*
X409202380Y-200376190D01*
X408630952Y-200376190D02*
X408583333Y-200328571D01*
X408535714Y-200233333D01*
X408535714Y-200090476D01*
X408583333Y-199995238D01*
X408678571Y-199947619D01*
X409202380Y-199947619D01*
X408535714Y-199042857D02*
X409345238Y-199042857D01*
X409440476Y-199090476D01*
X409488095Y-199138095D01*
X409535714Y-199233333D01*
X409535714Y-199376190D01*
X409488095Y-199471428D01*
X409154761Y-199042857D02*
X409202380Y-199138095D01*
X409202380Y-199328571D01*
X409154761Y-199423809D01*
X409107142Y-199471428D01*
X409011904Y-199519047D01*
X408726190Y-199519047D01*
X408630952Y-199471428D01*
X408583333Y-199423809D01*
X408535714Y-199328571D01*
X408535714Y-199138095D01*
X408583333Y-199042857D01*
X409202380Y-198566666D02*
X408202380Y-198566666D01*
X408202380Y-198185714D01*
X408250000Y-198090476D01*
X408297619Y-198042857D01*
X408392857Y-197995238D01*
X408535714Y-197995238D01*
X408630952Y-198042857D01*
X408678571Y-198090476D01*
X408726190Y-198185714D01*
X408726190Y-198566666D01*
X409202380Y-197566666D02*
X408535714Y-197566666D01*
X408202380Y-197566666D02*
X408250000Y-197614285D01*
X408297619Y-197566666D01*
X408250000Y-197519047D01*
X408202380Y-197566666D01*
X408297619Y-197566666D01*
X408535714Y-197090476D02*
X409202380Y-197090476D01*
X408630952Y-197090476D02*
X408583333Y-197042857D01*
X408535714Y-196947619D01*
X408535714Y-196804761D01*
X408583333Y-196709523D01*
X408678571Y-196661904D01*
X409202380Y-196661904D01*
X373722780Y-207308733D02*
X373246590Y-207642066D01*
X373722780Y-207880161D02*
X372722780Y-207880161D01*
X372722780Y-207499209D01*
X372770400Y-207403971D01*
X372818019Y-207356352D01*
X372913257Y-207308733D01*
X373056114Y-207308733D01*
X373151352Y-207356352D01*
X373198971Y-207403971D01*
X373246590Y-207499209D01*
X373246590Y-207880161D01*
X373198971Y-206880161D02*
X373198971Y-206546828D01*
X373722780Y-206403971D02*
X373722780Y-206880161D01*
X372722780Y-206880161D01*
X372722780Y-206403971D01*
X373198971Y-205642066D02*
X373198971Y-205975400D01*
X373722780Y-205975400D02*
X372722780Y-205975400D01*
X372722780Y-205499209D01*
X372722780Y-204975400D02*
X372960876Y-204975400D01*
X372865638Y-205213495D02*
X372960876Y-204975400D01*
X372865638Y-204737304D01*
X373151352Y-205118257D02*
X372960876Y-204975400D01*
X373151352Y-204832542D01*
X372722780Y-204213495D02*
X372960876Y-204213495D01*
X372865638Y-204451590D02*
X372960876Y-204213495D01*
X372865638Y-203975400D01*
X373151352Y-204356352D02*
X372960876Y-204213495D01*
X373151352Y-204070638D01*
X404286666Y-164972380D02*
X403953333Y-164496190D01*
X403715238Y-164972380D02*
X403715238Y-163972380D01*
X404096190Y-163972380D01*
X404191428Y-164020000D01*
X404239047Y-164067619D01*
X404286666Y-164162857D01*
X404286666Y-164305714D01*
X404239047Y-164400952D01*
X404191428Y-164448571D01*
X404096190Y-164496190D01*
X403715238Y-164496190D01*
X404715238Y-164448571D02*
X405048571Y-164448571D01*
X405191428Y-164972380D02*
X404715238Y-164972380D01*
X404715238Y-163972380D01*
X405191428Y-163972380D01*
X405953333Y-164448571D02*
X405620000Y-164448571D01*
X405620000Y-164972380D02*
X405620000Y-163972380D01*
X406096190Y-163972380D01*
X406620000Y-163972380D02*
X406620000Y-164210476D01*
X406381904Y-164115238D02*
X406620000Y-164210476D01*
X406858095Y-164115238D01*
X406477142Y-164400952D02*
X406620000Y-164210476D01*
X406762857Y-164400952D01*
X407381904Y-163972380D02*
X407381904Y-164210476D01*
X407143809Y-164115238D02*
X407381904Y-164210476D01*
X407620000Y-164115238D01*
X407239047Y-164400952D02*
X407381904Y-164210476D01*
X407524761Y-164400952D01*
X372816666Y-165182380D02*
X372483333Y-164706190D01*
X372245238Y-165182380D02*
X372245238Y-164182380D01*
X372626190Y-164182380D01*
X372721428Y-164230000D01*
X372769047Y-164277619D01*
X372816666Y-164372857D01*
X372816666Y-164515714D01*
X372769047Y-164610952D01*
X372721428Y-164658571D01*
X372626190Y-164706190D01*
X372245238Y-164706190D01*
X373245238Y-164658571D02*
X373578571Y-164658571D01*
X373721428Y-165182380D02*
X373245238Y-165182380D01*
X373245238Y-164182380D01*
X373721428Y-164182380D01*
X374483333Y-164658571D02*
X374150000Y-164658571D01*
X374150000Y-165182380D02*
X374150000Y-164182380D01*
X374626190Y-164182380D01*
X375150000Y-164182380D02*
X375150000Y-164420476D01*
X374911904Y-164325238D02*
X375150000Y-164420476D01*
X375388095Y-164325238D01*
X375007142Y-164610952D02*
X375150000Y-164420476D01*
X375292857Y-164610952D01*
X375911904Y-164182380D02*
X375911904Y-164420476D01*
X375673809Y-164325238D02*
X375911904Y-164420476D01*
X376150000Y-164325238D01*
X375769047Y-164610952D02*
X375911904Y-164420476D01*
X376054761Y-164610952D01*
X388556666Y-161132380D02*
X388223333Y-160656190D01*
X387985238Y-161132380D02*
X387985238Y-160132380D01*
X388366190Y-160132380D01*
X388461428Y-160180000D01*
X388509047Y-160227619D01*
X388556666Y-160322857D01*
X388556666Y-160465714D01*
X388509047Y-160560952D01*
X388461428Y-160608571D01*
X388366190Y-160656190D01*
X387985238Y-160656190D01*
X388985238Y-160608571D02*
X389318571Y-160608571D01*
X389461428Y-161132380D02*
X388985238Y-161132380D01*
X388985238Y-160132380D01*
X389461428Y-160132380D01*
X390223333Y-160608571D02*
X389890000Y-160608571D01*
X389890000Y-161132380D02*
X389890000Y-160132380D01*
X390366190Y-160132380D01*
X390890000Y-160132380D02*
X390890000Y-160370476D01*
X390651904Y-160275238D02*
X390890000Y-160370476D01*
X391128095Y-160275238D01*
X390747142Y-160560952D02*
X390890000Y-160370476D01*
X391032857Y-160560952D01*
X391651904Y-160132380D02*
X391651904Y-160370476D01*
X391413809Y-160275238D02*
X391651904Y-160370476D01*
X391890000Y-160275238D01*
X391509047Y-160560952D02*
X391651904Y-160370476D01*
X391794761Y-160560952D01*
%TO.C,J15*%
X301590476Y-100432380D02*
X301590476Y-101146666D01*
X301542857Y-101289523D01*
X301447619Y-101384761D01*
X301304761Y-101432380D01*
X301209523Y-101432380D01*
X302590476Y-101432380D02*
X302019047Y-101432380D01*
X302304761Y-101432380D02*
X302304761Y-100432380D01*
X302209523Y-100575238D01*
X302114285Y-100670476D01*
X302019047Y-100718095D01*
X303495238Y-100432380D02*
X303019047Y-100432380D01*
X302971428Y-100908571D01*
X303019047Y-100860952D01*
X303114285Y-100813333D01*
X303352380Y-100813333D01*
X303447619Y-100860952D01*
X303495238Y-100908571D01*
X303542857Y-101003809D01*
X303542857Y-101241904D01*
X303495238Y-101337142D01*
X303447619Y-101384761D01*
X303352380Y-101432380D01*
X303114285Y-101432380D01*
X303019047Y-101384761D01*
X302971428Y-101337142D01*
%TO.C,U7*%
X234710380Y-213460704D02*
X235519904Y-213460704D01*
X235615142Y-213413085D01*
X235662761Y-213365466D01*
X235710380Y-213270228D01*
X235710380Y-213079752D01*
X235662761Y-212984514D01*
X235615142Y-212936895D01*
X235519904Y-212889276D01*
X234710380Y-212889276D01*
X234710380Y-212508323D02*
X234710380Y-211841657D01*
X235710380Y-212270228D01*
%TO.C,U15*%
X258830380Y-118459095D02*
X259639904Y-118459095D01*
X259735142Y-118411476D01*
X259782761Y-118363857D01*
X259830380Y-118268619D01*
X259830380Y-118078142D01*
X259782761Y-117982904D01*
X259735142Y-117935285D01*
X259639904Y-117887666D01*
X258830380Y-117887666D01*
X259830380Y-116887666D02*
X259830380Y-117459095D01*
X259830380Y-117173380D02*
X258830380Y-117173380D01*
X258973238Y-117268619D01*
X259068476Y-117363857D01*
X259116095Y-117459095D01*
X258830380Y-115982904D02*
X258830380Y-116459095D01*
X259306571Y-116506714D01*
X259258952Y-116459095D01*
X259211333Y-116363857D01*
X259211333Y-116125761D01*
X259258952Y-116030523D01*
X259306571Y-115982904D01*
X259401809Y-115935285D01*
X259639904Y-115935285D01*
X259735142Y-115982904D01*
X259782761Y-116030523D01*
X259830380Y-116125761D01*
X259830380Y-116363857D01*
X259782761Y-116459095D01*
X259735142Y-116506714D01*
%TO.C,U14*%
X352361904Y-260252380D02*
X352361904Y-261061904D01*
X352409523Y-261157142D01*
X352457142Y-261204761D01*
X352552380Y-261252380D01*
X352742857Y-261252380D01*
X352838095Y-261204761D01*
X352885714Y-261157142D01*
X352933333Y-261061904D01*
X352933333Y-260252380D01*
X353933333Y-261252380D02*
X353361904Y-261252380D01*
X353647619Y-261252380D02*
X353647619Y-260252380D01*
X353552380Y-260395238D01*
X353457142Y-260490476D01*
X353361904Y-260538095D01*
X354790476Y-260585714D02*
X354790476Y-261252380D01*
X354552380Y-260204761D02*
X354314285Y-260919047D01*
X354933333Y-260919047D01*
%TO.C,U12*%
D14*
X291670619Y-158229904D02*
X292493095Y-158229904D01*
X292589857Y-158181523D01*
X292638238Y-158133142D01*
X292686619Y-158036380D01*
X292686619Y-157842857D01*
X292638238Y-157746095D01*
X292589857Y-157697714D01*
X292493095Y-157649333D01*
X291670619Y-157649333D01*
X292686619Y-156633333D02*
X292686619Y-157213904D01*
X292686619Y-156923619D02*
X291670619Y-156923619D01*
X291815761Y-157020380D01*
X291912523Y-157117142D01*
X291960904Y-157213904D01*
X291767380Y-156246285D02*
X291719000Y-156197904D01*
X291670619Y-156101142D01*
X291670619Y-155859238D01*
X291719000Y-155762476D01*
X291767380Y-155714095D01*
X291864142Y-155665714D01*
X291960904Y-155665714D01*
X292106047Y-155714095D01*
X292686619Y-156294666D01*
X292686619Y-155665714D01*
X294259000Y-160286095D02*
X294210619Y-160382857D01*
X294210619Y-160528000D01*
X294259000Y-160673142D01*
X294355761Y-160769904D01*
X294452523Y-160818285D01*
X294646047Y-160866666D01*
X294791190Y-160866666D01*
X294984714Y-160818285D01*
X295081476Y-160769904D01*
X295178238Y-160673142D01*
X295226619Y-160528000D01*
X295226619Y-160431238D01*
X295178238Y-160286095D01*
X295129857Y-160237714D01*
X294791190Y-160237714D01*
X294791190Y-160431238D01*
X295226619Y-159802285D02*
X294210619Y-159802285D01*
X295226619Y-159221714D01*
X294210619Y-159221714D01*
X295226619Y-158737904D02*
X294210619Y-158737904D01*
X294210619Y-158496000D01*
X294259000Y-158350857D01*
X294355761Y-158254095D01*
X294452523Y-158205714D01*
X294646047Y-158157333D01*
X294791190Y-158157333D01*
X294984714Y-158205714D01*
X295081476Y-158254095D01*
X295178238Y-158350857D01*
X295226619Y-158496000D01*
X295226619Y-158737904D01*
X296750619Y-160624761D02*
X297766619Y-160286095D01*
X296750619Y-159947428D01*
X297766619Y-159608761D02*
X296750619Y-159608761D01*
X296750619Y-158931428D02*
X296750619Y-158737904D01*
X296799000Y-158641142D01*
X296895761Y-158544380D01*
X297089285Y-158496000D01*
X297427952Y-158496000D01*
X297621476Y-158544380D01*
X297718238Y-158641142D01*
X297766619Y-158737904D01*
X297766619Y-158931428D01*
X297718238Y-159028190D01*
X297621476Y-159124952D01*
X297427952Y-159173333D01*
X297089285Y-159173333D01*
X296895761Y-159124952D01*
X296799000Y-159028190D01*
X296750619Y-158931428D01*
X300306619Y-160842476D02*
X299290619Y-160842476D01*
X300016333Y-160503809D01*
X299290619Y-160165142D01*
X300306619Y-160165142D01*
X300306619Y-159149142D02*
X300306619Y-159729714D01*
X300306619Y-159439428D02*
X299290619Y-159439428D01*
X299435761Y-159536190D01*
X299532523Y-159632952D01*
X299580904Y-159729714D01*
X299774428Y-158375047D02*
X299822809Y-158229904D01*
X299871190Y-158181523D01*
X299967952Y-158133142D01*
X300113095Y-158133142D01*
X300209857Y-158181523D01*
X300258238Y-158229904D01*
X300306619Y-158326666D01*
X300306619Y-158713714D01*
X299290619Y-158713714D01*
X299290619Y-158375047D01*
X299339000Y-158278285D01*
X299387380Y-158229904D01*
X299484142Y-158181523D01*
X299580904Y-158181523D01*
X299677666Y-158229904D01*
X299726047Y-158278285D01*
X299774428Y-158375047D01*
X299774428Y-158713714D01*
X302846619Y-160769904D02*
X301830619Y-160769904D01*
X302556333Y-160431238D01*
X301830619Y-160092571D01*
X302846619Y-160092571D01*
X302846619Y-159076571D02*
X302846619Y-159657142D01*
X302846619Y-159366857D02*
X301830619Y-159366857D01*
X301975761Y-159463619D01*
X302072523Y-159560380D01*
X302120904Y-159657142D01*
X302556333Y-158689523D02*
X302556333Y-158205714D01*
X302846619Y-158786285D02*
X301830619Y-158447619D01*
X302846619Y-158108952D01*
X305386619Y-160769904D02*
X304370619Y-160769904D01*
X305096333Y-160431238D01*
X304370619Y-160092571D01*
X305386619Y-160092571D01*
X304467380Y-159657142D02*
X304419000Y-159608761D01*
X304370619Y-159512000D01*
X304370619Y-159270095D01*
X304419000Y-159173333D01*
X304467380Y-159124952D01*
X304564142Y-159076571D01*
X304660904Y-159076571D01*
X304806047Y-159124952D01*
X305386619Y-159705523D01*
X305386619Y-159076571D01*
X305096333Y-158689523D02*
X305096333Y-158205714D01*
X305386619Y-158786285D02*
X304370619Y-158447619D01*
X305386619Y-158108952D01*
X307926619Y-160842476D02*
X306910619Y-160842476D01*
X307636333Y-160503809D01*
X306910619Y-160165142D01*
X307926619Y-160165142D01*
X307007380Y-159729714D02*
X306959000Y-159681333D01*
X306910619Y-159584571D01*
X306910619Y-159342666D01*
X306959000Y-159245904D01*
X307007380Y-159197523D01*
X307104142Y-159149142D01*
X307200904Y-159149142D01*
X307346047Y-159197523D01*
X307926619Y-159778095D01*
X307926619Y-159149142D01*
X307394428Y-158375047D02*
X307442809Y-158229904D01*
X307491190Y-158181523D01*
X307587952Y-158133142D01*
X307733095Y-158133142D01*
X307829857Y-158181523D01*
X307878238Y-158229904D01*
X307926619Y-158326666D01*
X307926619Y-158713714D01*
X306910619Y-158713714D01*
X306910619Y-158375047D01*
X306959000Y-158278285D01*
X307007380Y-158229904D01*
X307104142Y-158181523D01*
X307200904Y-158181523D01*
X307297666Y-158229904D01*
X307346047Y-158278285D01*
X307394428Y-158375047D01*
X307394428Y-158713714D01*
X309499000Y-160286095D02*
X309450619Y-160382857D01*
X309450619Y-160528000D01*
X309499000Y-160673142D01*
X309595761Y-160769904D01*
X309692523Y-160818285D01*
X309886047Y-160866666D01*
X310031190Y-160866666D01*
X310224714Y-160818285D01*
X310321476Y-160769904D01*
X310418238Y-160673142D01*
X310466619Y-160528000D01*
X310466619Y-160431238D01*
X310418238Y-160286095D01*
X310369857Y-160237714D01*
X310031190Y-160237714D01*
X310031190Y-160431238D01*
X310466619Y-159802285D02*
X309450619Y-159802285D01*
X310466619Y-159221714D01*
X309450619Y-159221714D01*
X310466619Y-158737904D02*
X309450619Y-158737904D01*
X309450619Y-158496000D01*
X309499000Y-158350857D01*
X309595761Y-158254095D01*
X309692523Y-158205714D01*
X309886047Y-158157333D01*
X310031190Y-158157333D01*
X310224714Y-158205714D01*
X310321476Y-158254095D01*
X310418238Y-158350857D01*
X310466619Y-158496000D01*
X310466619Y-158737904D01*
X311990619Y-160431238D02*
X313006619Y-160092571D01*
X311990619Y-159753904D01*
X313006619Y-159415238D02*
X311990619Y-159415238D01*
X312716333Y-159076571D01*
X311990619Y-158737904D01*
X313006619Y-158737904D01*
D15*
X312492571Y-154994428D02*
X312492571Y-154740428D01*
X312891714Y-154631571D02*
X312891714Y-154994428D01*
X312129714Y-154994428D01*
X312129714Y-154631571D01*
X312891714Y-154305000D02*
X312129714Y-154305000D01*
X312891714Y-153869571D01*
X312129714Y-153869571D01*
D14*
X310466619Y-156028571D02*
X309450619Y-156028571D01*
X310176333Y-155689904D01*
X309450619Y-155351238D01*
X310466619Y-155351238D01*
X309450619Y-154673904D02*
X309450619Y-154480380D01*
X309499000Y-154383619D01*
X309595761Y-154286857D01*
X309789285Y-154238476D01*
X310127952Y-154238476D01*
X310321476Y-154286857D01*
X310418238Y-154383619D01*
X310466619Y-154480380D01*
X310466619Y-154673904D01*
X310418238Y-154770666D01*
X310321476Y-154867428D01*
X310127952Y-154915809D01*
X309789285Y-154915809D01*
X309595761Y-154867428D01*
X309499000Y-154770666D01*
X309450619Y-154673904D01*
X310418238Y-153851428D02*
X310466619Y-153706285D01*
X310466619Y-153464380D01*
X310418238Y-153367619D01*
X310369857Y-153319238D01*
X310273095Y-153270857D01*
X310176333Y-153270857D01*
X310079571Y-153319238D01*
X310031190Y-153367619D01*
X309982809Y-153464380D01*
X309934428Y-153657904D01*
X309886047Y-153754666D01*
X309837666Y-153803047D01*
X309740904Y-153851428D01*
X309644142Y-153851428D01*
X309547380Y-153803047D01*
X309499000Y-153754666D01*
X309450619Y-153657904D01*
X309450619Y-153416000D01*
X309499000Y-153270857D01*
X310466619Y-152835428D02*
X309450619Y-152835428D01*
X307878238Y-155738285D02*
X307926619Y-155593142D01*
X307926619Y-155351238D01*
X307878238Y-155254476D01*
X307829857Y-155206095D01*
X307733095Y-155157714D01*
X307636333Y-155157714D01*
X307539571Y-155206095D01*
X307491190Y-155254476D01*
X307442809Y-155351238D01*
X307394428Y-155544761D01*
X307346047Y-155641523D01*
X307297666Y-155689904D01*
X307200904Y-155738285D01*
X307104142Y-155738285D01*
X307007380Y-155689904D01*
X306959000Y-155641523D01*
X306910619Y-155544761D01*
X306910619Y-155302857D01*
X306959000Y-155157714D01*
X307829857Y-154141714D02*
X307878238Y-154190095D01*
X307926619Y-154335238D01*
X307926619Y-154432000D01*
X307878238Y-154577142D01*
X307781476Y-154673904D01*
X307684714Y-154722285D01*
X307491190Y-154770666D01*
X307346047Y-154770666D01*
X307152523Y-154722285D01*
X307055761Y-154673904D01*
X306959000Y-154577142D01*
X306910619Y-154432000D01*
X306910619Y-154335238D01*
X306959000Y-154190095D01*
X307007380Y-154141714D01*
X307926619Y-153706285D02*
X306910619Y-153706285D01*
X307926619Y-153125714D02*
X307346047Y-153561142D01*
X306910619Y-153125714D02*
X307491190Y-153706285D01*
X305289857Y-154601333D02*
X305338238Y-154649714D01*
X305386619Y-154794857D01*
X305386619Y-154891619D01*
X305338238Y-155036761D01*
X305241476Y-155133523D01*
X305144714Y-155181904D01*
X304951190Y-155230285D01*
X304806047Y-155230285D01*
X304612523Y-155181904D01*
X304515761Y-155133523D01*
X304419000Y-155036761D01*
X304370619Y-154891619D01*
X304370619Y-154794857D01*
X304419000Y-154649714D01*
X304467380Y-154601333D01*
X305338238Y-154214285D02*
X305386619Y-154069142D01*
X305386619Y-153827238D01*
X305338238Y-153730476D01*
X305289857Y-153682095D01*
X305193095Y-153633714D01*
X305096333Y-153633714D01*
X304999571Y-153682095D01*
X304951190Y-153730476D01*
X304902809Y-153827238D01*
X304854428Y-154020761D01*
X304806047Y-154117523D01*
X304757666Y-154165904D01*
X304660904Y-154214285D01*
X304564142Y-154214285D01*
X304467380Y-154165904D01*
X304419000Y-154117523D01*
X304370619Y-154020761D01*
X304370619Y-153778857D01*
X304419000Y-153633714D01*
X302846619Y-156028571D02*
X301830619Y-156028571D01*
X302556333Y-155689904D01*
X301830619Y-155351238D01*
X302846619Y-155351238D01*
X302846619Y-154867428D02*
X301830619Y-154867428D01*
X302798238Y-154432000D02*
X302846619Y-154286857D01*
X302846619Y-154044952D01*
X302798238Y-153948190D01*
X302749857Y-153899809D01*
X302653095Y-153851428D01*
X302556333Y-153851428D01*
X302459571Y-153899809D01*
X302411190Y-153948190D01*
X302362809Y-154044952D01*
X302314428Y-154238476D01*
X302266047Y-154335238D01*
X302217666Y-154383619D01*
X302120904Y-154432000D01*
X302024142Y-154432000D01*
X301927380Y-154383619D01*
X301879000Y-154335238D01*
X301830619Y-154238476D01*
X301830619Y-153996571D01*
X301879000Y-153851428D01*
X301830619Y-153222476D02*
X301830619Y-153028952D01*
X301879000Y-152932190D01*
X301975761Y-152835428D01*
X302169285Y-152787047D01*
X302507952Y-152787047D01*
X302701476Y-152835428D01*
X302798238Y-152932190D01*
X302846619Y-153028952D01*
X302846619Y-153222476D01*
X302798238Y-153319238D01*
X302701476Y-153416000D01*
X302507952Y-153464380D01*
X302169285Y-153464380D01*
X301975761Y-153416000D01*
X301879000Y-153319238D01*
X301830619Y-153222476D01*
X300306619Y-155230285D02*
X299290619Y-155230285D01*
X300306619Y-154649714D01*
X299290619Y-154649714D01*
X300209857Y-153585333D02*
X300258238Y-153633714D01*
X300306619Y-153778857D01*
X300306619Y-153875619D01*
X300258238Y-154020761D01*
X300161476Y-154117523D01*
X300064714Y-154165904D01*
X299871190Y-154214285D01*
X299726047Y-154214285D01*
X299532523Y-154165904D01*
X299435761Y-154117523D01*
X299339000Y-154020761D01*
X299290619Y-153875619D01*
X299290619Y-153778857D01*
X299339000Y-153633714D01*
X299387380Y-153585333D01*
X297718238Y-156076952D02*
X297766619Y-155931809D01*
X297766619Y-155689904D01*
X297718238Y-155593142D01*
X297669857Y-155544761D01*
X297573095Y-155496380D01*
X297476333Y-155496380D01*
X297379571Y-155544761D01*
X297331190Y-155593142D01*
X297282809Y-155689904D01*
X297234428Y-155883428D01*
X297186047Y-155980190D01*
X297137666Y-156028571D01*
X297040904Y-156076952D01*
X296944142Y-156076952D01*
X296847380Y-156028571D01*
X296799000Y-155980190D01*
X296750619Y-155883428D01*
X296750619Y-155641523D01*
X296799000Y-155496380D01*
X296750619Y-155206095D02*
X296750619Y-154625523D01*
X297766619Y-154915809D02*
X296750619Y-154915809D01*
X297234428Y-154286857D02*
X297234428Y-153948190D01*
X297766619Y-153803047D02*
X297766619Y-154286857D01*
X296750619Y-154286857D01*
X296750619Y-153803047D01*
X297766619Y-153367619D02*
X296750619Y-153367619D01*
X296750619Y-152980571D01*
X296799000Y-152883809D01*
X296847380Y-152835428D01*
X296944142Y-152787047D01*
X297089285Y-152787047D01*
X297186047Y-152835428D01*
X297234428Y-152883809D01*
X297282809Y-152980571D01*
X297282809Y-153367619D01*
X295226619Y-155448000D02*
X294210619Y-155448000D01*
X294210619Y-155206095D01*
X294259000Y-155060952D01*
X294355761Y-154964190D01*
X294452523Y-154915809D01*
X294646047Y-154867428D01*
X294791190Y-154867428D01*
X294984714Y-154915809D01*
X295081476Y-154964190D01*
X295178238Y-155060952D01*
X295226619Y-155206095D01*
X295226619Y-155448000D01*
X295226619Y-154432000D02*
X294210619Y-154432000D01*
X295226619Y-153367619D02*
X294742809Y-153706285D01*
X295226619Y-153948190D02*
X294210619Y-153948190D01*
X294210619Y-153561142D01*
X294259000Y-153464380D01*
X294307380Y-153416000D01*
X294404142Y-153367619D01*
X294549285Y-153367619D01*
X294646047Y-153416000D01*
X294694428Y-153464380D01*
X294742809Y-153561142D01*
X294742809Y-153948190D01*
%TO.C,U11*%
D10*
X220844904Y-100677380D02*
X220844904Y-101486904D01*
X220892523Y-101582142D01*
X220940142Y-101629761D01*
X221035380Y-101677380D01*
X221225857Y-101677380D01*
X221321095Y-101629761D01*
X221368714Y-101582142D01*
X221416333Y-101486904D01*
X221416333Y-100677380D01*
X222416333Y-101677380D02*
X221844904Y-101677380D01*
X222130619Y-101677380D02*
X222130619Y-100677380D01*
X222035380Y-100820238D01*
X221940142Y-100915476D01*
X221844904Y-100963095D01*
X223368714Y-101677380D02*
X222797285Y-101677380D01*
X223083000Y-101677380D02*
X223083000Y-100677380D01*
X222987761Y-100820238D01*
X222892523Y-100915476D01*
X222797285Y-100963095D01*
%TO.C,U10*%
X335919380Y-220821095D02*
X336728904Y-220821095D01*
X336824142Y-220773476D01*
X336871761Y-220725857D01*
X336919380Y-220630619D01*
X336919380Y-220440142D01*
X336871761Y-220344904D01*
X336824142Y-220297285D01*
X336728904Y-220249666D01*
X335919380Y-220249666D01*
X336919380Y-219249666D02*
X336919380Y-219821095D01*
X336919380Y-219535380D02*
X335919380Y-219535380D01*
X336062238Y-219630619D01*
X336157476Y-219725857D01*
X336205095Y-219821095D01*
X335919380Y-218630619D02*
X335919380Y-218535380D01*
X335967000Y-218440142D01*
X336014619Y-218392523D01*
X336109857Y-218344904D01*
X336300333Y-218297285D01*
X336538428Y-218297285D01*
X336728904Y-218344904D01*
X336824142Y-218392523D01*
X336871761Y-218440142D01*
X336919380Y-218535380D01*
X336919380Y-218630619D01*
X336871761Y-218725857D01*
X336824142Y-218773476D01*
X336728904Y-218821095D01*
X336538428Y-218868714D01*
X336300333Y-218868714D01*
X336109857Y-218821095D01*
X336014619Y-218773476D01*
X335967000Y-218725857D01*
X335919380Y-218630619D01*
%TO.C,U9*%
X305762380Y-194944904D02*
X306571904Y-194944904D01*
X306667142Y-194897285D01*
X306714761Y-194849666D01*
X306762380Y-194754428D01*
X306762380Y-194563952D01*
X306714761Y-194468714D01*
X306667142Y-194421095D01*
X306571904Y-194373476D01*
X305762380Y-194373476D01*
X306762380Y-193849666D02*
X306762380Y-193659190D01*
X306714761Y-193563952D01*
X306667142Y-193516333D01*
X306524285Y-193421095D01*
X306333809Y-193373476D01*
X305952857Y-193373476D01*
X305857619Y-193421095D01*
X305810000Y-193468714D01*
X305762380Y-193563952D01*
X305762380Y-193754428D01*
X305810000Y-193849666D01*
X305857619Y-193897285D01*
X305952857Y-193944904D01*
X306190952Y-193944904D01*
X306286190Y-193897285D01*
X306333809Y-193849666D01*
X306381428Y-193754428D01*
X306381428Y-193563952D01*
X306333809Y-193468714D01*
X306286190Y-193421095D01*
X306190952Y-193373476D01*
X299172380Y-195444904D02*
X299981904Y-195444904D01*
X300077142Y-195397285D01*
X300124761Y-195349666D01*
X300172380Y-195254428D01*
X300172380Y-195063952D01*
X300124761Y-194968714D01*
X300077142Y-194921095D01*
X299981904Y-194873476D01*
X299172380Y-194873476D01*
X300124761Y-194444904D02*
X300172380Y-194302047D01*
X300172380Y-194063952D01*
X300124761Y-193968714D01*
X300077142Y-193921095D01*
X299981904Y-193873476D01*
X299886666Y-193873476D01*
X299791428Y-193921095D01*
X299743809Y-193968714D01*
X299696190Y-194063952D01*
X299648571Y-194254428D01*
X299600952Y-194349666D01*
X299553333Y-194397285D01*
X299458095Y-194444904D01*
X299362857Y-194444904D01*
X299267619Y-194397285D01*
X299220000Y-194349666D01*
X299172380Y-194254428D01*
X299172380Y-194016333D01*
X299220000Y-193873476D01*
X299648571Y-193111571D02*
X299696190Y-192968714D01*
X299743809Y-192921095D01*
X299839047Y-192873476D01*
X299981904Y-192873476D01*
X300077142Y-192921095D01*
X300124761Y-192968714D01*
X300172380Y-193063952D01*
X300172380Y-193444904D01*
X299172380Y-193444904D01*
X299172380Y-193111571D01*
X299220000Y-193016333D01*
X299267619Y-192968714D01*
X299362857Y-192921095D01*
X299458095Y-192921095D01*
X299553333Y-192968714D01*
X299600952Y-193016333D01*
X299648571Y-193111571D01*
X299648571Y-193444904D01*
%TO.C,U8*%
X232751095Y-100677380D02*
X232751095Y-101486904D01*
X232798714Y-101582142D01*
X232846333Y-101629761D01*
X232941571Y-101677380D01*
X233132047Y-101677380D01*
X233227285Y-101629761D01*
X233274904Y-101582142D01*
X233322523Y-101486904D01*
X233322523Y-100677380D01*
X233941571Y-101105952D02*
X233846333Y-101058333D01*
X233798714Y-101010714D01*
X233751095Y-100915476D01*
X233751095Y-100867857D01*
X233798714Y-100772619D01*
X233846333Y-100725000D01*
X233941571Y-100677380D01*
X234132047Y-100677380D01*
X234227285Y-100725000D01*
X234274904Y-100772619D01*
X234322523Y-100867857D01*
X234322523Y-100915476D01*
X234274904Y-101010714D01*
X234227285Y-101058333D01*
X234132047Y-101105952D01*
X233941571Y-101105952D01*
X233846333Y-101153571D01*
X233798714Y-101201190D01*
X233751095Y-101296428D01*
X233751095Y-101486904D01*
X233798714Y-101582142D01*
X233846333Y-101629761D01*
X233941571Y-101677380D01*
X234132047Y-101677380D01*
X234227285Y-101629761D01*
X234274904Y-101582142D01*
X234322523Y-101486904D01*
X234322523Y-101296428D01*
X234274904Y-101201190D01*
X234227285Y-101153571D01*
X234132047Y-101105952D01*
%TO.C,U6*%
X302006095Y-117816380D02*
X302006095Y-118625904D01*
X302053714Y-118721142D01*
X302101333Y-118768761D01*
X302196571Y-118816380D01*
X302387047Y-118816380D01*
X302482285Y-118768761D01*
X302529904Y-118721142D01*
X302577523Y-118625904D01*
X302577523Y-117816380D01*
X303482285Y-117816380D02*
X303291809Y-117816380D01*
X303196571Y-117864000D01*
X303148952Y-117911619D01*
X303053714Y-118054476D01*
X303006095Y-118244952D01*
X303006095Y-118625904D01*
X303053714Y-118721142D01*
X303101333Y-118768761D01*
X303196571Y-118816380D01*
X303387047Y-118816380D01*
X303482285Y-118768761D01*
X303529904Y-118721142D01*
X303577523Y-118625904D01*
X303577523Y-118387809D01*
X303529904Y-118292571D01*
X303482285Y-118244952D01*
X303387047Y-118197333D01*
X303196571Y-118197333D01*
X303101333Y-118244952D01*
X303053714Y-118292571D01*
X303006095Y-118387809D01*
%TO.C,U5*%
X302260095Y-139406380D02*
X302260095Y-140215904D01*
X302307714Y-140311142D01*
X302355333Y-140358761D01*
X302450571Y-140406380D01*
X302641047Y-140406380D01*
X302736285Y-140358761D01*
X302783904Y-140311142D01*
X302831523Y-140215904D01*
X302831523Y-139406380D01*
X303783904Y-139406380D02*
X303307714Y-139406380D01*
X303260095Y-139882571D01*
X303307714Y-139834952D01*
X303402952Y-139787333D01*
X303641047Y-139787333D01*
X303736285Y-139834952D01*
X303783904Y-139882571D01*
X303831523Y-139977809D01*
X303831523Y-140215904D01*
X303783904Y-140311142D01*
X303736285Y-140358761D01*
X303641047Y-140406380D01*
X303402952Y-140406380D01*
X303307714Y-140358761D01*
X303260095Y-140311142D01*
%TO.C,U4*%
X302133095Y-128611380D02*
X302133095Y-129420904D01*
X302180714Y-129516142D01*
X302228333Y-129563761D01*
X302323571Y-129611380D01*
X302514047Y-129611380D01*
X302609285Y-129563761D01*
X302656904Y-129516142D01*
X302704523Y-129420904D01*
X302704523Y-128611380D01*
X303609285Y-128944714D02*
X303609285Y-129611380D01*
X303371190Y-128563761D02*
X303133095Y-129278047D01*
X303752142Y-129278047D01*
%TO.C,U2*%
X330591095Y-88757380D02*
X330591095Y-89566904D01*
X330638714Y-89662142D01*
X330686333Y-89709761D01*
X330781571Y-89757380D01*
X330972047Y-89757380D01*
X331067285Y-89709761D01*
X331114904Y-89662142D01*
X331162523Y-89566904D01*
X331162523Y-88757380D01*
X331591095Y-88852619D02*
X331638714Y-88805000D01*
X331733952Y-88757380D01*
X331972047Y-88757380D01*
X332067285Y-88805000D01*
X332114904Y-88852619D01*
X332162523Y-88947857D01*
X332162523Y-89043095D01*
X332114904Y-89185952D01*
X331543476Y-89757380D01*
X332162523Y-89757380D01*
%TO.C,SW1*%
X316499666Y-101409761D02*
X316642523Y-101457380D01*
X316880619Y-101457380D01*
X316975857Y-101409761D01*
X317023476Y-101362142D01*
X317071095Y-101266904D01*
X317071095Y-101171666D01*
X317023476Y-101076428D01*
X316975857Y-101028809D01*
X316880619Y-100981190D01*
X316690142Y-100933571D01*
X316594904Y-100885952D01*
X316547285Y-100838333D01*
X316499666Y-100743095D01*
X316499666Y-100647857D01*
X316547285Y-100552619D01*
X316594904Y-100505000D01*
X316690142Y-100457380D01*
X316928238Y-100457380D01*
X317071095Y-100505000D01*
X317404428Y-100457380D02*
X317642523Y-101457380D01*
X317833000Y-100743095D01*
X318023476Y-101457380D01*
X318261571Y-100457380D01*
X319166333Y-101457380D02*
X318594904Y-101457380D01*
X318880619Y-101457380D02*
X318880619Y-100457380D01*
X318785380Y-100600238D01*
X318690142Y-100695476D01*
X318594904Y-100743095D01*
%TO.C,R29*%
X274841380Y-121546555D02*
X274365190Y-121879888D01*
X274841380Y-122117983D02*
X273841380Y-122117983D01*
X273841380Y-121737031D01*
X273889000Y-121641793D01*
X273936619Y-121594174D01*
X274031857Y-121546555D01*
X274174714Y-121546555D01*
X274269952Y-121594174D01*
X274317571Y-121641793D01*
X274365190Y-121737031D01*
X274365190Y-122117983D01*
X273936619Y-121165602D02*
X273889000Y-121117983D01*
X273841380Y-121022745D01*
X273841380Y-120784650D01*
X273889000Y-120689412D01*
X273936619Y-120641793D01*
X274031857Y-120594174D01*
X274127095Y-120594174D01*
X274269952Y-120641793D01*
X274841380Y-121213221D01*
X274841380Y-120594174D01*
X274841380Y-120117983D02*
X274841380Y-119927507D01*
X274793761Y-119832269D01*
X274746142Y-119784650D01*
X274603285Y-119689412D01*
X274412809Y-119641793D01*
X274031857Y-119641793D01*
X273936619Y-119689412D01*
X273889000Y-119737031D01*
X273841380Y-119832269D01*
X273841380Y-120022745D01*
X273889000Y-120117983D01*
X273936619Y-120165602D01*
X274031857Y-120213221D01*
X274269952Y-120213221D01*
X274365190Y-120165602D01*
X274412809Y-120117983D01*
X274460428Y-120022745D01*
X274460428Y-119832269D01*
X274412809Y-119737031D01*
X274365190Y-119689412D01*
X274269952Y-119641793D01*
%TO.C,R28*%
X253802380Y-128912857D02*
X253326190Y-129246190D01*
X253802380Y-129484285D02*
X252802380Y-129484285D01*
X252802380Y-129103333D01*
X252850000Y-129008095D01*
X252897619Y-128960476D01*
X252992857Y-128912857D01*
X253135714Y-128912857D01*
X253230952Y-128960476D01*
X253278571Y-129008095D01*
X253326190Y-129103333D01*
X253326190Y-129484285D01*
X252897619Y-128531904D02*
X252850000Y-128484285D01*
X252802380Y-128389047D01*
X252802380Y-128150952D01*
X252850000Y-128055714D01*
X252897619Y-128008095D01*
X252992857Y-127960476D01*
X253088095Y-127960476D01*
X253230952Y-128008095D01*
X253802380Y-128579523D01*
X253802380Y-127960476D01*
X253230952Y-127389047D02*
X253183333Y-127484285D01*
X253135714Y-127531904D01*
X253040476Y-127579523D01*
X252992857Y-127579523D01*
X252897619Y-127531904D01*
X252850000Y-127484285D01*
X252802380Y-127389047D01*
X252802380Y-127198571D01*
X252850000Y-127103333D01*
X252897619Y-127055714D01*
X252992857Y-127008095D01*
X253040476Y-127008095D01*
X253135714Y-127055714D01*
X253183333Y-127103333D01*
X253230952Y-127198571D01*
X253230952Y-127389047D01*
X253278571Y-127484285D01*
X253326190Y-127531904D01*
X253421428Y-127579523D01*
X253611904Y-127579523D01*
X253707142Y-127531904D01*
X253754761Y-127484285D01*
X253802380Y-127389047D01*
X253802380Y-127198571D01*
X253754761Y-127103333D01*
X253707142Y-127055714D01*
X253611904Y-127008095D01*
X253421428Y-127008095D01*
X253326190Y-127055714D01*
X253278571Y-127103333D01*
X253230952Y-127198571D01*
%TO.C,R27*%
X243134380Y-128404857D02*
X242658190Y-128738190D01*
X243134380Y-128976285D02*
X242134380Y-128976285D01*
X242134380Y-128595333D01*
X242182000Y-128500095D01*
X242229619Y-128452476D01*
X242324857Y-128404857D01*
X242467714Y-128404857D01*
X242562952Y-128452476D01*
X242610571Y-128500095D01*
X242658190Y-128595333D01*
X242658190Y-128976285D01*
X242229619Y-128023904D02*
X242182000Y-127976285D01*
X242134380Y-127881047D01*
X242134380Y-127642952D01*
X242182000Y-127547714D01*
X242229619Y-127500095D01*
X242324857Y-127452476D01*
X242420095Y-127452476D01*
X242562952Y-127500095D01*
X243134380Y-128071523D01*
X243134380Y-127452476D01*
X242134380Y-127119142D02*
X242134380Y-126452476D01*
X243134380Y-126881047D01*
%TO.C,R26*%
X260182380Y-128912857D02*
X259706190Y-129246190D01*
X260182380Y-129484285D02*
X259182380Y-129484285D01*
X259182380Y-129103333D01*
X259230000Y-129008095D01*
X259277619Y-128960476D01*
X259372857Y-128912857D01*
X259515714Y-128912857D01*
X259610952Y-128960476D01*
X259658571Y-129008095D01*
X259706190Y-129103333D01*
X259706190Y-129484285D01*
X259277619Y-128531904D02*
X259230000Y-128484285D01*
X259182380Y-128389047D01*
X259182380Y-128150952D01*
X259230000Y-128055714D01*
X259277619Y-128008095D01*
X259372857Y-127960476D01*
X259468095Y-127960476D01*
X259610952Y-128008095D01*
X260182380Y-128579523D01*
X260182380Y-127960476D01*
X259182380Y-127103333D02*
X259182380Y-127293809D01*
X259230000Y-127389047D01*
X259277619Y-127436666D01*
X259420476Y-127531904D01*
X259610952Y-127579523D01*
X259991904Y-127579523D01*
X260087142Y-127531904D01*
X260134761Y-127484285D01*
X260182380Y-127389047D01*
X260182380Y-127198571D01*
X260134761Y-127103333D01*
X260087142Y-127055714D01*
X259991904Y-127008095D01*
X259753809Y-127008095D01*
X259658571Y-127055714D01*
X259610952Y-127103333D01*
X259563333Y-127198571D01*
X259563333Y-127389047D01*
X259610952Y-127484285D01*
X259658571Y-127531904D01*
X259753809Y-127579523D01*
%TO.C,R25*%
X352417142Y-257052380D02*
X352083809Y-256576190D01*
X351845714Y-257052380D02*
X351845714Y-256052380D01*
X352226666Y-256052380D01*
X352321904Y-256100000D01*
X352369523Y-256147619D01*
X352417142Y-256242857D01*
X352417142Y-256385714D01*
X352369523Y-256480952D01*
X352321904Y-256528571D01*
X352226666Y-256576190D01*
X351845714Y-256576190D01*
X352798095Y-256147619D02*
X352845714Y-256100000D01*
X352940952Y-256052380D01*
X353179047Y-256052380D01*
X353274285Y-256100000D01*
X353321904Y-256147619D01*
X353369523Y-256242857D01*
X353369523Y-256338095D01*
X353321904Y-256480952D01*
X352750476Y-257052380D01*
X353369523Y-257052380D01*
X354274285Y-256052380D02*
X353798095Y-256052380D01*
X353750476Y-256528571D01*
X353798095Y-256480952D01*
X353893333Y-256433333D01*
X354131428Y-256433333D01*
X354226666Y-256480952D01*
X354274285Y-256528571D01*
X354321904Y-256623809D01*
X354321904Y-256861904D01*
X354274285Y-256957142D01*
X354226666Y-257004761D01*
X354131428Y-257052380D01*
X353893333Y-257052380D01*
X353798095Y-257004761D01*
X353750476Y-256957142D01*
%TO.C,R24*%
X271691380Y-121546555D02*
X271215190Y-121879888D01*
X271691380Y-122117983D02*
X270691380Y-122117983D01*
X270691380Y-121737031D01*
X270739000Y-121641793D01*
X270786619Y-121594174D01*
X270881857Y-121546555D01*
X271024714Y-121546555D01*
X271119952Y-121594174D01*
X271167571Y-121641793D01*
X271215190Y-121737031D01*
X271215190Y-122117983D01*
X270786619Y-121165602D02*
X270739000Y-121117983D01*
X270691380Y-121022745D01*
X270691380Y-120784650D01*
X270739000Y-120689412D01*
X270786619Y-120641793D01*
X270881857Y-120594174D01*
X270977095Y-120594174D01*
X271119952Y-120641793D01*
X271691380Y-121213221D01*
X271691380Y-120594174D01*
X271024714Y-119737031D02*
X271691380Y-119737031D01*
X270643761Y-119975126D02*
X271358047Y-120213221D01*
X271358047Y-119594174D01*
%TO.C,R23*%
X352417142Y-260862380D02*
X352083809Y-260386190D01*
X351845714Y-260862380D02*
X351845714Y-259862380D01*
X352226666Y-259862380D01*
X352321904Y-259910000D01*
X352369523Y-259957619D01*
X352417142Y-260052857D01*
X352417142Y-260195714D01*
X352369523Y-260290952D01*
X352321904Y-260338571D01*
X352226666Y-260386190D01*
X351845714Y-260386190D01*
X352798095Y-259957619D02*
X352845714Y-259910000D01*
X352940952Y-259862380D01*
X353179047Y-259862380D01*
X353274285Y-259910000D01*
X353321904Y-259957619D01*
X353369523Y-260052857D01*
X353369523Y-260148095D01*
X353321904Y-260290952D01*
X352750476Y-260862380D01*
X353369523Y-260862380D01*
X353702857Y-259862380D02*
X354321904Y-259862380D01*
X353988571Y-260243333D01*
X354131428Y-260243333D01*
X354226666Y-260290952D01*
X354274285Y-260338571D01*
X354321904Y-260433809D01*
X354321904Y-260671904D01*
X354274285Y-260767142D01*
X354226666Y-260814761D01*
X354131428Y-260862380D01*
X353845714Y-260862380D01*
X353750476Y-260814761D01*
X353702857Y-260767142D01*
%TO.C,R22*%
X336585580Y-200185257D02*
X336109390Y-200518590D01*
X336585580Y-200756685D02*
X335585580Y-200756685D01*
X335585580Y-200375733D01*
X335633200Y-200280495D01*
X335680819Y-200232876D01*
X335776057Y-200185257D01*
X335918914Y-200185257D01*
X336014152Y-200232876D01*
X336061771Y-200280495D01*
X336109390Y-200375733D01*
X336109390Y-200756685D01*
X335680819Y-199804304D02*
X335633200Y-199756685D01*
X335585580Y-199661447D01*
X335585580Y-199423352D01*
X335633200Y-199328114D01*
X335680819Y-199280495D01*
X335776057Y-199232876D01*
X335871295Y-199232876D01*
X336014152Y-199280495D01*
X336585580Y-199851923D01*
X336585580Y-199232876D01*
X335680819Y-198851923D02*
X335633200Y-198804304D01*
X335585580Y-198709066D01*
X335585580Y-198470971D01*
X335633200Y-198375733D01*
X335680819Y-198328114D01*
X335776057Y-198280495D01*
X335871295Y-198280495D01*
X336014152Y-198328114D01*
X336585580Y-198899542D01*
X336585580Y-198280495D01*
%TO.C,R21*%
X332745580Y-188856857D02*
X332269390Y-189190190D01*
X332745580Y-189428285D02*
X331745580Y-189428285D01*
X331745580Y-189047333D01*
X331793200Y-188952095D01*
X331840819Y-188904476D01*
X331936057Y-188856857D01*
X332078914Y-188856857D01*
X332174152Y-188904476D01*
X332221771Y-188952095D01*
X332269390Y-189047333D01*
X332269390Y-189428285D01*
X331840819Y-188475904D02*
X331793200Y-188428285D01*
X331745580Y-188333047D01*
X331745580Y-188094952D01*
X331793200Y-187999714D01*
X331840819Y-187952095D01*
X331936057Y-187904476D01*
X332031295Y-187904476D01*
X332174152Y-187952095D01*
X332745580Y-188523523D01*
X332745580Y-187904476D01*
X332745580Y-186952095D02*
X332745580Y-187523523D01*
X332745580Y-187237809D02*
X331745580Y-187237809D01*
X331888438Y-187333047D01*
X331983676Y-187428285D01*
X332031295Y-187523523D01*
%TO.C,R20*%
X239303580Y-167012857D02*
X238827390Y-167346190D01*
X239303580Y-167584285D02*
X238303580Y-167584285D01*
X238303580Y-167203333D01*
X238351200Y-167108095D01*
X238398819Y-167060476D01*
X238494057Y-167012857D01*
X238636914Y-167012857D01*
X238732152Y-167060476D01*
X238779771Y-167108095D01*
X238827390Y-167203333D01*
X238827390Y-167584285D01*
X238398819Y-166631904D02*
X238351200Y-166584285D01*
X238303580Y-166489047D01*
X238303580Y-166250952D01*
X238351200Y-166155714D01*
X238398819Y-166108095D01*
X238494057Y-166060476D01*
X238589295Y-166060476D01*
X238732152Y-166108095D01*
X239303580Y-166679523D01*
X239303580Y-166060476D01*
X238303580Y-165441428D02*
X238303580Y-165346190D01*
X238351200Y-165250952D01*
X238398819Y-165203333D01*
X238494057Y-165155714D01*
X238684533Y-165108095D01*
X238922628Y-165108095D01*
X239113104Y-165155714D01*
X239208342Y-165203333D01*
X239255961Y-165250952D01*
X239303580Y-165346190D01*
X239303580Y-165441428D01*
X239255961Y-165536666D01*
X239208342Y-165584285D01*
X239113104Y-165631904D01*
X238922628Y-165679523D01*
X238684533Y-165679523D01*
X238494057Y-165631904D01*
X238398819Y-165584285D01*
X238351200Y-165536666D01*
X238303580Y-165441428D01*
%TO.C,R19*%
X324952380Y-198762857D02*
X324476190Y-199096190D01*
X324952380Y-199334285D02*
X323952380Y-199334285D01*
X323952380Y-198953333D01*
X324000000Y-198858095D01*
X324047619Y-198810476D01*
X324142857Y-198762857D01*
X324285714Y-198762857D01*
X324380952Y-198810476D01*
X324428571Y-198858095D01*
X324476190Y-198953333D01*
X324476190Y-199334285D01*
X324952380Y-197810476D02*
X324952380Y-198381904D01*
X324952380Y-198096190D02*
X323952380Y-198096190D01*
X324095238Y-198191428D01*
X324190476Y-198286666D01*
X324238095Y-198381904D01*
X324952380Y-197334285D02*
X324952380Y-197143809D01*
X324904761Y-197048571D01*
X324857142Y-197000952D01*
X324714285Y-196905714D01*
X324523809Y-196858095D01*
X324142857Y-196858095D01*
X324047619Y-196905714D01*
X324000000Y-196953333D01*
X323952380Y-197048571D01*
X323952380Y-197239047D01*
X324000000Y-197334285D01*
X324047619Y-197381904D01*
X324142857Y-197429523D01*
X324380952Y-197429523D01*
X324476190Y-197381904D01*
X324523809Y-197334285D01*
X324571428Y-197239047D01*
X324571428Y-197048571D01*
X324523809Y-196953333D01*
X324476190Y-196905714D01*
X324380952Y-196858095D01*
%TO.C,R18*%
X327492380Y-198762857D02*
X327016190Y-199096190D01*
X327492380Y-199334285D02*
X326492380Y-199334285D01*
X326492380Y-198953333D01*
X326540000Y-198858095D01*
X326587619Y-198810476D01*
X326682857Y-198762857D01*
X326825714Y-198762857D01*
X326920952Y-198810476D01*
X326968571Y-198858095D01*
X327016190Y-198953333D01*
X327016190Y-199334285D01*
X327492380Y-197810476D02*
X327492380Y-198381904D01*
X327492380Y-198096190D02*
X326492380Y-198096190D01*
X326635238Y-198191428D01*
X326730476Y-198286666D01*
X326778095Y-198381904D01*
X326920952Y-197239047D02*
X326873333Y-197334285D01*
X326825714Y-197381904D01*
X326730476Y-197429523D01*
X326682857Y-197429523D01*
X326587619Y-197381904D01*
X326540000Y-197334285D01*
X326492380Y-197239047D01*
X326492380Y-197048571D01*
X326540000Y-196953333D01*
X326587619Y-196905714D01*
X326682857Y-196858095D01*
X326730476Y-196858095D01*
X326825714Y-196905714D01*
X326873333Y-196953333D01*
X326920952Y-197048571D01*
X326920952Y-197239047D01*
X326968571Y-197334285D01*
X327016190Y-197381904D01*
X327111428Y-197429523D01*
X327301904Y-197429523D01*
X327397142Y-197381904D01*
X327444761Y-197334285D01*
X327492380Y-197239047D01*
X327492380Y-197048571D01*
X327444761Y-196953333D01*
X327397142Y-196905714D01*
X327301904Y-196858095D01*
X327111428Y-196858095D01*
X327016190Y-196905714D01*
X326968571Y-196953333D01*
X326920952Y-197048571D01*
%TO.C,R17*%
X311236380Y-170822857D02*
X310760190Y-171156190D01*
X311236380Y-171394285D02*
X310236380Y-171394285D01*
X310236380Y-171013333D01*
X310284000Y-170918095D01*
X310331619Y-170870476D01*
X310426857Y-170822857D01*
X310569714Y-170822857D01*
X310664952Y-170870476D01*
X310712571Y-170918095D01*
X310760190Y-171013333D01*
X310760190Y-171394285D01*
X311236380Y-169870476D02*
X311236380Y-170441904D01*
X311236380Y-170156190D02*
X310236380Y-170156190D01*
X310379238Y-170251428D01*
X310474476Y-170346666D01*
X310522095Y-170441904D01*
X310236380Y-169537142D02*
X310236380Y-168870476D01*
X311236380Y-169299047D01*
%TO.C,R16*%
X338447142Y-157312380D02*
X338113809Y-156836190D01*
X337875714Y-157312380D02*
X337875714Y-156312380D01*
X338256666Y-156312380D01*
X338351904Y-156360000D01*
X338399523Y-156407619D01*
X338447142Y-156502857D01*
X338447142Y-156645714D01*
X338399523Y-156740952D01*
X338351904Y-156788571D01*
X338256666Y-156836190D01*
X337875714Y-156836190D01*
X339399523Y-157312380D02*
X338828095Y-157312380D01*
X339113809Y-157312380D02*
X339113809Y-156312380D01*
X339018571Y-156455238D01*
X338923333Y-156550476D01*
X338828095Y-156598095D01*
X340256666Y-156312380D02*
X340066190Y-156312380D01*
X339970952Y-156360000D01*
X339923333Y-156407619D01*
X339828095Y-156550476D01*
X339780476Y-156740952D01*
X339780476Y-157121904D01*
X339828095Y-157217142D01*
X339875714Y-157264761D01*
X339970952Y-157312380D01*
X340161428Y-157312380D01*
X340256666Y-157264761D01*
X340304285Y-157217142D01*
X340351904Y-157121904D01*
X340351904Y-156883809D01*
X340304285Y-156788571D01*
X340256666Y-156740952D01*
X340161428Y-156693333D01*
X339970952Y-156693333D01*
X339875714Y-156740952D01*
X339828095Y-156788571D01*
X339780476Y-156883809D01*
%TO.C,R15*%
X224368380Y-116212857D02*
X223892190Y-116546190D01*
X224368380Y-116784285D02*
X223368380Y-116784285D01*
X223368380Y-116403333D01*
X223416000Y-116308095D01*
X223463619Y-116260476D01*
X223558857Y-116212857D01*
X223701714Y-116212857D01*
X223796952Y-116260476D01*
X223844571Y-116308095D01*
X223892190Y-116403333D01*
X223892190Y-116784285D01*
X224368380Y-115260476D02*
X224368380Y-115831904D01*
X224368380Y-115546190D02*
X223368380Y-115546190D01*
X223511238Y-115641428D01*
X223606476Y-115736666D01*
X223654095Y-115831904D01*
X223368380Y-114355714D02*
X223368380Y-114831904D01*
X223844571Y-114879523D01*
X223796952Y-114831904D01*
X223749333Y-114736666D01*
X223749333Y-114498571D01*
X223796952Y-114403333D01*
X223844571Y-114355714D01*
X223939809Y-114308095D01*
X224177904Y-114308095D01*
X224273142Y-114355714D01*
X224320761Y-114403333D01*
X224368380Y-114498571D01*
X224368380Y-114736666D01*
X224320761Y-114831904D01*
X224273142Y-114879523D01*
%TO.C,R14*%
X327017142Y-145882380D02*
X326683809Y-145406190D01*
X326445714Y-145882380D02*
X326445714Y-144882380D01*
X326826666Y-144882380D01*
X326921904Y-144930000D01*
X326969523Y-144977619D01*
X327017142Y-145072857D01*
X327017142Y-145215714D01*
X326969523Y-145310952D01*
X326921904Y-145358571D01*
X326826666Y-145406190D01*
X326445714Y-145406190D01*
X327969523Y-145882380D02*
X327398095Y-145882380D01*
X327683809Y-145882380D02*
X327683809Y-144882380D01*
X327588571Y-145025238D01*
X327493333Y-145120476D01*
X327398095Y-145168095D01*
X328826666Y-145215714D02*
X328826666Y-145882380D01*
X328588571Y-144834761D02*
X328350476Y-145549047D01*
X328969523Y-145549047D01*
%TO.C,R13*%
X303332380Y-170822857D02*
X302856190Y-171156190D01*
X303332380Y-171394285D02*
X302332380Y-171394285D01*
X302332380Y-171013333D01*
X302380000Y-170918095D01*
X302427619Y-170870476D01*
X302522857Y-170822857D01*
X302665714Y-170822857D01*
X302760952Y-170870476D01*
X302808571Y-170918095D01*
X302856190Y-171013333D01*
X302856190Y-171394285D01*
X303332380Y-169870476D02*
X303332380Y-170441904D01*
X303332380Y-170156190D02*
X302332380Y-170156190D01*
X302475238Y-170251428D01*
X302570476Y-170346666D01*
X302618095Y-170441904D01*
X302332380Y-169537142D02*
X302332380Y-168918095D01*
X302713333Y-169251428D01*
X302713333Y-169108571D01*
X302760952Y-169013333D01*
X302808571Y-168965714D01*
X302903809Y-168918095D01*
X303141904Y-168918095D01*
X303237142Y-168965714D01*
X303284761Y-169013333D01*
X303332380Y-169108571D01*
X303332380Y-169394285D01*
X303284761Y-169489523D01*
X303237142Y-169537142D01*
%TO.C,R12*%
X309936380Y-170822857D02*
X309460190Y-171156190D01*
X309936380Y-171394285D02*
X308936380Y-171394285D01*
X308936380Y-171013333D01*
X308984000Y-170918095D01*
X309031619Y-170870476D01*
X309126857Y-170822857D01*
X309269714Y-170822857D01*
X309364952Y-170870476D01*
X309412571Y-170918095D01*
X309460190Y-171013333D01*
X309460190Y-171394285D01*
X309936380Y-169870476D02*
X309936380Y-170441904D01*
X309936380Y-170156190D02*
X308936380Y-170156190D01*
X309079238Y-170251428D01*
X309174476Y-170346666D01*
X309222095Y-170441904D01*
X309031619Y-169489523D02*
X308984000Y-169441904D01*
X308936380Y-169346666D01*
X308936380Y-169108571D01*
X308984000Y-169013333D01*
X309031619Y-168965714D01*
X309126857Y-168918095D01*
X309222095Y-168918095D01*
X309364952Y-168965714D01*
X309936380Y-169537142D01*
X309936380Y-168918095D01*
%TO.C,R11*%
X265262380Y-179331857D02*
X264786190Y-179665190D01*
X265262380Y-179903285D02*
X264262380Y-179903285D01*
X264262380Y-179522333D01*
X264310000Y-179427095D01*
X264357619Y-179379476D01*
X264452857Y-179331857D01*
X264595714Y-179331857D01*
X264690952Y-179379476D01*
X264738571Y-179427095D01*
X264786190Y-179522333D01*
X264786190Y-179903285D01*
X265262380Y-178379476D02*
X265262380Y-178950904D01*
X265262380Y-178665190D02*
X264262380Y-178665190D01*
X264405238Y-178760428D01*
X264500476Y-178855666D01*
X264548095Y-178950904D01*
X265262380Y-177427095D02*
X265262380Y-177998523D01*
X265262380Y-177712809D02*
X264262380Y-177712809D01*
X264405238Y-177808047D01*
X264500476Y-177903285D01*
X264548095Y-177998523D01*
%TO.C,R10*%
X275473180Y-133637257D02*
X274996990Y-133970590D01*
X275473180Y-134208685D02*
X274473180Y-134208685D01*
X274473180Y-133827733D01*
X274520800Y-133732495D01*
X274568419Y-133684876D01*
X274663657Y-133637257D01*
X274806514Y-133637257D01*
X274901752Y-133684876D01*
X274949371Y-133732495D01*
X274996990Y-133827733D01*
X274996990Y-134208685D01*
X275473180Y-132684876D02*
X275473180Y-133256304D01*
X275473180Y-132970590D02*
X274473180Y-132970590D01*
X274616038Y-133065828D01*
X274711276Y-133161066D01*
X274758895Y-133256304D01*
X274473180Y-132065828D02*
X274473180Y-131970590D01*
X274520800Y-131875352D01*
X274568419Y-131827733D01*
X274663657Y-131780114D01*
X274854133Y-131732495D01*
X275092228Y-131732495D01*
X275282704Y-131780114D01*
X275377942Y-131827733D01*
X275425561Y-131875352D01*
X275473180Y-131970590D01*
X275473180Y-132065828D01*
X275425561Y-132161066D01*
X275377942Y-132208685D01*
X275282704Y-132256304D01*
X275092228Y-132303923D01*
X274854133Y-132303923D01*
X274663657Y-132256304D01*
X274568419Y-132208685D01*
X274520800Y-132161066D01*
X274473180Y-132065828D01*
%TO.C,R9*%
X292567380Y-156376666D02*
X292091190Y-156710000D01*
X292567380Y-156948095D02*
X291567380Y-156948095D01*
X291567380Y-156567142D01*
X291615000Y-156471904D01*
X291662619Y-156424285D01*
X291757857Y-156376666D01*
X291900714Y-156376666D01*
X291995952Y-156424285D01*
X292043571Y-156471904D01*
X292091190Y-156567142D01*
X292091190Y-156948095D01*
X292567380Y-155900476D02*
X292567380Y-155710000D01*
X292519761Y-155614761D01*
X292472142Y-155567142D01*
X292329285Y-155471904D01*
X292138809Y-155424285D01*
X291757857Y-155424285D01*
X291662619Y-155471904D01*
X291615000Y-155519523D01*
X291567380Y-155614761D01*
X291567380Y-155805238D01*
X291615000Y-155900476D01*
X291662619Y-155948095D01*
X291757857Y-155995714D01*
X291995952Y-155995714D01*
X292091190Y-155948095D01*
X292138809Y-155900476D01*
X292186428Y-155805238D01*
X292186428Y-155614761D01*
X292138809Y-155519523D01*
X292091190Y-155471904D01*
X291995952Y-155424285D01*
%TO.C,R8*%
X244586780Y-170041866D02*
X244110590Y-170375200D01*
X244586780Y-170613295D02*
X243586780Y-170613295D01*
X243586780Y-170232342D01*
X243634400Y-170137104D01*
X243682019Y-170089485D01*
X243777257Y-170041866D01*
X243920114Y-170041866D01*
X244015352Y-170089485D01*
X244062971Y-170137104D01*
X244110590Y-170232342D01*
X244110590Y-170613295D01*
X244015352Y-169470438D02*
X243967733Y-169565676D01*
X243920114Y-169613295D01*
X243824876Y-169660914D01*
X243777257Y-169660914D01*
X243682019Y-169613295D01*
X243634400Y-169565676D01*
X243586780Y-169470438D01*
X243586780Y-169279961D01*
X243634400Y-169184723D01*
X243682019Y-169137104D01*
X243777257Y-169089485D01*
X243824876Y-169089485D01*
X243920114Y-169137104D01*
X243967733Y-169184723D01*
X244015352Y-169279961D01*
X244015352Y-169470438D01*
X244062971Y-169565676D01*
X244110590Y-169613295D01*
X244205828Y-169660914D01*
X244396304Y-169660914D01*
X244491542Y-169613295D01*
X244539161Y-169565676D01*
X244586780Y-169470438D01*
X244586780Y-169279961D01*
X244539161Y-169184723D01*
X244491542Y-169137104D01*
X244396304Y-169089485D01*
X244205828Y-169089485D01*
X244110590Y-169137104D01*
X244062971Y-169184723D01*
X244015352Y-169279961D01*
%TO.C,R7*%
X223271580Y-115736666D02*
X222795390Y-116070000D01*
X223271580Y-116308095D02*
X222271580Y-116308095D01*
X222271580Y-115927142D01*
X222319200Y-115831904D01*
X222366819Y-115784285D01*
X222462057Y-115736666D01*
X222604914Y-115736666D01*
X222700152Y-115784285D01*
X222747771Y-115831904D01*
X222795390Y-115927142D01*
X222795390Y-116308095D01*
X222271580Y-115403333D02*
X222271580Y-114736666D01*
X223271580Y-115165238D01*
%TO.C,R6*%
X296377380Y-215939666D02*
X295901190Y-216273000D01*
X296377380Y-216511095D02*
X295377380Y-216511095D01*
X295377380Y-216130142D01*
X295425000Y-216034904D01*
X295472619Y-215987285D01*
X295567857Y-215939666D01*
X295710714Y-215939666D01*
X295805952Y-215987285D01*
X295853571Y-216034904D01*
X295901190Y-216130142D01*
X295901190Y-216511095D01*
X295377380Y-215082523D02*
X295377380Y-215273000D01*
X295425000Y-215368238D01*
X295472619Y-215415857D01*
X295615476Y-215511095D01*
X295805952Y-215558714D01*
X296186904Y-215558714D01*
X296282142Y-215511095D01*
X296329761Y-215463476D01*
X296377380Y-215368238D01*
X296377380Y-215177761D01*
X296329761Y-215082523D01*
X296282142Y-215034904D01*
X296186904Y-214987285D01*
X295948809Y-214987285D01*
X295853571Y-215034904D01*
X295805952Y-215082523D01*
X295758333Y-215177761D01*
X295758333Y-215368238D01*
X295805952Y-215463476D01*
X295853571Y-215511095D01*
X295948809Y-215558714D01*
%TO.C,R5*%
X288092380Y-230036666D02*
X287616190Y-230370000D01*
X288092380Y-230608095D02*
X287092380Y-230608095D01*
X287092380Y-230227142D01*
X287140000Y-230131904D01*
X287187619Y-230084285D01*
X287282857Y-230036666D01*
X287425714Y-230036666D01*
X287520952Y-230084285D01*
X287568571Y-230131904D01*
X287616190Y-230227142D01*
X287616190Y-230608095D01*
X287092380Y-229131904D02*
X287092380Y-229608095D01*
X287568571Y-229655714D01*
X287520952Y-229608095D01*
X287473333Y-229512857D01*
X287473333Y-229274761D01*
X287520952Y-229179523D01*
X287568571Y-229131904D01*
X287663809Y-229084285D01*
X287901904Y-229084285D01*
X287997142Y-229131904D01*
X288044761Y-229179523D01*
X288092380Y-229274761D01*
X288092380Y-229512857D01*
X288044761Y-229608095D01*
X287997142Y-229655714D01*
%TO.C,R4*%
X278491180Y-168009866D02*
X278014990Y-168343200D01*
X278491180Y-168581295D02*
X277491180Y-168581295D01*
X277491180Y-168200342D01*
X277538800Y-168105104D01*
X277586419Y-168057485D01*
X277681657Y-168009866D01*
X277824514Y-168009866D01*
X277919752Y-168057485D01*
X277967371Y-168105104D01*
X278014990Y-168200342D01*
X278014990Y-168581295D01*
X277824514Y-167152723D02*
X278491180Y-167152723D01*
X277443561Y-167390819D02*
X278157847Y-167628914D01*
X278157847Y-167009866D01*
%TO.C,R3*%
X299522380Y-170346666D02*
X299046190Y-170680000D01*
X299522380Y-170918095D02*
X298522380Y-170918095D01*
X298522380Y-170537142D01*
X298570000Y-170441904D01*
X298617619Y-170394285D01*
X298712857Y-170346666D01*
X298855714Y-170346666D01*
X298950952Y-170394285D01*
X298998571Y-170441904D01*
X299046190Y-170537142D01*
X299046190Y-170918095D01*
X298522380Y-170013333D02*
X298522380Y-169394285D01*
X298903333Y-169727619D01*
X298903333Y-169584761D01*
X298950952Y-169489523D01*
X298998571Y-169441904D01*
X299093809Y-169394285D01*
X299331904Y-169394285D01*
X299427142Y-169441904D01*
X299474761Y-169489523D01*
X299522380Y-169584761D01*
X299522380Y-169870476D01*
X299474761Y-169965714D01*
X299427142Y-170013333D01*
%TO.C,R2*%
X269855180Y-149366266D02*
X269378990Y-149699600D01*
X269855180Y-149937695D02*
X268855180Y-149937695D01*
X268855180Y-149556742D01*
X268902800Y-149461504D01*
X268950419Y-149413885D01*
X269045657Y-149366266D01*
X269188514Y-149366266D01*
X269283752Y-149413885D01*
X269331371Y-149461504D01*
X269378990Y-149556742D01*
X269378990Y-149937695D01*
X268950419Y-148985314D02*
X268902800Y-148937695D01*
X268855180Y-148842457D01*
X268855180Y-148604361D01*
X268902800Y-148509123D01*
X268950419Y-148461504D01*
X269045657Y-148413885D01*
X269140895Y-148413885D01*
X269283752Y-148461504D01*
X269855180Y-149032933D01*
X269855180Y-148413885D01*
%TO.C,R1*%
X313395380Y-134151666D02*
X312919190Y-134485000D01*
X313395380Y-134723095D02*
X312395380Y-134723095D01*
X312395380Y-134342142D01*
X312443000Y-134246904D01*
X312490619Y-134199285D01*
X312585857Y-134151666D01*
X312728714Y-134151666D01*
X312823952Y-134199285D01*
X312871571Y-134246904D01*
X312919190Y-134342142D01*
X312919190Y-134723095D01*
X313395380Y-133199285D02*
X313395380Y-133770714D01*
X313395380Y-133485000D02*
X312395380Y-133485000D01*
X312538238Y-133580238D01*
X312633476Y-133675476D01*
X312681095Y-133770714D01*
%TO.C,Q7*%
X255174761Y-184957619D02*
X255079523Y-184910000D01*
X254984285Y-184814761D01*
X254841428Y-184671904D01*
X254746190Y-184624285D01*
X254650952Y-184624285D01*
X254698571Y-184862380D02*
X254603333Y-184814761D01*
X254508095Y-184719523D01*
X254460476Y-184529047D01*
X254460476Y-184195714D01*
X254508095Y-184005238D01*
X254603333Y-183910000D01*
X254698571Y-183862380D01*
X254889047Y-183862380D01*
X254984285Y-183910000D01*
X255079523Y-184005238D01*
X255127142Y-184195714D01*
X255127142Y-184529047D01*
X255079523Y-184719523D01*
X254984285Y-184814761D01*
X254889047Y-184862380D01*
X254698571Y-184862380D01*
X255460476Y-183862380D02*
X256127142Y-183862380D01*
X255698571Y-184862380D01*
%TO.C,Q6*%
X279304761Y-162432899D02*
X279209523Y-162385280D01*
X279114285Y-162290041D01*
X278971428Y-162147184D01*
X278876190Y-162099565D01*
X278780952Y-162099565D01*
X278828571Y-162337660D02*
X278733333Y-162290041D01*
X278638095Y-162194803D01*
X278590476Y-162004327D01*
X278590476Y-161670994D01*
X278638095Y-161480518D01*
X278733333Y-161385280D01*
X278828571Y-161337660D01*
X279019047Y-161337660D01*
X279114285Y-161385280D01*
X279209523Y-161480518D01*
X279257142Y-161670994D01*
X279257142Y-162004327D01*
X279209523Y-162194803D01*
X279114285Y-162290041D01*
X279019047Y-162337660D01*
X278828571Y-162337660D01*
X280114285Y-161337660D02*
X279923809Y-161337660D01*
X279828571Y-161385280D01*
X279780952Y-161432899D01*
X279685714Y-161575756D01*
X279638095Y-161766232D01*
X279638095Y-162147184D01*
X279685714Y-162242422D01*
X279733333Y-162290041D01*
X279828571Y-162337660D01*
X280019047Y-162337660D01*
X280114285Y-162290041D01*
X280161904Y-162242422D01*
X280209523Y-162147184D01*
X280209523Y-161909089D01*
X280161904Y-161813851D01*
X280114285Y-161766232D01*
X280019047Y-161718613D01*
X279828571Y-161718613D01*
X279733333Y-161766232D01*
X279685714Y-161813851D01*
X279638095Y-161909089D01*
%TO.C,Q5*%
X250094761Y-161945219D02*
X249999523Y-161897600D01*
X249904285Y-161802361D01*
X249761428Y-161659504D01*
X249666190Y-161611885D01*
X249570952Y-161611885D01*
X249618571Y-161849980D02*
X249523333Y-161802361D01*
X249428095Y-161707123D01*
X249380476Y-161516647D01*
X249380476Y-161183314D01*
X249428095Y-160992838D01*
X249523333Y-160897600D01*
X249618571Y-160849980D01*
X249809047Y-160849980D01*
X249904285Y-160897600D01*
X249999523Y-160992838D01*
X250047142Y-161183314D01*
X250047142Y-161516647D01*
X249999523Y-161707123D01*
X249904285Y-161802361D01*
X249809047Y-161849980D01*
X249618571Y-161849980D01*
X250951904Y-160849980D02*
X250475714Y-160849980D01*
X250428095Y-161326171D01*
X250475714Y-161278552D01*
X250570952Y-161230933D01*
X250809047Y-161230933D01*
X250904285Y-161278552D01*
X250951904Y-161326171D01*
X250999523Y-161421409D01*
X250999523Y-161659504D01*
X250951904Y-161754742D01*
X250904285Y-161802361D01*
X250809047Y-161849980D01*
X250570952Y-161849980D01*
X250475714Y-161802361D01*
X250428095Y-161754742D01*
%TO.C,Q4*%
X272954761Y-184957619D02*
X272859523Y-184910000D01*
X272764285Y-184814761D01*
X272621428Y-184671904D01*
X272526190Y-184624285D01*
X272430952Y-184624285D01*
X272478571Y-184862380D02*
X272383333Y-184814761D01*
X272288095Y-184719523D01*
X272240476Y-184529047D01*
X272240476Y-184195714D01*
X272288095Y-184005238D01*
X272383333Y-183910000D01*
X272478571Y-183862380D01*
X272669047Y-183862380D01*
X272764285Y-183910000D01*
X272859523Y-184005238D01*
X272907142Y-184195714D01*
X272907142Y-184529047D01*
X272859523Y-184719523D01*
X272764285Y-184814761D01*
X272669047Y-184862380D01*
X272478571Y-184862380D01*
X273764285Y-184195714D02*
X273764285Y-184862380D01*
X273526190Y-183814761D02*
X273288095Y-184529047D01*
X273907142Y-184529047D01*
%TO.C,Q3*%
X286797761Y-184830619D02*
X286702523Y-184783000D01*
X286607285Y-184687761D01*
X286464428Y-184544904D01*
X286369190Y-184497285D01*
X286273952Y-184497285D01*
X286321571Y-184735380D02*
X286226333Y-184687761D01*
X286131095Y-184592523D01*
X286083476Y-184402047D01*
X286083476Y-184068714D01*
X286131095Y-183878238D01*
X286226333Y-183783000D01*
X286321571Y-183735380D01*
X286512047Y-183735380D01*
X286607285Y-183783000D01*
X286702523Y-183878238D01*
X286750142Y-184068714D01*
X286750142Y-184402047D01*
X286702523Y-184592523D01*
X286607285Y-184687761D01*
X286512047Y-184735380D01*
X286321571Y-184735380D01*
X287083476Y-183735380D02*
X287702523Y-183735380D01*
X287369190Y-184116333D01*
X287512047Y-184116333D01*
X287607285Y-184163952D01*
X287654904Y-184211571D01*
X287702523Y-184306809D01*
X287702523Y-184544904D01*
X287654904Y-184640142D01*
X287607285Y-184687761D01*
X287512047Y-184735380D01*
X287226333Y-184735380D01*
X287131095Y-184687761D01*
X287083476Y-184640142D01*
%TO.C,Q2*%
X263861561Y-161843619D02*
X263766323Y-161796000D01*
X263671085Y-161700761D01*
X263528228Y-161557904D01*
X263432990Y-161510285D01*
X263337752Y-161510285D01*
X263385371Y-161748380D02*
X263290133Y-161700761D01*
X263194895Y-161605523D01*
X263147276Y-161415047D01*
X263147276Y-161081714D01*
X263194895Y-160891238D01*
X263290133Y-160796000D01*
X263385371Y-160748380D01*
X263575847Y-160748380D01*
X263671085Y-160796000D01*
X263766323Y-160891238D01*
X263813942Y-161081714D01*
X263813942Y-161415047D01*
X263766323Y-161605523D01*
X263671085Y-161700761D01*
X263575847Y-161748380D01*
X263385371Y-161748380D01*
X264194895Y-160843619D02*
X264242514Y-160796000D01*
X264337752Y-160748380D01*
X264575847Y-160748380D01*
X264671085Y-160796000D01*
X264718704Y-160843619D01*
X264766323Y-160938857D01*
X264766323Y-161034095D01*
X264718704Y-161176952D01*
X264147276Y-161748380D01*
X264766323Y-161748380D01*
%TO.C,Q1*%
X319817761Y-139872619D02*
X319722523Y-139825000D01*
X319627285Y-139729761D01*
X319484428Y-139586904D01*
X319389190Y-139539285D01*
X319293952Y-139539285D01*
X319341571Y-139777380D02*
X319246333Y-139729761D01*
X319151095Y-139634523D01*
X319103476Y-139444047D01*
X319103476Y-139110714D01*
X319151095Y-138920238D01*
X319246333Y-138825000D01*
X319341571Y-138777380D01*
X319532047Y-138777380D01*
X319627285Y-138825000D01*
X319722523Y-138920238D01*
X319770142Y-139110714D01*
X319770142Y-139444047D01*
X319722523Y-139634523D01*
X319627285Y-139729761D01*
X319532047Y-139777380D01*
X319341571Y-139777380D01*
X320722523Y-139777380D02*
X320151095Y-139777380D01*
X320436809Y-139777380D02*
X320436809Y-138777380D01*
X320341571Y-138920238D01*
X320246333Y-139015476D01*
X320151095Y-139063095D01*
%TO.C,JP1*%
X315511380Y-156408333D02*
X316225666Y-156408333D01*
X316368523Y-156455952D01*
X316463761Y-156551190D01*
X316511380Y-156694047D01*
X316511380Y-156789285D01*
X316511380Y-155932142D02*
X315511380Y-155932142D01*
X315511380Y-155551190D01*
X315559000Y-155455952D01*
X315606619Y-155408333D01*
X315701857Y-155360714D01*
X315844714Y-155360714D01*
X315939952Y-155408333D01*
X315987571Y-155455952D01*
X316035190Y-155551190D01*
X316035190Y-155932142D01*
X316511380Y-154408333D02*
X316511380Y-154979761D01*
X316511380Y-154694047D02*
X315511380Y-154694047D01*
X315654238Y-154789285D01*
X315749476Y-154884523D01*
X315797095Y-154979761D01*
%TO.C,J10*%
X352210476Y-244232380D02*
X352210476Y-244946666D01*
X352162857Y-245089523D01*
X352067619Y-245184761D01*
X351924761Y-245232380D01*
X351829523Y-245232380D01*
X353210476Y-245232380D02*
X352639047Y-245232380D01*
X352924761Y-245232380D02*
X352924761Y-244232380D01*
X352829523Y-244375238D01*
X352734285Y-244470476D01*
X352639047Y-244518095D01*
X353829523Y-244232380D02*
X353924761Y-244232380D01*
X354020000Y-244280000D01*
X354067619Y-244327619D01*
X354115238Y-244422857D01*
X354162857Y-244613333D01*
X354162857Y-244851428D01*
X354115238Y-245041904D01*
X354067619Y-245137142D01*
X354020000Y-245184761D01*
X353924761Y-245232380D01*
X353829523Y-245232380D01*
X353734285Y-245184761D01*
X353686666Y-245137142D01*
X353639047Y-245041904D01*
X353591428Y-244851428D01*
X353591428Y-244613333D01*
X353639047Y-244422857D01*
X353686666Y-244327619D01*
X353734285Y-244280000D01*
X353829523Y-244232380D01*
%TO.C,J9*%
X244609666Y-100677380D02*
X244609666Y-101391666D01*
X244562047Y-101534523D01*
X244466809Y-101629761D01*
X244323952Y-101677380D01*
X244228714Y-101677380D01*
X245133476Y-101677380D02*
X245323952Y-101677380D01*
X245419190Y-101629761D01*
X245466809Y-101582142D01*
X245562047Y-101439285D01*
X245609666Y-101248809D01*
X245609666Y-100867857D01*
X245562047Y-100772619D01*
X245514428Y-100725000D01*
X245419190Y-100677380D01*
X245228714Y-100677380D01*
X245133476Y-100725000D01*
X245085857Y-100772619D01*
X245038238Y-100867857D01*
X245038238Y-101105952D01*
X245085857Y-101201190D01*
X245133476Y-101248809D01*
X245228714Y-101296428D01*
X245419190Y-101296428D01*
X245514428Y-101248809D01*
X245562047Y-101201190D01*
X245609666Y-101105952D01*
%TO.C,J8*%
X294429380Y-159337333D02*
X295143666Y-159337333D01*
X295286523Y-159384952D01*
X295381761Y-159480190D01*
X295429380Y-159623047D01*
X295429380Y-159718285D01*
X294857952Y-158718285D02*
X294810333Y-158813523D01*
X294762714Y-158861142D01*
X294667476Y-158908761D01*
X294619857Y-158908761D01*
X294524619Y-158861142D01*
X294477000Y-158813523D01*
X294429380Y-158718285D01*
X294429380Y-158527809D01*
X294477000Y-158432571D01*
X294524619Y-158384952D01*
X294619857Y-158337333D01*
X294667476Y-158337333D01*
X294762714Y-158384952D01*
X294810333Y-158432571D01*
X294857952Y-158527809D01*
X294857952Y-158718285D01*
X294905571Y-158813523D01*
X294953190Y-158861142D01*
X295048428Y-158908761D01*
X295238904Y-158908761D01*
X295334142Y-158861142D01*
X295381761Y-158813523D01*
X295429380Y-158718285D01*
X295429380Y-158527809D01*
X295381761Y-158432571D01*
X295334142Y-158384952D01*
X295238904Y-158337333D01*
X295048428Y-158337333D01*
X294953190Y-158384952D01*
X294905571Y-158432571D01*
X294857952Y-158527809D01*
%TO.C,J7*%
X284963666Y-100457380D02*
X284963666Y-101171666D01*
X284916047Y-101314523D01*
X284820809Y-101409761D01*
X284677952Y-101457380D01*
X284582714Y-101457380D01*
X285344619Y-100457380D02*
X286011285Y-100457380D01*
X285582714Y-101457380D01*
%TO.C,J6*%
X269239666Y-100457380D02*
X269239666Y-101171666D01*
X269192047Y-101314523D01*
X269096809Y-101409761D01*
X268953952Y-101457380D01*
X268858714Y-101457380D01*
X270144428Y-100457380D02*
X269953952Y-100457380D01*
X269858714Y-100505000D01*
X269811095Y-100552619D01*
X269715857Y-100695476D01*
X269668238Y-100885952D01*
X269668238Y-101266904D01*
X269715857Y-101362142D01*
X269763476Y-101409761D01*
X269858714Y-101457380D01*
X270049190Y-101457380D01*
X270144428Y-101409761D01*
X270192047Y-101362142D01*
X270239666Y-101266904D01*
X270239666Y-101028809D01*
X270192047Y-100933571D01*
X270144428Y-100885952D01*
X270049190Y-100838333D01*
X269858714Y-100838333D01*
X269763476Y-100885952D01*
X269715857Y-100933571D01*
X269668238Y-101028809D01*
%TO.C,J5*%
X313352380Y-202263333D02*
X314066666Y-202263333D01*
X314209523Y-202310952D01*
X314304761Y-202406190D01*
X314352380Y-202549047D01*
X314352380Y-202644285D01*
X313352380Y-201310952D02*
X313352380Y-201787142D01*
X313828571Y-201834761D01*
X313780952Y-201787142D01*
X313733333Y-201691904D01*
X313733333Y-201453809D01*
X313780952Y-201358571D01*
X313828571Y-201310952D01*
X313923809Y-201263333D01*
X314161904Y-201263333D01*
X314257142Y-201310952D01*
X314304761Y-201358571D01*
X314352380Y-201453809D01*
X314352380Y-201691904D01*
X314304761Y-201787142D01*
X314257142Y-201834761D01*
%TO.C,J4*%
X256039666Y-100677380D02*
X256039666Y-101391666D01*
X255992047Y-101534523D01*
X255896809Y-101629761D01*
X255753952Y-101677380D01*
X255658714Y-101677380D01*
X256944428Y-101010714D02*
X256944428Y-101677380D01*
X256706333Y-100629761D02*
X256468238Y-101344047D01*
X257087285Y-101344047D01*
%TO.C,J3*%
X338756666Y-183372380D02*
X338756666Y-184086666D01*
X338709047Y-184229523D01*
X338613809Y-184324761D01*
X338470952Y-184372380D01*
X338375714Y-184372380D01*
X339137619Y-183372380D02*
X339756666Y-183372380D01*
X339423333Y-183753333D01*
X339566190Y-183753333D01*
X339661428Y-183800952D01*
X339709047Y-183848571D01*
X339756666Y-183943809D01*
X339756666Y-184181904D01*
X339709047Y-184277142D01*
X339661428Y-184324761D01*
X339566190Y-184372380D01*
X339280476Y-184372380D01*
X339185238Y-184324761D01*
X339137619Y-184277142D01*
%TO.C,J2*%
X227754380Y-126952333D02*
X228468666Y-126952333D01*
X228611523Y-126999952D01*
X228706761Y-127095190D01*
X228754380Y-127238047D01*
X228754380Y-127333285D01*
X227849619Y-126523761D02*
X227802000Y-126476142D01*
X227754380Y-126380904D01*
X227754380Y-126142809D01*
X227802000Y-126047571D01*
X227849619Y-125999952D01*
X227944857Y-125952333D01*
X228040095Y-125952333D01*
X228182952Y-125999952D01*
X228754380Y-126571380D01*
X228754380Y-125952333D01*
%TO.C,J1*%
X342566666Y-158412380D02*
X342566666Y-159126666D01*
X342519047Y-159269523D01*
X342423809Y-159364761D01*
X342280952Y-159412380D01*
X342185714Y-159412380D01*
X343566666Y-159412380D02*
X342995238Y-159412380D01*
X343280952Y-159412380D02*
X343280952Y-158412380D01*
X343185714Y-158555238D01*
X343090476Y-158650476D01*
X342995238Y-158698095D01*
%TO.C,D14*%
X325175714Y-147352380D02*
X325175714Y-146352380D01*
X325413809Y-146352380D01*
X325556666Y-146400000D01*
X325651904Y-146495238D01*
X325699523Y-146590476D01*
X325747142Y-146780952D01*
X325747142Y-146923809D01*
X325699523Y-147114285D01*
X325651904Y-147209523D01*
X325556666Y-147304761D01*
X325413809Y-147352380D01*
X325175714Y-147352380D01*
X326699523Y-147352380D02*
X326128095Y-147352380D01*
X326413809Y-147352380D02*
X326413809Y-146352380D01*
X326318571Y-146495238D01*
X326223333Y-146590476D01*
X326128095Y-146638095D01*
X327556666Y-146685714D02*
X327556666Y-147352380D01*
X327318571Y-146304761D02*
X327080476Y-147019047D01*
X327699523Y-147019047D01*
%TO.C,D13*%
X241101714Y-133255380D02*
X241101714Y-132255380D01*
X241339809Y-132255380D01*
X241482666Y-132303000D01*
X241577904Y-132398238D01*
X241625523Y-132493476D01*
X241673142Y-132683952D01*
X241673142Y-132826809D01*
X241625523Y-133017285D01*
X241577904Y-133112523D01*
X241482666Y-133207761D01*
X241339809Y-133255380D01*
X241101714Y-133255380D01*
X242625523Y-133255380D02*
X242054095Y-133255380D01*
X242339809Y-133255380D02*
X242339809Y-132255380D01*
X242244571Y-132398238D01*
X242149333Y-132493476D01*
X242054095Y-132541095D01*
X242958857Y-132255380D02*
X243577904Y-132255380D01*
X243244571Y-132636333D01*
X243387428Y-132636333D01*
X243482666Y-132683952D01*
X243530285Y-132731571D01*
X243577904Y-132826809D01*
X243577904Y-133064904D01*
X243530285Y-133160142D01*
X243482666Y-133207761D01*
X243387428Y-133255380D01*
X243101714Y-133255380D01*
X243006476Y-133207761D01*
X242958857Y-133160142D01*
%TO.C,D5*%
X291827580Y-226239295D02*
X290827580Y-226239295D01*
X290827580Y-226001200D01*
X290875200Y-225858342D01*
X290970438Y-225763104D01*
X291065676Y-225715485D01*
X291256152Y-225667866D01*
X291399009Y-225667866D01*
X291589485Y-225715485D01*
X291684723Y-225763104D01*
X291779961Y-225858342D01*
X291827580Y-226001200D01*
X291827580Y-226239295D01*
X290827580Y-224763104D02*
X290827580Y-225239295D01*
X291303771Y-225286914D01*
X291256152Y-225239295D01*
X291208533Y-225144057D01*
X291208533Y-224905961D01*
X291256152Y-224810723D01*
X291303771Y-224763104D01*
X291399009Y-224715485D01*
X291637104Y-224715485D01*
X291732342Y-224763104D01*
X291779961Y-224810723D01*
X291827580Y-224905961D01*
X291827580Y-225144057D01*
X291779961Y-225239295D01*
X291732342Y-225286914D01*
%TO.C,D4*%
X292482380Y-217908095D02*
X291482380Y-217908095D01*
X291482380Y-217670000D01*
X291530000Y-217527142D01*
X291625238Y-217431904D01*
X291720476Y-217384285D01*
X291910952Y-217336666D01*
X292053809Y-217336666D01*
X292244285Y-217384285D01*
X292339523Y-217431904D01*
X292434761Y-217527142D01*
X292482380Y-217670000D01*
X292482380Y-217908095D01*
X291815714Y-216479523D02*
X292482380Y-216479523D01*
X291434761Y-216717619D02*
X292149047Y-216955714D01*
X292149047Y-216336666D01*
X292112380Y-212351904D02*
X291112380Y-212351904D01*
X292112380Y-211780476D02*
X291540952Y-212209047D01*
X291112380Y-211780476D02*
X291683809Y-212351904D01*
%TO.C,D3*%
X268922380Y-178818095D02*
X267922380Y-178818095D01*
X267922380Y-178580000D01*
X267970000Y-178437142D01*
X268065238Y-178341904D01*
X268160476Y-178294285D01*
X268350952Y-178246666D01*
X268493809Y-178246666D01*
X268684285Y-178294285D01*
X268779523Y-178341904D01*
X268874761Y-178437142D01*
X268922380Y-178580000D01*
X268922380Y-178818095D01*
X267922380Y-177913333D02*
X267922380Y-177294285D01*
X268303333Y-177627619D01*
X268303333Y-177484761D01*
X268350952Y-177389523D01*
X268398571Y-177341904D01*
X268493809Y-177294285D01*
X268731904Y-177294285D01*
X268827142Y-177341904D01*
X268874761Y-177389523D01*
X268922380Y-177484761D01*
X268922380Y-177770476D01*
X268874761Y-177865714D01*
X268827142Y-177913333D01*
X268552380Y-173261904D02*
X267552380Y-173261904D01*
X268552380Y-172690476D02*
X267980952Y-173119047D01*
X267552380Y-172690476D02*
X268123809Y-173261904D01*
%TO.C,D2*%
X298981904Y-175782380D02*
X298981904Y-174782380D01*
X299220000Y-174782380D01*
X299362857Y-174830000D01*
X299458095Y-174925238D01*
X299505714Y-175020476D01*
X299553333Y-175210952D01*
X299553333Y-175353809D01*
X299505714Y-175544285D01*
X299458095Y-175639523D01*
X299362857Y-175734761D01*
X299220000Y-175782380D01*
X298981904Y-175782380D01*
X299934285Y-174877619D02*
X299981904Y-174830000D01*
X300077142Y-174782380D01*
X300315238Y-174782380D01*
X300410476Y-174830000D01*
X300458095Y-174877619D01*
X300505714Y-174972857D01*
X300505714Y-175068095D01*
X300458095Y-175210952D01*
X299886666Y-175782380D01*
X300505714Y-175782380D01*
X294378095Y-176152380D02*
X294378095Y-175152380D01*
X294949523Y-176152380D02*
X294520952Y-175580952D01*
X294949523Y-175152380D02*
X294378095Y-175723809D01*
%TO.C,D1*%
X309005380Y-123293095D02*
X308005380Y-123293095D01*
X308005380Y-123055000D01*
X308053000Y-122912142D01*
X308148238Y-122816904D01*
X308243476Y-122769285D01*
X308433952Y-122721666D01*
X308576809Y-122721666D01*
X308767285Y-122769285D01*
X308862523Y-122816904D01*
X308957761Y-122912142D01*
X309005380Y-123055000D01*
X309005380Y-123293095D01*
X309005380Y-121769285D02*
X309005380Y-122340714D01*
X309005380Y-122055000D02*
X308005380Y-122055000D01*
X308148238Y-122150238D01*
X308243476Y-122245476D01*
X308291095Y-122340714D01*
X309375380Y-126626904D02*
X308375380Y-126626904D01*
X309375380Y-126055476D02*
X308803952Y-126484047D01*
X308375380Y-126055476D02*
X308946809Y-126626904D01*
%TO.C,C10*%
X259739142Y-119427857D02*
X259786761Y-119475476D01*
X259834380Y-119618333D01*
X259834380Y-119713571D01*
X259786761Y-119856428D01*
X259691523Y-119951666D01*
X259596285Y-119999285D01*
X259405809Y-120046904D01*
X259262952Y-120046904D01*
X259072476Y-119999285D01*
X258977238Y-119951666D01*
X258882000Y-119856428D01*
X258834380Y-119713571D01*
X258834380Y-119618333D01*
X258882000Y-119475476D01*
X258929619Y-119427857D01*
X259834380Y-118475476D02*
X259834380Y-119046904D01*
X259834380Y-118761190D02*
X258834380Y-118761190D01*
X258977238Y-118856428D01*
X259072476Y-118951666D01*
X259120095Y-119046904D01*
X258834380Y-117856428D02*
X258834380Y-117761190D01*
X258882000Y-117665952D01*
X258929619Y-117618333D01*
X259024857Y-117570714D01*
X259215333Y-117523095D01*
X259453428Y-117523095D01*
X259643904Y-117570714D01*
X259739142Y-117618333D01*
X259786761Y-117665952D01*
X259834380Y-117761190D01*
X259834380Y-117856428D01*
X259786761Y-117951666D01*
X259739142Y-117999285D01*
X259643904Y-118046904D01*
X259453428Y-118094523D01*
X259215333Y-118094523D01*
X259024857Y-118046904D01*
X258929619Y-117999285D01*
X258882000Y-117951666D01*
X258834380Y-117856428D01*
%TO.C,C9*%
X270463542Y-119049466D02*
X270511161Y-119097085D01*
X270558780Y-119239942D01*
X270558780Y-119335180D01*
X270511161Y-119478038D01*
X270415923Y-119573276D01*
X270320685Y-119620895D01*
X270130209Y-119668514D01*
X269987352Y-119668514D01*
X269796876Y-119620895D01*
X269701638Y-119573276D01*
X269606400Y-119478038D01*
X269558780Y-119335180D01*
X269558780Y-119239942D01*
X269606400Y-119097085D01*
X269654019Y-119049466D01*
X270558780Y-118573276D02*
X270558780Y-118382800D01*
X270511161Y-118287561D01*
X270463542Y-118239942D01*
X270320685Y-118144704D01*
X270130209Y-118097085D01*
X269749257Y-118097085D01*
X269654019Y-118144704D01*
X269606400Y-118192323D01*
X269558780Y-118287561D01*
X269558780Y-118478038D01*
X269606400Y-118573276D01*
X269654019Y-118620895D01*
X269749257Y-118668514D01*
X269987352Y-118668514D01*
X270082590Y-118620895D01*
X270130209Y-118573276D01*
X270177828Y-118478038D01*
X270177828Y-118287561D01*
X270130209Y-118192323D01*
X270082590Y-118144704D01*
X269987352Y-118097085D01*
%TO.C,C8*%
X240847142Y-177926666D02*
X240894761Y-177974285D01*
X240942380Y-178117142D01*
X240942380Y-178212380D01*
X240894761Y-178355238D01*
X240799523Y-178450476D01*
X240704285Y-178498095D01*
X240513809Y-178545714D01*
X240370952Y-178545714D01*
X240180476Y-178498095D01*
X240085238Y-178450476D01*
X239990000Y-178355238D01*
X239942380Y-178212380D01*
X239942380Y-178117142D01*
X239990000Y-177974285D01*
X240037619Y-177926666D01*
X240370952Y-177355238D02*
X240323333Y-177450476D01*
X240275714Y-177498095D01*
X240180476Y-177545714D01*
X240132857Y-177545714D01*
X240037619Y-177498095D01*
X239990000Y-177450476D01*
X239942380Y-177355238D01*
X239942380Y-177164761D01*
X239990000Y-177069523D01*
X240037619Y-177021904D01*
X240132857Y-176974285D01*
X240180476Y-176974285D01*
X240275714Y-177021904D01*
X240323333Y-177069523D01*
X240370952Y-177164761D01*
X240370952Y-177355238D01*
X240418571Y-177450476D01*
X240466190Y-177498095D01*
X240561428Y-177545714D01*
X240751904Y-177545714D01*
X240847142Y-177498095D01*
X240894761Y-177450476D01*
X240942380Y-177355238D01*
X240942380Y-177164761D01*
X240894761Y-177069523D01*
X240847142Y-177021904D01*
X240751904Y-176974285D01*
X240561428Y-176974285D01*
X240466190Y-177021904D01*
X240418571Y-177069523D01*
X240370952Y-177164761D01*
%TO.C,C7*%
X209447142Y-178006666D02*
X209494761Y-178054285D01*
X209542380Y-178197142D01*
X209542380Y-178292380D01*
X209494761Y-178435238D01*
X209399523Y-178530476D01*
X209304285Y-178578095D01*
X209113809Y-178625714D01*
X208970952Y-178625714D01*
X208780476Y-178578095D01*
X208685238Y-178530476D01*
X208590000Y-178435238D01*
X208542380Y-178292380D01*
X208542380Y-178197142D01*
X208590000Y-178054285D01*
X208637619Y-178006666D01*
X208542380Y-177673333D02*
X208542380Y-177006666D01*
X209542380Y-177435238D01*
%TO.C,C6*%
X310083333Y-153607142D02*
X310035714Y-153654761D01*
X309892857Y-153702380D01*
X309797619Y-153702380D01*
X309654761Y-153654761D01*
X309559523Y-153559523D01*
X309511904Y-153464285D01*
X309464285Y-153273809D01*
X309464285Y-153130952D01*
X309511904Y-152940476D01*
X309559523Y-152845238D01*
X309654761Y-152750000D01*
X309797619Y-152702380D01*
X309892857Y-152702380D01*
X310035714Y-152750000D01*
X310083333Y-152797619D01*
X310940476Y-152702380D02*
X310750000Y-152702380D01*
X310654761Y-152750000D01*
X310607142Y-152797619D01*
X310511904Y-152940476D01*
X310464285Y-153130952D01*
X310464285Y-153511904D01*
X310511904Y-153607142D01*
X310559523Y-153654761D01*
X310654761Y-153702380D01*
X310845238Y-153702380D01*
X310940476Y-153654761D01*
X310988095Y-153607142D01*
X311035714Y-153511904D01*
X311035714Y-153273809D01*
X310988095Y-153178571D01*
X310940476Y-153130952D01*
X310845238Y-153083333D01*
X310654761Y-153083333D01*
X310559523Y-153130952D01*
X310511904Y-153178571D01*
X310464285Y-153273809D01*
%TO.C,C5*%
X268267142Y-166161066D02*
X268314761Y-166208685D01*
X268362380Y-166351542D01*
X268362380Y-166446780D01*
X268314761Y-166589638D01*
X268219523Y-166684876D01*
X268124285Y-166732495D01*
X267933809Y-166780114D01*
X267790952Y-166780114D01*
X267600476Y-166732495D01*
X267505238Y-166684876D01*
X267410000Y-166589638D01*
X267362380Y-166446780D01*
X267362380Y-166351542D01*
X267410000Y-166208685D01*
X267457619Y-166161066D01*
X267362380Y-165256304D02*
X267362380Y-165732495D01*
X267838571Y-165780114D01*
X267790952Y-165732495D01*
X267743333Y-165637257D01*
X267743333Y-165399161D01*
X267790952Y-165303923D01*
X267838571Y-165256304D01*
X267933809Y-165208685D01*
X268171904Y-165208685D01*
X268267142Y-165256304D01*
X268314761Y-165303923D01*
X268362380Y-165399161D01*
X268362380Y-165637257D01*
X268314761Y-165732495D01*
X268267142Y-165780114D01*
%TO.C,C4*%
X300017142Y-170326666D02*
X300064761Y-170374285D01*
X300112380Y-170517142D01*
X300112380Y-170612380D01*
X300064761Y-170755238D01*
X299969523Y-170850476D01*
X299874285Y-170898095D01*
X299683809Y-170945714D01*
X299540952Y-170945714D01*
X299350476Y-170898095D01*
X299255238Y-170850476D01*
X299160000Y-170755238D01*
X299112380Y-170612380D01*
X299112380Y-170517142D01*
X299160000Y-170374285D01*
X299207619Y-170326666D01*
X299445714Y-169469523D02*
X300112380Y-169469523D01*
X299064761Y-169707619D02*
X299779047Y-169945714D01*
X299779047Y-169326666D01*
%TO.C,C3*%
X289373333Y-202347142D02*
X289325714Y-202394761D01*
X289182857Y-202442380D01*
X289087619Y-202442380D01*
X288944761Y-202394761D01*
X288849523Y-202299523D01*
X288801904Y-202204285D01*
X288754285Y-202013809D01*
X288754285Y-201870952D01*
X288801904Y-201680476D01*
X288849523Y-201585238D01*
X288944761Y-201490000D01*
X289087619Y-201442380D01*
X289182857Y-201442380D01*
X289325714Y-201490000D01*
X289373333Y-201537619D01*
X289706666Y-201442380D02*
X290325714Y-201442380D01*
X289992380Y-201823333D01*
X290135238Y-201823333D01*
X290230476Y-201870952D01*
X290278095Y-201918571D01*
X290325714Y-202013809D01*
X290325714Y-202251904D01*
X290278095Y-202347142D01*
X290230476Y-202394761D01*
X290135238Y-202442380D01*
X289849523Y-202442380D01*
X289754285Y-202394761D01*
X289706666Y-202347142D01*
%TO.C,C2*%
X318583333Y-141817142D02*
X318535714Y-141864761D01*
X318392857Y-141912380D01*
X318297619Y-141912380D01*
X318154761Y-141864761D01*
X318059523Y-141769523D01*
X318011904Y-141674285D01*
X317964285Y-141483809D01*
X317964285Y-141340952D01*
X318011904Y-141150476D01*
X318059523Y-141055238D01*
X318154761Y-140960000D01*
X318297619Y-140912380D01*
X318392857Y-140912380D01*
X318535714Y-140960000D01*
X318583333Y-141007619D01*
X318964285Y-141007619D02*
X319011904Y-140960000D01*
X319107142Y-140912380D01*
X319345238Y-140912380D01*
X319440476Y-140960000D01*
X319488095Y-141007619D01*
X319535714Y-141102857D01*
X319535714Y-141198095D01*
X319488095Y-141340952D01*
X318916666Y-141912380D01*
X319535714Y-141912380D01*
%TO.C,C1*%
X290643333Y-185607142D02*
X290595714Y-185654761D01*
X290452857Y-185702380D01*
X290357619Y-185702380D01*
X290214761Y-185654761D01*
X290119523Y-185559523D01*
X290071904Y-185464285D01*
X290024285Y-185273809D01*
X290024285Y-185130952D01*
X290071904Y-184940476D01*
X290119523Y-184845238D01*
X290214761Y-184750000D01*
X290357619Y-184702380D01*
X290452857Y-184702380D01*
X290595714Y-184750000D01*
X290643333Y-184797619D01*
X291595714Y-185702380D02*
X291024285Y-185702380D01*
X291310000Y-185702380D02*
X291310000Y-184702380D01*
X291214761Y-184845238D01*
X291119523Y-184940476D01*
X291024285Y-184988095D01*
%TO.C,J11*%
X248618476Y-121523380D02*
X248618476Y-122237666D01*
X248570857Y-122380523D01*
X248475619Y-122475761D01*
X248332761Y-122523380D01*
X248237523Y-122523380D01*
X249618476Y-122523380D02*
X249047047Y-122523380D01*
X249332761Y-122523380D02*
X249332761Y-121523380D01*
X249237523Y-121666238D01*
X249142285Y-121761476D01*
X249047047Y-121809095D01*
X250570857Y-122523380D02*
X249999428Y-122523380D01*
X250285142Y-122523380D02*
X250285142Y-121523380D01*
X250189904Y-121666238D01*
X250094666Y-121761476D01*
X249999428Y-121809095D01*
%TO.C,J12*%
X202350476Y-100042380D02*
X202350476Y-100756666D01*
X202302857Y-100899523D01*
X202207619Y-100994761D01*
X202064761Y-101042380D01*
X201969523Y-101042380D01*
X203350476Y-101042380D02*
X202779047Y-101042380D01*
X203064761Y-101042380D02*
X203064761Y-100042380D01*
X202969523Y-100185238D01*
X202874285Y-100280476D01*
X202779047Y-100328095D01*
X203731428Y-100137619D02*
X203779047Y-100090000D01*
X203874285Y-100042380D01*
X204112380Y-100042380D01*
X204207619Y-100090000D01*
X204255238Y-100137619D01*
X204302857Y-100232857D01*
X204302857Y-100328095D01*
X204255238Y-100470952D01*
X203683809Y-101042380D01*
X204302857Y-101042380D01*
%TO.C,J13*%
X203660476Y-110982380D02*
X203660476Y-111696666D01*
X203612857Y-111839523D01*
X203517619Y-111934761D01*
X203374761Y-111982380D01*
X203279523Y-111982380D01*
X204660476Y-111982380D02*
X204089047Y-111982380D01*
X204374761Y-111982380D02*
X204374761Y-110982380D01*
X204279523Y-111125238D01*
X204184285Y-111220476D01*
X204089047Y-111268095D01*
X204993809Y-110982380D02*
X205612857Y-110982380D01*
X205279523Y-111363333D01*
X205422380Y-111363333D01*
X205517619Y-111410952D01*
X205565238Y-111458571D01*
X205612857Y-111553809D01*
X205612857Y-111791904D01*
X205565238Y-111887142D01*
X205517619Y-111934761D01*
X205422380Y-111982380D01*
X205136666Y-111982380D01*
X205041428Y-111934761D01*
X204993809Y-111887142D01*
%TO.C,J14*%
X230330476Y-110152380D02*
X230330476Y-110866666D01*
X230282857Y-111009523D01*
X230187619Y-111104761D01*
X230044761Y-111152380D01*
X229949523Y-111152380D01*
X231330476Y-111152380D02*
X230759047Y-111152380D01*
X231044761Y-111152380D02*
X231044761Y-110152380D01*
X230949523Y-110295238D01*
X230854285Y-110390476D01*
X230759047Y-110438095D01*
X232187619Y-110485714D02*
X232187619Y-111152380D01*
X231949523Y-110104761D02*
X231711428Y-110819047D01*
X232330476Y-110819047D01*
%TD*%
M02*
