M48
; DRILL file {KiCad 5.1.7-a382d34a8~88~ubuntu20.04.1} date Sat May  8 15:19:45 2021
; FORMAT={-:-/ absolute / inch / decimal}
; #@! TF.CreationDate,2021-05-08T15:19:45+02:00
; #@! TF.GenerationSoftware,Kicad,Pcbnew,5.1.7-a382d34a8~88~ubuntu20.04.1
; #@! TF.FileFunction,NonPlated,1,4,NPTH
FMAT,2
INCH
T1C0.0433
T2C0.0472
T3C0.1181
T4C0.1378
%
G90
G05
T1
X13.0424Y-5.0866
X13.3376Y-5.2834
X8.3174Y-5.0916
X8.6126Y-5.2884
X11.0774Y-5.0891
X11.3726Y-5.2859
X10.2874Y-5.0916
X10.5826Y-5.2884
T2
X14.6181Y-6.7039
X15.8571Y-6.6957
T3
X11.813Y-4.2039
X11.998Y-4.2039
X11.1396Y-4.2049
X11.3247Y-4.2049
X12.5131Y-4.2049
X10.6131Y-4.2049
X15.261Y-6.5496
X15.4461Y-6.5496
T4
X10.392Y-6.1959
X10.05Y-7.1059
X11.0Y-6.2191
X9.85Y-6.1999
X10.75Y-7.1059
X11.295Y-7.1009
X12.595Y-5.3309
T0
M30
